<ttFont>
<head>
    <!-- Most of this table will be recalculated by the compiler -->
    <tableVersion value="1.0"/>
    <fontRevision value="5.0"/>
    <checkSumAdjustment value="0xb90b8fc8"/>
    <magicNumber value="0x5f0f3cf5"/>
    <flags value="00000000 00001011"/>
    <unitsPerEm value="2048"/>
    <created value="Sun May 15 08:57:39 2005"/>
    <modified value="Fri Apr 15 05:53:55 2011"/>
    <xMin value="0"/>
    <yMin value="-1120"/>
    <xMax value="9241"/>
    <yMax value="2300"/>
    <macStyle value="00000000 00000000"/>
    <lowestRecPPEM value="8"/>
    <fontDirectionHint value="2"/>
    <indexToLocFormat value="1"/>
    <glyphDataFormat value="0"/>
  </head>
    <TTGlyph name=".notdef" xMin="142" yMin="226" xMax="842" yMax="1588">
      <contour>
        <pt x="142" y="226" on="1"/>
        <pt x="142" y="1588" on="1"/>
        <pt x="842" y="1588" on="1"/>
        <pt x="842" y="226" on="1"/>
      </contour>
      <contour>
        <pt x="284" y="368" on="1"/>
        <pt x="700" y="368" on="1"/>
        <pt x="700" y="1447" on="1"/>
        <pt x="284" y="1447" on="1"/>
      </contour>
    </TTGlyph>
    <TTGlyph name=".null" xMin="142" yMin="226" xMax="842" yMax="1588">
      <contour>
        <pt x="142" y="226" on="1"/>
        <pt x="142" y="1588" on="1"/>
        <pt x="842" y="1588" on="1"/>
        <pt x="842" y="226" on="1"/>
      </contour>
      <contour>
        <pt x="284" y="368" on="1"/>
        <pt x="700" y="368" on="1"/>
        <pt x="700" y="1447" on="1"/>
        <pt x="284" y="1447" on="1"/>
      </contour>
    </TTGlyph>
    <TTGlyph name="afii57381" xMin="142" yMin="226" xMax="842" yMax="1588">
      <contour>
        <pt x="142" y="226" on="1"/>
        <pt x="142" y="1588" on="1"/>
        <pt x="842" y="1588" on="1"/>
        <pt x="842" y="226" on="1"/>
      </contour>
      <contour>
        <pt x="284" y="368" on="1"/>
        <pt x="700" y="368" on="1"/>
        <pt x="700" y="1447" on="1"/>
        <pt x="284" y="1447" on="1"/>
      </contour>
    </TTGlyph>
    <TTGlyph name="afii57388" xMin="142" yMin="226" xMax="842" yMax="1588">
      <contour>
        <pt x="142" y="226" on="1"/>
        <pt x="142" y="1588" on="1"/>
        <pt x="842" y="1588" on="1"/>
        <pt x="842" y="226" on="1"/>
      </contour>
      <contour>
        <pt x="284" y="368" on="1"/>
        <pt x="700" y="368" on="1"/>
        <pt x="700" y="1447" on="1"/>
        <pt x="284" y="1447" on="1"/>
      </contour>
    </TTGlyph>
    <TTGlyph name="afii57396" xMin="142" yMin="226" xMax="842" yMax="1588">
      <contour>
        <pt x="142" y="226" on="1"/>
        <pt x="142" y="1588" on="1"/>
        <pt x="842" y="1588" on="1"/>
        <pt x="842" y="226" on="1"/>
      </contour>
      <contour>
        <pt x="284" y="368" on="1"/>
        <pt x="700" y="368" on="1"/>
        <pt x="700" y="1447" on="1"/>
        <pt x="284" y="1447" on="1"/>
      </contour>
    </TTGlyph>
    <TTGlyph name="afii57397" xMin="142" yMin="226" xMax="842" yMax="1588">
      <contour>
        <pt x="142" y="226" on="1"/>
        <pt x="142" y="1588" on="1"/>
        <pt x="842" y="1588" on="1"/>
        <pt x="842" y="226" on="1"/>
      </contour>
      <contour>
        <pt x="284" y="368" on="1"/>
        <pt x="700" y="368" on="1"/>
        <pt x="700" y="1447" on="1"/>
        <pt x="284" y="1447" on="1"/>
      </contour>
    </TTGlyph>
    <TTGlyph name="afii57398" xMin="142" yMin="226" xMax="842" yMax="1588">
      <contour>
        <pt x="142" y="226" on="1"/>
        <pt x="142" y="1588" on="1"/>
        <pt x="842" y="1588" on="1"/>
        <pt x="842" y="226" on="1"/>
      </contour>
      <contour>
        <pt x="284" y="368" on="1"/>
        <pt x="700" y="368" on="1"/>
        <pt x="700" y="1447" on="1"/>
        <pt x="284" y="1447" on="1"/>
      </contour>
    </TTGlyph>
    <TTGlyph name="afii57403" xMin="142" yMin="226" xMax="842" yMax="1588">
      <contour>
        <pt x="142" y="226" on="1"/>
        <pt x="142" y="1588" on="1"/>
        <pt x="842" y="1588" on="1"/>
        <pt x="842" y="226" on="1"/>
      </contour>
      <contour>
        <pt x="284" y="368" on="1"/>
        <pt x="700" y="368" on="1"/>
        <pt x="700" y="1447" on="1"/>
        <pt x="284" y="1447" on="1"/>
      </contour>
    </TTGlyph>
    <TTGlyph name="afii57407" xMin="142" yMin="226" xMax="842" yMax="1588">
      <contour>
        <pt x="142" y="226" on="1"/>
        <pt x="142" y="1588" on="1"/>
        <pt x="842" y="1588" on="1"/>
        <pt x="842" y="226" on="1"/>
      </contour>
      <contour>
        <pt x="284" y="368" on="1"/>
        <pt x="700" y="368" on="1"/>
        <pt x="700" y="1447" on="1"/>
        <pt x="284" y="1447" on="1"/>
      </contour>
    </TTGlyph>
    <TTGlyph name="afii57440" xMin="142" yMin="226" xMax="842" yMax="1588">
      <contour>
        <pt x="142" y="226" on="1"/>
        <pt x="142" y="1588" on="1"/>
        <pt x="842" y="1588" on="1"/>
        <pt x="842" y="226" on="1"/>
      </contour>
      <contour>
        <pt x="284" y="368" on="1"/>
        <pt x="700" y="368" on="1"/>
        <pt x="700" y="1447" on="1"/>
        <pt x="284" y="1447" on="1"/>
      </contour>
    </TTGlyph>
    <TTGlyph name="afii57451" xMin="142" yMin="226" xMax="842" yMax="1588">
      <contour>
        <pt x="142" y="226" on="1"/>
        <pt x="142" y="1588" on="1"/>
        <pt x="842" y="1588" on="1"/>
        <pt x="842" y="226" on="1"/>
      </contour>
      <contour>
        <pt x="284" y="368" on="1"/>
        <pt x="700" y="368" on="1"/>
        <pt x="700" y="1447" on="1"/>
        <pt x="284" y="1447" on="1"/>
      </contour>
    </TTGlyph>
    <TTGlyph name="afii57452" xMin="142" yMin="226" xMax="842" yMax="1588">
      <contour>
        <pt x="142" y="226" on="1"/>
        <pt x="142" y="1588" on="1"/>
        <pt x="842" y="1588" on="1"/>
        <pt x="842" y="226" on="1"/>
      </contour>
      <contour>
        <pt x="284" y="368" on="1"/>
        <pt x="700" y="368" on="1"/>
        <pt x="700" y="1447" on="1"/>
        <pt x="284" y="1447" on="1"/>
      </contour>
    </TTGlyph>
    <TTGlyph name="afii57453" xMin="142" yMin="226" xMax="842" yMax="1588">
      <contour>
        <pt x="142" y="226" on="1"/>
        <pt x="142" y="1588" on="1"/>
        <pt x="842" y="1588" on="1"/>
        <pt x="842" y="226" on="1"/>
      </contour>
      <contour>
        <pt x="284" y="368" on="1"/>
        <pt x="700" y="368" on="1"/>
        <pt x="700" y="1447" on="1"/>
        <pt x="284" y="1447" on="1"/>
      </contour>
    </TTGlyph>
    <TTGlyph name="afii57454" xMin="142" yMin="226" xMax="842" yMax="1588">
      <contour>
        <pt x="142" y="226" on="1"/>
        <pt x="142" y="1588" on="1"/>
        <pt x="842" y="1588" on="1"/>
        <pt x="842" y="226" on="1"/>
      </contour>
      <contour>
        <pt x="284" y="368" on="1"/>
        <pt x="700" y="368" on="1"/>
        <pt x="700" y="1447" on="1"/>
        <pt x="284" y="1447" on="1"/>
      </contour>
    </TTGlyph>
    <TTGlyph name="afii57455" xMin="142" yMin="226" xMax="842" yMax="1588">
      <contour>
        <pt x="142" y="226" on="1"/>
        <pt x="142" y="1588" on="1"/>
        <pt x="842" y="1588" on="1"/>
        <pt x="842" y="226" on="1"/>
      </contour>
      <contour>
        <pt x="284" y="368" on="1"/>
        <pt x="700" y="368" on="1"/>
        <pt x="700" y="1447" on="1"/>
        <pt x="284" y="1447" on="1"/>
      </contour>
    </TTGlyph>
    <TTGlyph name="afii57456" xMin="142" yMin="226" xMax="842" yMax="1588">
      <contour>
        <pt x="142" y="226" on="1"/>
        <pt x="142" y="1588" on="1"/>
        <pt x="842" y="1588" on="1"/>
        <pt x="842" y="226" on="1"/>
      </contour>
      <contour>
        <pt x="284" y="368" on="1"/>
        <pt x="700" y="368" on="1"/>
        <pt x="700" y="1447" on="1"/>
        <pt x="284" y="1447" on="1"/>
      </contour>
    </TTGlyph>
    <TTGlyph name="afii57457" xMin="142" yMin="226" xMax="842" yMax="1588">
      <contour>
        <pt x="142" y="226" on="1"/>
        <pt x="142" y="1588" on="1"/>
        <pt x="842" y="1588" on="1"/>
        <pt x="842" y="226" on="1"/>
      </contour>
      <contour>
        <pt x="284" y="368" on="1"/>
        <pt x="700" y="368" on="1"/>
        <pt x="700" y="1447" on="1"/>
        <pt x="284" y="1447" on="1"/>
      </contour>
    </TTGlyph>
    <TTGlyph name="afii57458" xMin="142" yMin="226" xMax="842" yMax="1588">
      <contour>
        <pt x="142" y="226" on="1"/>
        <pt x="142" y="1588" on="1"/>
        <pt x="842" y="1588" on="1"/>
        <pt x="842" y="226" on="1"/>
      </contour>
      <contour>
        <pt x="284" y="368" on="1"/>
        <pt x="700" y="368" on="1"/>
        <pt x="700" y="1447" on="1"/>
        <pt x="284" y="1447" on="1"/>
      </contour>
    </TTGlyph>
    <TTGlyph name="afii57505" xMin="142" yMin="226" xMax="842" yMax="1588">
      <contour>
        <pt x="142" y="226" on="1"/>
        <pt x="142" y="1588" on="1"/>
        <pt x="842" y="1588" on="1"/>
        <pt x="842" y="226" on="1"/>
      </contour>
      <contour>
        <pt x="284" y="368" on="1"/>
        <pt x="700" y="368" on="1"/>
        <pt x="700" y="1447" on="1"/>
        <pt x="284" y="1447" on="1"/>
      </contour>
    </TTGlyph>
    <TTGlyph name="afii57506" xMin="142" yMin="226" xMax="842" yMax="1588">
      <contour>
        <pt x="142" y="226" on="1"/>
        <pt x="142" y="1588" on="1"/>
        <pt x="842" y="1588" on="1"/>
        <pt x="842" y="226" on="1"/>
      </contour>
      <contour>
        <pt x="284" y="368" on="1"/>
        <pt x="700" y="368" on="1"/>
        <pt x="700" y="1447" on="1"/>
        <pt x="284" y="1447" on="1"/>
      </contour>
    </TTGlyph>
    <TTGlyph name="afii57507" xMin="142" yMin="226" xMax="842" yMax="1588">
      <contour>
        <pt x="142" y="226" on="1"/>
        <pt x="142" y="1588" on="1"/>
        <pt x="842" y="1588" on="1"/>
        <pt x="842" y="226" on="1"/>
      </contour>
      <contour>
        <pt x="284" y="368" on="1"/>
        <pt x="700" y="368" on="1"/>
        <pt x="700" y="1447" on="1"/>
        <pt x="284" y="1447" on="1"/>
      </contour>
    </TTGlyph>
    <TTGlyph name="afii57508" xMin="142" yMin="226" xMax="842" yMax="1588">
      <contour>
        <pt x="142" y="226" on="1"/>
        <pt x="142" y="1588" on="1"/>
        <pt x="842" y="1588" on="1"/>
        <pt x="842" y="226" on="1"/>
      </contour>
      <contour>
        <pt x="284" y="368" on="1"/>
        <pt x="700" y="368" on="1"/>
        <pt x="700" y="1447" on="1"/>
        <pt x="284" y="1447" on="1"/>
      </contour>
    </TTGlyph>
    <TTGlyph name="afii57509" xMin="142" yMin="226" xMax="842" yMax="1588">
      <contour>
        <pt x="142" y="226" on="1"/>
        <pt x="142" y="1588" on="1"/>
        <pt x="842" y="1588" on="1"/>
        <pt x="842" y="226" on="1"/>
      </contour>
      <contour>
        <pt x="284" y="368" on="1"/>
        <pt x="700" y="368" on="1"/>
        <pt x="700" y="1447" on="1"/>
        <pt x="284" y="1447" on="1"/>
      </contour>
    </TTGlyph>
    <TTGlyph name="afii57511" xMin="142" yMin="226" xMax="842" yMax="1588">
      <contour>
        <pt x="142" y="226" on="1"/>
        <pt x="142" y="1588" on="1"/>
        <pt x="842" y="1588" on="1"/>
        <pt x="842" y="226" on="1"/>
      </contour>
      <contour>
        <pt x="284" y="368" on="1"/>
        <pt x="700" y="368" on="1"/>
        <pt x="700" y="1447" on="1"/>
        <pt x="284" y="1447" on="1"/>
      </contour>
    </TTGlyph>
    <TTGlyph name="afii57512" xMin="142" yMin="226" xMax="842" yMax="1588">
      <contour>
        <pt x="142" y="226" on="1"/>
        <pt x="142" y="1588" on="1"/>
        <pt x="842" y="1588" on="1"/>
        <pt x="842" y="226" on="1"/>
      </contour>
      <contour>
        <pt x="284" y="368" on="1"/>
        <pt x="700" y="368" on="1"/>
        <pt x="700" y="1447" on="1"/>
        <pt x="284" y="1447" on="1"/>
      </contour>
    </TTGlyph>
    <TTGlyph name="afii57513" xMin="142" yMin="226" xMax="842" yMax="1588">
      <contour>
        <pt x="142" y="226" on="1"/>
        <pt x="142" y="1588" on="1"/>
        <pt x="842" y="1588" on="1"/>
        <pt x="842" y="226" on="1"/>
      </contour>
      <contour>
        <pt x="284" y="368" on="1"/>
        <pt x="700" y="368" on="1"/>
        <pt x="700" y="1447" on="1"/>
        <pt x="284" y="1447" on="1"/>
      </contour>
    </TTGlyph>
    <TTGlyph name="afii57514" xMin="142" yMin="226" xMax="842" yMax="1588">
      <contour>
        <pt x="142" y="226" on="1"/>
        <pt x="142" y="1588" on="1"/>
        <pt x="842" y="1588" on="1"/>
        <pt x="842" y="226" on="1"/>
      </contour>
      <contour>
        <pt x="284" y="368" on="1"/>
        <pt x="700" y="368" on="1"/>
        <pt x="700" y="1447" on="1"/>
        <pt x="284" y="1447" on="1"/>
      </contour>
    </TTGlyph>
    <TTGlyph name="afii57519" xMin="142" yMin="226" xMax="842" yMax="1588">
      <contour>
        <pt x="142" y="226" on="1"/>
        <pt x="142" y="1588" on="1"/>
        <pt x="842" y="1588" on="1"/>
        <pt x="842" y="226" on="1"/>
      </contour>
      <contour>
        <pt x="284" y="368" on="1"/>
        <pt x="700" y="368" on="1"/>
        <pt x="700" y="1447" on="1"/>
        <pt x="284" y="1447" on="1"/>
      </contour>
    </TTGlyph>
    <TTGlyph name="afii57534" xMin="142" yMin="226" xMax="842" yMax="1588">
      <contour>
        <pt x="142" y="226" on="1"/>
        <pt x="142" y="1588" on="1"/>
        <pt x="842" y="1588" on="1"/>
        <pt x="842" y="226" on="1"/>
      </contour>
      <contour>
        <pt x="284" y="368" on="1"/>
        <pt x="700" y="368" on="1"/>
        <pt x="700" y="1447" on="1"/>
        <pt x="284" y="1447" on="1"/>
      </contour>
    </TTGlyph>
    <TTGlyph name="afii63167" xMin="142" yMin="226" xMax="842" yMax="1588">
      <contour>
        <pt x="142" y="226" on="1"/>
        <pt x="142" y="1588" on="1"/>
        <pt x="842" y="1588" on="1"/>
        <pt x="842" y="226" on="1"/>
      </contour>
      <contour>
        <pt x="284" y="368" on="1"/>
        <pt x="700" y="368" on="1"/>
        <pt x="700" y="1447" on="1"/>
        <pt x="284" y="1447" on="1"/>
      </contour>
    </TTGlyph>
    <TTGlyph name="alefmaksurainitial" xMin="142" yMin="226" xMax="842" yMax="1588">
      <contour>
        <pt x="142" y="226" on="1"/>
        <pt x="142" y="1588" on="1"/>
        <pt x="842" y="1588" on="1"/>
        <pt x="842" y="226" on="1"/>
      </contour>
      <contour>
        <pt x="284" y="368" on="1"/>
        <pt x="700" y="368" on="1"/>
        <pt x="700" y="1447" on="1"/>
        <pt x="284" y="1447" on="1"/>
      </contour>
    </TTGlyph>
    <TTGlyph name="alefwaslafinalarabic" xMin="142" yMin="226" xMax="842" yMax="1588">
      <contour>
        <pt x="142" y="226" on="1"/>
        <pt x="142" y="1588" on="1"/>
        <pt x="842" y="1588" on="1"/>
        <pt x="842" y="226" on="1"/>
      </contour>
      <contour>
        <pt x="284" y="368" on="1"/>
        <pt x="700" y="368" on="1"/>
        <pt x="700" y="1447" on="1"/>
        <pt x="284" y="1447" on="1"/>
      </contour>
    </TTGlyph>
    <TTGlyph name="ampersand" xMin="142" yMin="226" xMax="842" yMax="1588">
      <contour>
        <pt x="142" y="226" on="1"/>
        <pt x="142" y="1588" on="1"/>
        <pt x="842" y="1588" on="1"/>
        <pt x="842" y="226" on="1"/>
      </contour>
      <contour>
        <pt x="284" y="368" on="1"/>
        <pt x="700" y="368" on="1"/>
        <pt x="700" y="1447" on="1"/>
        <pt x="284" y="1447" on="1"/>
      </contour>
    </TTGlyph>
    <TTGlyph name="asterisk" xMin="142" yMin="226" xMax="842" yMax="1588">
      <contour>
        <pt x="142" y="226" on="1"/>
        <pt x="142" y="1588" on="1"/>
        <pt x="842" y="1588" on="1"/>
        <pt x="842" y="226" on="1"/>
      </contour>
      <contour>
        <pt x="284" y="368" on="1"/>
        <pt x="700" y="368" on="1"/>
        <pt x="700" y="1447" on="1"/>
        <pt x="284" y="1447" on="1"/>
      </contour>
    </TTGlyph>
    <TTGlyph name="behmeemisolatedarabic" xMin="142" yMin="226" xMax="842" yMax="1588">
      <contour>
        <pt x="142" y="226" on="1"/>
        <pt x="142" y="1588" on="1"/>
        <pt x="842" y="1588" on="1"/>
        <pt x="842" y="226" on="1"/>
      </contour>
      <contour>
        <pt x="284" y="368" on="1"/>
        <pt x="700" y="368" on="1"/>
        <pt x="700" y="1447" on="1"/>
        <pt x="284" y="1447" on="1"/>
      </contour>
    </TTGlyph>
    <TTGlyph name="behnoonfinalarabic" xMin="142" yMin="226" xMax="842" yMax="1588">
      <contour>
        <pt x="142" y="226" on="1"/>
        <pt x="142" y="1588" on="1"/>
        <pt x="842" y="1588" on="1"/>
        <pt x="842" y="226" on="1"/>
      </contour>
      <contour>
        <pt x="284" y="368" on="1"/>
        <pt x="700" y="368" on="1"/>
        <pt x="700" y="1447" on="1"/>
        <pt x="284" y="1447" on="1"/>
      </contour>
    </TTGlyph>
    <TTGlyph name="colon" xMin="142" yMin="226" xMax="842" yMax="1588">
      <contour>
        <pt x="142" y="226" on="1"/>
        <pt x="142" y="1588" on="1"/>
        <pt x="842" y="1588" on="1"/>
        <pt x="842" y="226" on="1"/>
      </contour>
      <contour>
        <pt x="284" y="368" on="1"/>
        <pt x="700" y="368" on="1"/>
        <pt x="700" y="1447" on="1"/>
        <pt x="284" y="1447" on="1"/>
      </contour>
    </TTGlyph>
    <TTGlyph name="dagger" xMin="142" yMin="226" xMax="842" yMax="1588">
      <contour>
        <pt x="142" y="226" on="1"/>
        <pt x="142" y="1588" on="1"/>
        <pt x="842" y="1588" on="1"/>
        <pt x="842" y="226" on="1"/>
      </contour>
      <contour>
        <pt x="284" y="368" on="1"/>
        <pt x="700" y="368" on="1"/>
        <pt x="700" y="1447" on="1"/>
        <pt x="284" y="1447" on="1"/>
      </contour>
    </TTGlyph>
    <TTGlyph name="dalringfinal" xMin="142" yMin="226" xMax="842" yMax="1588">
      <contour>
        <pt x="142" y="226" on="1"/>
        <pt x="142" y="1588" on="1"/>
        <pt x="842" y="1588" on="1"/>
        <pt x="842" y="226" on="1"/>
      </contour>
      <contour>
        <pt x="284" y="368" on="1"/>
        <pt x="700" y="368" on="1"/>
        <pt x="700" y="1447" on="1"/>
        <pt x="284" y="1447" on="1"/>
      </contour>
    </TTGlyph>
    <TTGlyph name="ddalfinalarabic" xMin="142" yMin="226" xMax="842" yMax="1588">
      <contour>
        <pt x="142" y="226" on="1"/>
        <pt x="142" y="1588" on="1"/>
        <pt x="842" y="1588" on="1"/>
        <pt x="842" y="226" on="1"/>
      </contour>
      <contour>
        <pt x="284" y="368" on="1"/>
        <pt x="700" y="368" on="1"/>
        <pt x="700" y="1447" on="1"/>
        <pt x="284" y="1447" on="1"/>
      </contour>
    </TTGlyph>
    <TTGlyph name="divide" xMin="142" yMin="226" xMax="842" yMax="1588">
      <contour>
        <pt x="142" y="226" on="1"/>
        <pt x="142" y="1588" on="1"/>
        <pt x="842" y="1588" on="1"/>
        <pt x="842" y="226" on="1"/>
      </contour>
      <contour>
        <pt x="284" y="368" on="1"/>
        <pt x="700" y="368" on="1"/>
        <pt x="700" y="1447" on="1"/>
        <pt x="284" y="1447" on="1"/>
      </contour>
    </TTGlyph>
    <TTGlyph name="dollar" xMin="142" yMin="226" xMax="842" yMax="1588">
      <contour>
        <pt x="142" y="226" on="1"/>
        <pt x="142" y="1588" on="1"/>
        <pt x="842" y="1588" on="1"/>
        <pt x="842" y="226" on="1"/>
      </contour>
      <contour>
        <pt x="284" y="368" on="1"/>
        <pt x="700" y="368" on="1"/>
        <pt x="700" y="1447" on="1"/>
        <pt x="284" y="1447" on="1"/>
      </contour>
    </TTGlyph>
    <TTGlyph name="dotlessyehfinalarabic" xMin="142" yMin="226" xMax="842" yMax="1588">
      <contour>
        <pt x="142" y="226" on="1"/>
        <pt x="142" y="1588" on="1"/>
        <pt x="842" y="1588" on="1"/>
        <pt x="842" y="226" on="1"/>
      </contour>
      <contour>
        <pt x="284" y="368" on="1"/>
        <pt x="700" y="368" on="1"/>
        <pt x="700" y="1447" on="1"/>
        <pt x="284" y="1447" on="1"/>
      </contour>
    </TTGlyph>
    <TTGlyph name="dotlessyehinitialarabic" xMin="142" yMin="226" xMax="842" yMax="1588">
      <contour>
        <pt x="142" y="226" on="1"/>
        <pt x="142" y="1588" on="1"/>
        <pt x="842" y="1588" on="1"/>
        <pt x="842" y="226" on="1"/>
      </contour>
      <contour>
        <pt x="284" y="368" on="1"/>
        <pt x="700" y="368" on="1"/>
        <pt x="700" y="1447" on="1"/>
        <pt x="284" y="1447" on="1"/>
      </contour>
    </TTGlyph>
    <TTGlyph name="dotlessyehmedialarabic" xMin="142" yMin="226" xMax="842" yMax="1588">
      <contour>
        <pt x="142" y="226" on="1"/>
        <pt x="142" y="1588" on="1"/>
        <pt x="842" y="1588" on="1"/>
        <pt x="842" y="226" on="1"/>
      </contour>
      <contour>
        <pt x="284" y="368" on="1"/>
        <pt x="700" y="368" on="1"/>
        <pt x="700" y="1447" on="1"/>
        <pt x="284" y="1447" on="1"/>
      </contour>
    </TTGlyph>
    <TTGlyph name="elefmaksuramedial" xMin="142" yMin="226" xMax="842" yMax="1588">
      <contour>
        <pt x="142" y="226" on="1"/>
        <pt x="142" y="1588" on="1"/>
        <pt x="842" y="1588" on="1"/>
        <pt x="842" y="226" on="1"/>
      </contour>
      <contour>
        <pt x="284" y="368" on="1"/>
        <pt x="700" y="368" on="1"/>
        <pt x="700" y="1447" on="1"/>
        <pt x="284" y="1447" on="1"/>
      </contour>
    </TTGlyph>
    <TTGlyph name="ellipsis" xMin="142" yMin="226" xMax="842" yMax="1588">
      <contour>
        <pt x="142" y="226" on="1"/>
        <pt x="142" y="1588" on="1"/>
        <pt x="842" y="1588" on="1"/>
        <pt x="842" y="226" on="1"/>
      </contour>
      <contour>
        <pt x="284" y="368" on="1"/>
        <pt x="700" y="368" on="1"/>
        <pt x="700" y="1447" on="1"/>
        <pt x="284" y="1447" on="1"/>
      </contour>
    </TTGlyph>
    <TTGlyph name="emdash" xMin="169" yMin="-36" xMax="2217" yMax="1796">
      <contour>
        <pt x="1973" y="1738" on="1"/>
        <pt x="1975" y="1697" on="0"/>
        <pt x="1724" y="1571" on="1"/>
        <pt x="1501" y="1460" on="0"/>
        <pt x="1394" y="1427" on="1"/>
        <pt x="1364" y="1452" on="0"/>
        <pt x="1364" y="1468" on="1"/>
        <pt x="1364" y="1520" on="0"/>
        <pt x="1418" y="1549" on="1"/>
        <pt x="1880" y="1796" on="0"/>
        <pt x="1924" y="1796" on="1"/>
        <pt x="1942" y="1796" on="0"/>
        <pt x="1970" y="1784" on="0"/>
        <pt x="1973" y="1784" on="1"/>
      </contour>
      <contour>
        <pt x="1352" y="1693" on="1"/>
        <pt x="1352" y="1646" on="0"/>
        <pt x="1302" y="1617" on="1"/>
        <pt x="1255" y="1597" on="0"/>
        <pt x="1208" y="1578" on="1"/>
        <pt x="1152" y="1553" on="0"/>
        <pt x="1044" y="1506" on="1"/>
        <pt x="915" y="1446" on="0"/>
        <pt x="659" y="1335" on="1"/>
        <pt x="640" y="1347" on="0"/>
        <pt x="628" y="1347" on="1"/>
        <pt x="628" y="1400" on="1"/>
        <pt x="628" y="1440" on="0"/>
        <pt x="947" y="1591" on="1"/>
        <pt x="1253" y="1735" on="0"/>
        <pt x="1270" y="1734" on="1"/>
        <pt x="1336" y="1734" on="1"/>
        <pt x="1352" y="1720" on="0"/>
      </contour>
      <contour>
        <pt x="2217" y="239" on="1"/>
        <pt x="2217" y="168" on="0"/>
        <pt x="2171" y="93" on="1"/>
        <pt x="2111" y="-6" on="0"/>
        <pt x="2007" y="-6" on="1"/>
        <pt x="1982" y="-6" on="0"/>
        <pt x="1768" y="34" on="0"/>
        <pt x="1625" y="34" on="1"/>
        <pt x="1609" y="34" on="0"/>
        <pt x="1101" y="-36" on="0"/>
        <pt x="1084" y="-36" on="1"/>
        <pt x="792" y="-36" on="1"/>
        <pt x="572" y="-36" on="0"/>
        <pt x="403" y="7" on="1"/>
        <pt x="311" y="30" on="0"/>
        <pt x="266" y="223" on="1"/>
        <pt x="217" y="433" on="0"/>
        <pt x="222" y="644" on="1"/>
        <pt x="229" y="840" on="0"/>
        <pt x="201" y="1012" on="1"/>
        <pt x="200" y="1022" on="0"/>
        <pt x="184" y="1068" on="1"/>
        <pt x="169" y="1111" on="0"/>
        <pt x="169" y="1125" on="1"/>
        <pt x="169" y="1135" on="0"/>
        <pt x="235" y="1242" on="1"/>
        <pt x="280" y="1242" on="1"/>
        <pt x="316" y="1216" on="0"/>
        <pt x="329" y="1157" on="1"/>
        <pt x="359" y="1028" on="0"/>
        <pt x="359" y="922" on="1"/>
        <pt x="359" y="437" on="1"/>
        <pt x="359" y="425" on="0"/>
        <pt x="369" y="407" on="1"/>
        <pt x="379" y="387" on="0"/>
        <pt x="380" y="378" on="1"/>
        <pt x="384" y="328" on="0"/>
        <pt x="386" y="279" on="1"/>
        <pt x="400" y="211" on="0"/>
        <pt x="470" y="180" on="1"/>
        <pt x="589" y="127" on="0"/>
        <pt x="741" y="127" on="1"/>
        <pt x="754" y="127" on="0"/>
        <pt x="1234" y="147" on="0"/>
        <pt x="1250" y="147" on="1"/>
        <pt x="1366" y="147" on="0"/>
        <pt x="1425" y="197" on="1"/>
        <pt x="1439" y="208" on="0"/>
        <pt x="1439" y="238" on="1"/>
        <pt x="1440" y="276" on="0"/>
        <pt x="1444" y="287" on="1"/>
        <pt x="1475" y="370" on="0"/>
        <pt x="1562" y="473" on="1"/>
        <pt x="1620" y="539" on="0"/>
        <pt x="1679" y="605" on="1"/>
        <pt x="1683" y="611" on="0"/>
        <pt x="1683" y="680" on="1"/>
        <pt x="1683" y="810" on="0"/>
        <pt x="1627" y="1042" on="1"/>
        <pt x="1624" y="1051" on="0"/>
        <pt x="1608" y="1092" on="1"/>
        <pt x="1593" y="1125" on="0"/>
        <pt x="1593" y="1145" on="1"/>
        <pt x="1593" y="1236" on="0"/>
        <pt x="1685" y="1344" on="1"/>
        <pt x="1732" y="1344" on="1"/>
        <pt x="1770" y="1285" on="0"/>
        <pt x="1775" y="1219" on="1"/>
        <pt x="1780" y="1213" on="0"/>
        <pt x="1822" y="1189" on="1"/>
        <pt x="1848" y="1173" on="0"/>
        <pt x="1848" y="1145" on="1"/>
        <pt x="1848" y="1133" on="0"/>
        <pt x="1785" y="990" on="0"/>
        <pt x="1785" y="976" on="1"/>
        <pt x="1785" y="845" on="0"/>
        <pt x="1838" y="594" on="1"/>
        <pt x="1850" y="538" on="0"/>
        <pt x="2182" y="394" on="0"/>
        <pt x="2217" y="264" on="0"/>
      </contour>
      <contour>
        <pt x="2077" y="192" on="1"/>
        <pt x="2075" y="208" on="0"/>
        <pt x="1980" y="291" on="0"/>
        <pt x="1955" y="290" on="1"/>
        <pt x="1915" y="290" on="1"/>
        <pt x="1873" y="223" on="0"/>
        <pt x="1873" y="224" on="1"/>
        <pt x="1873" y="201" on="0"/>
        <pt x="1889" y="200" on="1"/>
        <pt x="2031" y="159" on="0"/>
      </contour>
      <contour>
        <pt x="1760" y="286" on="1"/>
        <pt x="1760" y="336" on="0"/>
        <pt x="1726" y="368" on="1"/>
        <pt x="1715" y="373" on="0"/>
        <pt x="1691" y="393" on="1"/>
        <pt x="1652" y="383" on="0"/>
        <pt x="1576" y="283" on="0"/>
        <pt x="1582" y="251" on="1"/>
        <pt x="1664" y="219" on="0"/>
        <pt x="1676" y="219" on="1"/>
        <pt x="1760" y="219" on="0"/>
      </contour>
    </TTGlyph>
    <TTGlyph name="endash" xMin="169" yMin="-36" xMax="1193" yMax="1796">
      <contour>
        <pt x="1071" y="1738" on="1"/>
        <pt x="1072" y="1697" on="0"/>
        <pt x="946" y="1571" on="1"/>
        <pt x="835" y="1460" on="0"/>
        <pt x="782" y="1427" on="1"/>
        <pt x="767" y="1452" on="0"/>
        <pt x="767" y="1468" on="1"/>
        <pt x="767" y="1520" on="0"/>
        <pt x="793" y="1549" on="1"/>
        <pt x="1025" y="1796" on="0"/>
        <pt x="1046" y="1796" on="1"/>
        <pt x="1056" y="1796" on="0"/>
        <pt x="1069" y="1784" on="0"/>
        <pt x="1071" y="1784" on="1"/>
      </contour>
      <contour>
        <pt x="761" y="1693" on="1"/>
        <pt x="761" y="1646" on="0"/>
        <pt x="736" y="1617" on="1"/>
        <pt x="712" y="1597" on="0"/>
        <pt x="688" y="1578" on="1"/>
        <pt x="660" y="1553" on="0"/>
        <pt x="606" y="1506" on="1"/>
        <pt x="542" y="1446" on="0"/>
        <pt x="414" y="1335" on="1"/>
        <pt x="404" y="1347" on="0"/>
        <pt x="398" y="1347" on="1"/>
        <pt x="398" y="1400" on="1"/>
        <pt x="398" y="1440" on="0"/>
        <pt x="558" y="1591" on="1"/>
        <pt x="711" y="1735" on="0"/>
        <pt x="720" y="1734" on="1"/>
        <pt x="752" y="1734" on="1"/>
        <pt x="761" y="1720" on="0"/>
      </contour>
      <contour>
        <pt x="1193" y="239" on="1"/>
        <pt x="1193" y="168" on="0"/>
        <pt x="1170" y="93" on="1"/>
        <pt x="1140" y="-6" on="0"/>
        <pt x="1088" y="-6" on="1"/>
        <pt x="1076" y="-6" on="0"/>
        <pt x="969" y="34" on="0"/>
        <pt x="897" y="34" on="1"/>
        <pt x="889" y="34" on="0"/>
        <pt x="635" y="-36" on="0"/>
        <pt x="626" y="-36" on="1"/>
        <pt x="480" y="-36" on="1"/>
        <pt x="370" y="-36" on="0"/>
        <pt x="286" y="7" on="1"/>
        <pt x="240" y="30" on="0"/>
        <pt x="217" y="223" on="1"/>
        <pt x="193" y="433" on="0"/>
        <pt x="196" y="644" on="1"/>
        <pt x="199" y="840" on="0"/>
        <pt x="185" y="1012" on="1"/>
        <pt x="185" y="1022" on="0"/>
        <pt x="176" y="1068" on="1"/>
        <pt x="169" y="1111" on="0"/>
        <pt x="169" y="1125" on="1"/>
        <pt x="169" y="1135" on="0"/>
        <pt x="202" y="1242" on="1"/>
        <pt x="224" y="1242" on="1"/>
        <pt x="242" y="1216" on="0"/>
        <pt x="249" y="1157" on="1"/>
        <pt x="264" y="1028" on="0"/>
        <pt x="264" y="922" on="1"/>
        <pt x="264" y="437" on="1"/>
        <pt x="264" y="425" on="0"/>
        <pt x="269" y="407" on="1"/>
        <pt x="274" y="387" on="0"/>
        <pt x="275" y="378" on="1"/>
        <pt x="276" y="328" on="0"/>
        <pt x="278" y="279" on="1"/>
        <pt x="285" y="211" on="0"/>
        <pt x="319" y="180" on="1"/>
        <pt x="379" y="127" on="0"/>
        <pt x="455" y="127" on="1"/>
        <pt x="462" y="127" on="0"/>
        <pt x="702" y="147" on="0"/>
        <pt x="710" y="147" on="1"/>
        <pt x="767" y="147" on="0"/>
        <pt x="797" y="197" on="1"/>
        <pt x="804" y="208" on="0"/>
        <pt x="804" y="238" on="1"/>
        <pt x="805" y="276" on="0"/>
        <pt x="807" y="287" on="1"/>
        <pt x="822" y="370" on="0"/>
        <pt x="866" y="473" on="1"/>
        <pt x="895" y="539" on="0"/>
        <pt x="924" y="605" on="1"/>
        <pt x="926" y="611" on="0"/>
        <pt x="926" y="680" on="1"/>
        <pt x="926" y="810" on="0"/>
        <pt x="898" y="1042" on="1"/>
        <pt x="897" y="1051" on="0"/>
        <pt x="889" y="1092" on="1"/>
        <pt x="881" y="1125" on="0"/>
        <pt x="881" y="1145" on="1"/>
        <pt x="881" y="1236" on="0"/>
        <pt x="927" y="1344" on="1"/>
        <pt x="951" y="1344" on="1"/>
        <pt x="969" y="1285" on="0"/>
        <pt x="972" y="1219" on="1"/>
        <pt x="974" y="1213" on="0"/>
        <pt x="995" y="1189" on="1"/>
        <pt x="1008" y="1173" on="0"/>
        <pt x="1008" y="1145" on="1"/>
        <pt x="1008" y="1133" on="0"/>
        <pt x="977" y="990" on="0"/>
        <pt x="977" y="976" on="1"/>
        <pt x="977" y="845" on="0"/>
        <pt x="1003" y="594" on="1"/>
        <pt x="1010" y="538" on="0"/>
        <pt x="1176" y="394" on="0"/>
        <pt x="1193" y="264" on="0"/>
      </contour>
      <contour>
        <pt x="1123" y="192" on="1"/>
        <pt x="1122" y="208" on="0"/>
        <pt x="1074" y="291" on="0"/>
        <pt x="1062" y="290" on="1"/>
        <pt x="1042" y="290" on="1"/>
        <pt x="1021" y="223" on="0"/>
        <pt x="1021" y="224" on="1"/>
        <pt x="1021" y="201" on="0"/>
        <pt x="1029" y="200" on="1"/>
        <pt x="1100" y="159" on="0"/>
      </contour>
      <contour>
        <pt x="964" y="286" on="1"/>
        <pt x="964" y="336" on="0"/>
        <pt x="948" y="368" on="1"/>
        <pt x="942" y="373" on="0"/>
        <pt x="930" y="393" on="1"/>
        <pt x="910" y="383" on="0"/>
        <pt x="872" y="283" on="0"/>
        <pt x="875" y="251" on="1"/>
        <pt x="916" y="219" on="0"/>
        <pt x="923" y="219" on="1"/>
        <pt x="964" y="219" on="0"/>
      </contour>
    </TTGlyph>
    <TTGlyph name="equal" xMin="142" yMin="226" xMax="842" yMax="1588">
      <contour>
        <pt x="142" y="226" on="1"/>
        <pt x="142" y="1588" on="1"/>
        <pt x="842" y="1588" on="1"/>
        <pt x="842" y="226" on="1"/>
      </contour>
      <contour>
        <pt x="284" y="368" on="1"/>
        <pt x="700" y="368" on="1"/>
        <pt x="700" y="1447" on="1"/>
        <pt x="284" y="1447" on="1"/>
      </contour>
    </TTGlyph>
    <TTGlyph name="exclam" xMin="142" yMin="226" xMax="842" yMax="1588">
      <contour>
        <pt x="142" y="226" on="1"/>
        <pt x="142" y="1588" on="1"/>
        <pt x="842" y="1588" on="1"/>
        <pt x="842" y="226" on="1"/>
      </contour>
      <contour>
        <pt x="284" y="368" on="1"/>
        <pt x="700" y="368" on="1"/>
        <pt x="700" y="1447" on="1"/>
        <pt x="284" y="1447" on="1"/>
      </contour>
    </TTGlyph>
    <TTGlyph name="figuredash" xMin="169" yMin="-36" xMax="1817" yMax="1796">
      <contour>
        <pt x="1621" y="1738" on="1"/>
        <pt x="1622" y="1697" on="0"/>
        <pt x="1420" y="1571" on="1"/>
        <pt x="1241" y="1460" on="0"/>
        <pt x="1155" y="1427" on="1"/>
        <pt x="1131" y="1452" on="0"/>
        <pt x="1131" y="1468" on="1"/>
        <pt x="1131" y="1520" on="0"/>
        <pt x="1174" y="1549" on="1"/>
        <pt x="1546" y="1796" on="0"/>
        <pt x="1581" y="1796" on="1"/>
        <pt x="1596" y="1796" on="0"/>
        <pt x="1618" y="1784" on="0"/>
        <pt x="1621" y="1784" on="1"/>
      </contour>
      <contour>
        <pt x="1121" y="1693" on="1"/>
        <pt x="1121" y="1646" on="0"/>
        <pt x="1081" y="1617" on="1"/>
        <pt x="1043" y="1597" on="0"/>
        <pt x="1005" y="1578" on="1"/>
        <pt x="960" y="1553" on="0"/>
        <pt x="873" y="1506" on="1"/>
        <pt x="769" y="1446" on="0"/>
        <pt x="563" y="1335" on="1"/>
        <pt x="548" y="1347" on="0"/>
        <pt x="538" y="1347" on="1"/>
        <pt x="538" y="1400" on="1"/>
        <pt x="538" y="1440" on="0"/>
        <pt x="795" y="1591" on="1"/>
        <pt x="1041" y="1735" on="0"/>
        <pt x="1055" y="1734" on="1"/>
        <pt x="1108" y="1734" on="1"/>
        <pt x="1121" y="1720" on="0"/>
      </contour>
      <contour>
        <pt x="1817" y="239" on="1"/>
        <pt x="1817" y="168" on="0"/>
        <pt x="1780" y="93" on="1"/>
        <pt x="1732" y="-6" on="0"/>
        <pt x="1648" y="-6" on="1"/>
        <pt x="1628" y="-6" on="0"/>
        <pt x="1456" y="34" on="0"/>
        <pt x="1341" y="34" on="1"/>
        <pt x="1328" y="34" on="0"/>
        <pt x="919" y="-36" on="0"/>
        <pt x="905" y="-36" on="1"/>
        <pt x="670" y="-36" on="1"/>
        <pt x="493" y="-36" on="0"/>
        <pt x="357" y="7" on="1"/>
        <pt x="283" y="30" on="0"/>
        <pt x="247" y="223" on="1"/>
        <pt x="208" y="433" on="0"/>
        <pt x="212" y="644" on="1"/>
        <pt x="217" y="840" on="0"/>
        <pt x="195" y="1012" on="1"/>
        <pt x="194" y="1022" on="0"/>
        <pt x="181" y="1068" on="1"/>
        <pt x="169" y="1111" on="0"/>
        <pt x="169" y="1125" on="1"/>
        <pt x="169" y="1135" on="0"/>
        <pt x="222" y="1242" on="1"/>
        <pt x="258" y="1242" on="1"/>
        <pt x="287" y="1216" on="0"/>
        <pt x="298" y="1157" on="1"/>
        <pt x="322" y="1028" on="0"/>
        <pt x="322" y="922" on="1"/>
        <pt x="322" y="437" on="1"/>
        <pt x="322" y="425" on="0"/>
        <pt x="330" y="407" on="1"/>
        <pt x="338" y="387" on="0"/>
        <pt x="339" y="378" on="1"/>
        <pt x="342" y="328" on="0"/>
        <pt x="344" y="279" on="1"/>
        <pt x="355" y="211" on="0"/>
        <pt x="411" y="180" on="1"/>
        <pt x="507" y="127" on="0"/>
        <pt x="629" y="127" on="1"/>
        <pt x="640" y="127" on="0"/>
        <pt x="1026" y="147" on="0"/>
        <pt x="1039" y="147" on="1"/>
        <pt x="1132" y="147" on="0"/>
        <pt x="1180" y="197" on="1"/>
        <pt x="1191" y="208" on="0"/>
        <pt x="1191" y="238" on="1"/>
        <pt x="1192" y="276" on="0"/>
        <pt x="1195" y="287" on="1"/>
        <pt x="1220" y="370" on="0"/>
        <pt x="1290" y="473" on="1"/>
        <pt x="1337" y="539" on="0"/>
        <pt x="1384" y="605" on="1"/>
        <pt x="1387" y="611" on="0"/>
        <pt x="1387" y="680" on="1"/>
        <pt x="1387" y="810" on="0"/>
        <pt x="1342" y="1042" on="1"/>
        <pt x="1340" y="1051" on="0"/>
        <pt x="1327" y="1092" on="1"/>
        <pt x="1315" y="1125" on="0"/>
        <pt x="1315" y="1145" on="1"/>
        <pt x="1315" y="1236" on="0"/>
        <pt x="1389" y="1344" on="1"/>
        <pt x="1427" y="1344" on="1"/>
        <pt x="1457" y="1285" on="0"/>
        <pt x="1461" y="1219" on="1"/>
        <pt x="1465" y="1213" on="0"/>
        <pt x="1499" y="1189" on="1"/>
        <pt x="1520" y="1173" on="0"/>
        <pt x="1520" y="1145" on="1"/>
        <pt x="1520" y="1133" on="0"/>
        <pt x="1469" y="990" on="0"/>
        <pt x="1469" y="976" on="1"/>
        <pt x="1469" y="845" on="0"/>
        <pt x="1512" y="594" on="1"/>
        <pt x="1522" y="538" on="0"/>
        <pt x="1789" y="394" on="0"/>
        <pt x="1817" y="264" on="0"/>
      </contour>
      <contour>
        <pt x="1704" y="192" on="1"/>
        <pt x="1703" y="208" on="0"/>
        <pt x="1626" y="291" on="0"/>
        <pt x="1606" y="290" on="1"/>
        <pt x="1574" y="290" on="1"/>
        <pt x="1540" y="223" on="0"/>
        <pt x="1540" y="224" on="1"/>
        <pt x="1540" y="201" on="0"/>
        <pt x="1553" y="200" on="1"/>
        <pt x="1667" y="159" on="0"/>
      </contour>
      <contour>
        <pt x="1449" y="286" on="1"/>
        <pt x="1449" y="336" on="0"/>
        <pt x="1422" y="368" on="1"/>
        <pt x="1413" y="373" on="0"/>
        <pt x="1394" y="393" on="1"/>
        <pt x="1362" y="383" on="0"/>
        <pt x="1301" y="283" on="0"/>
        <pt x="1306" y="251" on="1"/>
        <pt x="1372" y="219" on="0"/>
        <pt x="1382" y="219" on="1"/>
        <pt x="1449" y="219" on="0"/>
      </contour>
    </TTGlyph>
    <TTGlyph name="gaffinalarabic" xMin="142" yMin="226" xMax="842" yMax="1588">
      <contour>
        <pt x="142" y="226" on="1"/>
        <pt x="142" y="1588" on="1"/>
        <pt x="842" y="1588" on="1"/>
        <pt x="842" y="226" on="1"/>
      </contour>
      <contour>
        <pt x="284" y="368" on="1"/>
        <pt x="700" y="368" on="1"/>
        <pt x="700" y="1447" on="1"/>
        <pt x="284" y="1447" on="1"/>
      </contour>
    </TTGlyph>
    <TTGlyph name="gafinitialarabic" xMin="142" yMin="226" xMax="842" yMax="1588">
      <contour>
        <pt x="142" y="226" on="1"/>
        <pt x="142" y="1588" on="1"/>
        <pt x="842" y="1588" on="1"/>
        <pt x="842" y="226" on="1"/>
      </contour>
      <contour>
        <pt x="284" y="368" on="1"/>
        <pt x="700" y="368" on="1"/>
        <pt x="700" y="1447" on="1"/>
        <pt x="284" y="1447" on="1"/>
      </contour>
    </TTGlyph>
    <TTGlyph name="gafmedialarabic" xMin="142" yMin="226" xMax="842" yMax="1588">
      <contour>
        <pt x="142" y="226" on="1"/>
        <pt x="142" y="1588" on="1"/>
        <pt x="842" y="1588" on="1"/>
        <pt x="842" y="226" on="1"/>
      </contour>
      <contour>
        <pt x="284" y="368" on="1"/>
        <pt x="700" y="368" on="1"/>
        <pt x="700" y="1447" on="1"/>
        <pt x="284" y="1447" on="1"/>
      </contour>
    </TTGlyph>
    <TTGlyph name="glyph41" xMin="142" yMin="226" xMax="842" yMax="1588">
      <contour>
        <pt x="142" y="226" on="1"/>
        <pt x="142" y="1588" on="1"/>
        <pt x="842" y="1588" on="1"/>
        <pt x="842" y="226" on="1"/>
      </contour>
      <contour>
        <pt x="284" y="368" on="1"/>
        <pt x="700" y="368" on="1"/>
        <pt x="700" y="1447" on="1"/>
        <pt x="284" y="1447" on="1"/>
      </contour>
    </TTGlyph>
    <TTGlyph name="glyph42" xMin="142" yMin="226" xMax="842" yMax="1588">
      <contour>
        <pt x="142" y="226" on="1"/>
        <pt x="142" y="1588" on="1"/>
        <pt x="842" y="1588" on="1"/>
        <pt x="842" y="226" on="1"/>
      </contour>
      <contour>
        <pt x="284" y="368" on="1"/>
        <pt x="700" y="368" on="1"/>
        <pt x="700" y="1447" on="1"/>
        <pt x="284" y="1447" on="1"/>
      </contour>
    </TTGlyph>
    <TTGlyph name="glyph43" xMin="142" yMin="226" xMax="842" yMax="1588">
      <contour>
        <pt x="142" y="226" on="1"/>
        <pt x="142" y="1588" on="1"/>
        <pt x="842" y="1588" on="1"/>
        <pt x="842" y="226" on="1"/>
      </contour>
      <contour>
        <pt x="284" y="368" on="1"/>
        <pt x="700" y="368" on="1"/>
        <pt x="700" y="1447" on="1"/>
        <pt x="284" y="1447" on="1"/>
      </contour>
    </TTGlyph>
    <TTGlyph name="glyph44" xMin="142" yMin="226" xMax="842" yMax="1588">
      <contour>
        <pt x="142" y="226" on="1"/>
        <pt x="142" y="1588" on="1"/>
        <pt x="842" y="1588" on="1"/>
        <pt x="842" y="226" on="1"/>
      </contour>
      <contour>
        <pt x="284" y="368" on="1"/>
        <pt x="700" y="368" on="1"/>
        <pt x="700" y="1447" on="1"/>
        <pt x="284" y="1447" on="1"/>
      </contour>
    </TTGlyph>
    <TTGlyph name="glyph45" xMin="142" yMin="226" xMax="842" yMax="1588">
      <contour>
        <pt x="142" y="226" on="1"/>
        <pt x="142" y="1588" on="1"/>
        <pt x="842" y="1588" on="1"/>
        <pt x="842" y="226" on="1"/>
      </contour>
      <contour>
        <pt x="284" y="368" on="1"/>
        <pt x="700" y="368" on="1"/>
        <pt x="700" y="1447" on="1"/>
        <pt x="284" y="1447" on="1"/>
      </contour>
    </TTGlyph>
    <TTGlyph name="glyph46" xMin="142" yMin="226" xMax="842" yMax="1588">
      <contour>
        <pt x="142" y="226" on="1"/>
        <pt x="142" y="1588" on="1"/>
        <pt x="842" y="1588" on="1"/>
        <pt x="842" y="226" on="1"/>
      </contour>
      <contour>
        <pt x="284" y="368" on="1"/>
        <pt x="700" y="368" on="1"/>
        <pt x="700" y="1447" on="1"/>
        <pt x="284" y="1447" on="1"/>
      </contour>
    </TTGlyph>
    <TTGlyph name="glyph47" xMin="142" yMin="226" xMax="842" yMax="1588">
      <contour>
        <pt x="142" y="226" on="1"/>
        <pt x="142" y="1588" on="1"/>
        <pt x="842" y="1588" on="1"/>
        <pt x="842" y="226" on="1"/>
      </contour>
      <contour>
        <pt x="284" y="368" on="1"/>
        <pt x="700" y="368" on="1"/>
        <pt x="700" y="1447" on="1"/>
        <pt x="284" y="1447" on="1"/>
      </contour>
    </TTGlyph>
    <TTGlyph name="glyph48" xMin="142" yMin="226" xMax="842" yMax="1588">
      <contour>
        <pt x="142" y="226" on="1"/>
        <pt x="142" y="1588" on="1"/>
        <pt x="842" y="1588" on="1"/>
        <pt x="842" y="226" on="1"/>
      </contour>
      <contour>
        <pt x="284" y="368" on="1"/>
        <pt x="700" y="368" on="1"/>
        <pt x="700" y="1447" on="1"/>
        <pt x="284" y="1447" on="1"/>
      </contour>
    </TTGlyph>
    <TTGlyph name="glyph50" xMin="142" yMin="226" xMax="842" yMax="1588">
      <contour>
        <pt x="142" y="226" on="1"/>
        <pt x="142" y="1588" on="1"/>
        <pt x="842" y="1588" on="1"/>
        <pt x="842" y="226" on="1"/>
      </contour>
      <contour>
        <pt x="284" y="368" on="1"/>
        <pt x="700" y="368" on="1"/>
        <pt x="700" y="1447" on="1"/>
        <pt x="284" y="1447" on="1"/>
      </contour>
    </TTGlyph>
    <TTGlyph name="glyph51" xMin="142" yMin="226" xMax="842" yMax="1588">
      <contour>
        <pt x="142" y="226" on="1"/>
        <pt x="142" y="1588" on="1"/>
        <pt x="842" y="1588" on="1"/>
        <pt x="842" y="226" on="1"/>
      </contour>
      <contour>
        <pt x="284" y="368" on="1"/>
        <pt x="700" y="368" on="1"/>
        <pt x="700" y="1447" on="1"/>
        <pt x="284" y="1447" on="1"/>
      </contour>
    </TTGlyph>
    <TTGlyph name="greater" xMin="142" yMin="226" xMax="842" yMax="1588">
      <contour>
        <pt x="142" y="226" on="1"/>
        <pt x="142" y="1588" on="1"/>
        <pt x="842" y="1588" on="1"/>
        <pt x="842" y="226" on="1"/>
      </contour>
      <contour>
        <pt x="284" y="368" on="1"/>
        <pt x="700" y="368" on="1"/>
        <pt x="700" y="1447" on="1"/>
        <pt x="284" y="1447" on="1"/>
      </contour>
    </TTGlyph>
    <TTGlyph name="hahhamzabovefinal" xMin="142" yMin="226" xMax="842" yMax="1588">
      <contour>
        <pt x="142" y="226" on="1"/>
        <pt x="142" y="1588" on="1"/>
        <pt x="842" y="1588" on="1"/>
        <pt x="842" y="226" on="1"/>
      </contour>
      <contour>
        <pt x="284" y="368" on="1"/>
        <pt x="700" y="368" on="1"/>
        <pt x="700" y="1447" on="1"/>
        <pt x="284" y="1447" on="1"/>
      </contour>
    </TTGlyph>
    <TTGlyph name="hahhamzaboveinitial" xMin="142" yMin="226" xMax="842" yMax="1588">
      <contour>
        <pt x="142" y="226" on="1"/>
        <pt x="142" y="1588" on="1"/>
        <pt x="842" y="1588" on="1"/>
        <pt x="842" y="226" on="1"/>
      </contour>
      <contour>
        <pt x="284" y="368" on="1"/>
        <pt x="700" y="368" on="1"/>
        <pt x="700" y="1447" on="1"/>
        <pt x="284" y="1447" on="1"/>
      </contour>
    </TTGlyph>
    <TTGlyph name="hahhamzabovemedial" xMin="142" yMin="226" xMax="842" yMax="1588">
      <contour>
        <pt x="142" y="226" on="1"/>
        <pt x="142" y="1588" on="1"/>
        <pt x="842" y="1588" on="1"/>
        <pt x="842" y="226" on="1"/>
      </contour>
      <contour>
        <pt x="284" y="368" on="1"/>
        <pt x="700" y="368" on="1"/>
        <pt x="700" y="1447" on="1"/>
        <pt x="284" y="1447" on="1"/>
      </contour>
    </TTGlyph>
    <TTGlyph name="hahthreedotsabovefinal" xMin="142" yMin="226" xMax="842" yMax="1588">
      <contour>
        <pt x="142" y="226" on="1"/>
        <pt x="142" y="1588" on="1"/>
        <pt x="842" y="1588" on="1"/>
        <pt x="842" y="226" on="1"/>
      </contour>
      <contour>
        <pt x="284" y="368" on="1"/>
        <pt x="700" y="368" on="1"/>
        <pt x="700" y="1447" on="1"/>
        <pt x="284" y="1447" on="1"/>
      </contour>
    </TTGlyph>
    <TTGlyph name="hahthreedotsaboveinitial" xMin="142" yMin="226" xMax="842" yMax="1588">
      <contour>
        <pt x="142" y="226" on="1"/>
        <pt x="142" y="1588" on="1"/>
        <pt x="842" y="1588" on="1"/>
        <pt x="842" y="226" on="1"/>
      </contour>
      <contour>
        <pt x="284" y="368" on="1"/>
        <pt x="700" y="368" on="1"/>
        <pt x="700" y="1447" on="1"/>
        <pt x="284" y="1447" on="1"/>
      </contour>
    </TTGlyph>
    <TTGlyph name="hahthreedotsabovemedial" xMin="142" yMin="226" xMax="842" yMax="1588">
      <contour>
        <pt x="142" y="226" on="1"/>
        <pt x="142" y="1588" on="1"/>
        <pt x="842" y="1588" on="1"/>
        <pt x="842" y="226" on="1"/>
      </contour>
      <contour>
        <pt x="284" y="368" on="1"/>
        <pt x="700" y="368" on="1"/>
        <pt x="700" y="1447" on="1"/>
        <pt x="284" y="1447" on="1"/>
      </contour>
    </TTGlyph>
    <TTGlyph name="hehdoachashmeefinalarabic" xMin="142" yMin="226" xMax="842" yMax="1588">
      <contour>
        <pt x="142" y="226" on="1"/>
        <pt x="142" y="1588" on="1"/>
        <pt x="842" y="1588" on="1"/>
        <pt x="842" y="226" on="1"/>
      </contour>
      <contour>
        <pt x="284" y="368" on="1"/>
        <pt x="700" y="368" on="1"/>
        <pt x="700" y="1447" on="1"/>
        <pt x="284" y="1447" on="1"/>
      </contour>
    </TTGlyph>
    <TTGlyph name="hehdoachashmeeinitialarabic" xMin="142" yMin="226" xMax="842" yMax="1588">
      <contour>
        <pt x="142" y="226" on="1"/>
        <pt x="142" y="1588" on="1"/>
        <pt x="842" y="1588" on="1"/>
        <pt x="842" y="226" on="1"/>
      </contour>
      <contour>
        <pt x="284" y="368" on="1"/>
        <pt x="700" y="368" on="1"/>
        <pt x="700" y="1447" on="1"/>
        <pt x="284" y="1447" on="1"/>
      </contour>
    </TTGlyph>
    <TTGlyph name="hehdoachashmeemedialarabic" xMin="142" yMin="226" xMax="842" yMax="1588">
      <contour>
        <pt x="142" y="226" on="1"/>
        <pt x="142" y="1588" on="1"/>
        <pt x="842" y="1588" on="1"/>
        <pt x="842" y="226" on="1"/>
      </contour>
      <contour>
        <pt x="284" y="368" on="1"/>
        <pt x="700" y="368" on="1"/>
        <pt x="700" y="1447" on="1"/>
        <pt x="284" y="1447" on="1"/>
      </contour>
    </TTGlyph>
    <TTGlyph name="hehfinalaltonearabic" xMin="142" yMin="226" xMax="842" yMax="1588">
      <contour>
        <pt x="142" y="226" on="1"/>
        <pt x="142" y="1588" on="1"/>
        <pt x="842" y="1588" on="1"/>
        <pt x="842" y="226" on="1"/>
      </contour>
      <contour>
        <pt x="284" y="368" on="1"/>
        <pt x="700" y="368" on="1"/>
        <pt x="700" y="1447" on="1"/>
        <pt x="284" y="1447" on="1"/>
      </contour>
    </TTGlyph>
    <TTGlyph name="hehhamzaabovefinalarabic" xMin="142" yMin="226" xMax="842" yMax="1588">
      <contour>
        <pt x="142" y="226" on="1"/>
        <pt x="142" y="1588" on="1"/>
        <pt x="842" y="1588" on="1"/>
        <pt x="842" y="226" on="1"/>
      </contour>
      <contour>
        <pt x="284" y="368" on="1"/>
        <pt x="700" y="368" on="1"/>
        <pt x="700" y="1447" on="1"/>
        <pt x="284" y="1447" on="1"/>
      </contour>
    </TTGlyph>
    <TTGlyph name="hehinitialaltonearabic" xMin="142" yMin="226" xMax="842" yMax="1588">
      <contour>
        <pt x="142" y="226" on="1"/>
        <pt x="142" y="1588" on="1"/>
        <pt x="842" y="1588" on="1"/>
        <pt x="842" y="226" on="1"/>
      </contour>
      <contour>
        <pt x="284" y="368" on="1"/>
        <pt x="700" y="368" on="1"/>
        <pt x="700" y="1447" on="1"/>
        <pt x="284" y="1447" on="1"/>
      </contour>
    </TTGlyph>
    <TTGlyph name="hehmedialaltonearabic" xMin="142" yMin="226" xMax="842" yMax="1588">
      <contour>
        <pt x="142" y="226" on="1"/>
        <pt x="142" y="1588" on="1"/>
        <pt x="842" y="1588" on="1"/>
        <pt x="842" y="226" on="1"/>
      </contour>
      <contour>
        <pt x="284" y="368" on="1"/>
        <pt x="700" y="368" on="1"/>
        <pt x="700" y="1447" on="1"/>
        <pt x="284" y="1447" on="1"/>
      </contour>
    </TTGlyph>
    <TTGlyph name="hyphen" xMin="169" yMin="-36" xMax="1817" yMax="1796">
      <contour>
        <pt x="1621" y="1738" on="1"/>
        <pt x="1622" y="1697" on="0"/>
        <pt x="1420" y="1571" on="1"/>
        <pt x="1241" y="1460" on="0"/>
        <pt x="1155" y="1427" on="1"/>
        <pt x="1131" y="1452" on="0"/>
        <pt x="1131" y="1468" on="1"/>
        <pt x="1131" y="1520" on="0"/>
        <pt x="1174" y="1549" on="1"/>
        <pt x="1546" y="1796" on="0"/>
        <pt x="1581" y="1796" on="1"/>
        <pt x="1596" y="1796" on="0"/>
        <pt x="1618" y="1784" on="0"/>
        <pt x="1621" y="1784" on="1"/>
      </contour>
      <contour>
        <pt x="1121" y="1693" on="1"/>
        <pt x="1121" y="1646" on="0"/>
        <pt x="1081" y="1617" on="1"/>
        <pt x="1043" y="1597" on="0"/>
        <pt x="1005" y="1578" on="1"/>
        <pt x="960" y="1553" on="0"/>
        <pt x="873" y="1506" on="1"/>
        <pt x="769" y="1446" on="0"/>
        <pt x="563" y="1335" on="1"/>
        <pt x="548" y="1347" on="0"/>
        <pt x="538" y="1347" on="1"/>
        <pt x="538" y="1400" on="1"/>
        <pt x="538" y="1440" on="0"/>
        <pt x="795" y="1591" on="1"/>
        <pt x="1041" y="1735" on="0"/>
        <pt x="1055" y="1734" on="1"/>
        <pt x="1108" y="1734" on="1"/>
        <pt x="1121" y="1720" on="0"/>
      </contour>
      <contour>
        <pt x="1817" y="239" on="1"/>
        <pt x="1817" y="168" on="0"/>
        <pt x="1780" y="93" on="1"/>
        <pt x="1732" y="-6" on="0"/>
        <pt x="1648" y="-6" on="1"/>
        <pt x="1628" y="-6" on="0"/>
        <pt x="1456" y="34" on="0"/>
        <pt x="1341" y="34" on="1"/>
        <pt x="1328" y="34" on="0"/>
        <pt x="919" y="-36" on="0"/>
        <pt x="905" y="-36" on="1"/>
        <pt x="670" y="-36" on="1"/>
        <pt x="493" y="-36" on="0"/>
        <pt x="357" y="7" on="1"/>
        <pt x="283" y="30" on="0"/>
        <pt x="247" y="223" on="1"/>
        <pt x="208" y="433" on="0"/>
        <pt x="212" y="644" on="1"/>
        <pt x="217" y="840" on="0"/>
        <pt x="195" y="1012" on="1"/>
        <pt x="194" y="1022" on="0"/>
        <pt x="181" y="1068" on="1"/>
        <pt x="169" y="1111" on="0"/>
        <pt x="169" y="1125" on="1"/>
        <pt x="169" y="1135" on="0"/>
        <pt x="222" y="1242" on="1"/>
        <pt x="258" y="1242" on="1"/>
        <pt x="287" y="1216" on="0"/>
        <pt x="298" y="1157" on="1"/>
        <pt x="322" y="1028" on="0"/>
        <pt x="322" y="922" on="1"/>
        <pt x="322" y="437" on="1"/>
        <pt x="322" y="425" on="0"/>
        <pt x="330" y="407" on="1"/>
        <pt x="338" y="387" on="0"/>
        <pt x="339" y="378" on="1"/>
        <pt x="342" y="328" on="0"/>
        <pt x="344" y="279" on="1"/>
        <pt x="355" y="211" on="0"/>
        <pt x="411" y="180" on="1"/>
        <pt x="507" y="127" on="0"/>
        <pt x="629" y="127" on="1"/>
        <pt x="640" y="127" on="0"/>
        <pt x="1026" y="147" on="0"/>
        <pt x="1039" y="147" on="1"/>
        <pt x="1132" y="147" on="0"/>
        <pt x="1180" y="197" on="1"/>
        <pt x="1191" y="208" on="0"/>
        <pt x="1191" y="238" on="1"/>
        <pt x="1192" y="276" on="0"/>
        <pt x="1195" y="287" on="1"/>
        <pt x="1220" y="370" on="0"/>
        <pt x="1290" y="473" on="1"/>
        <pt x="1337" y="539" on="0"/>
        <pt x="1384" y="605" on="1"/>
        <pt x="1387" y="611" on="0"/>
        <pt x="1387" y="680" on="1"/>
        <pt x="1387" y="810" on="0"/>
        <pt x="1342" y="1042" on="1"/>
        <pt x="1340" y="1051" on="0"/>
        <pt x="1327" y="1092" on="1"/>
        <pt x="1315" y="1125" on="0"/>
        <pt x="1315" y="1145" on="1"/>
        <pt x="1315" y="1236" on="0"/>
        <pt x="1389" y="1344" on="1"/>
        <pt x="1427" y="1344" on="1"/>
        <pt x="1457" y="1285" on="0"/>
        <pt x="1461" y="1219" on="1"/>
        <pt x="1465" y="1213" on="0"/>
        <pt x="1499" y="1189" on="1"/>
        <pt x="1520" y="1173" on="0"/>
        <pt x="1520" y="1145" on="1"/>
        <pt x="1520" y="1133" on="0"/>
        <pt x="1469" y="990" on="0"/>
        <pt x="1469" y="976" on="1"/>
        <pt x="1469" y="845" on="0"/>
        <pt x="1512" y="594" on="1"/>
        <pt x="1522" y="538" on="0"/>
        <pt x="1789" y="394" on="0"/>
        <pt x="1817" y="264" on="0"/>
      </contour>
      <contour>
        <pt x="1704" y="192" on="1"/>
        <pt x="1703" y="208" on="0"/>
        <pt x="1626" y="291" on="0"/>
        <pt x="1606" y="290" on="1"/>
        <pt x="1574" y="290" on="1"/>
        <pt x="1540" y="223" on="0"/>
        <pt x="1540" y="224" on="1"/>
        <pt x="1540" y="201" on="0"/>
        <pt x="1553" y="200" on="1"/>
        <pt x="1667" y="159" on="0"/>
      </contour>
      <contour>
        <pt x="1449" y="286" on="1"/>
        <pt x="1449" y="336" on="0"/>
        <pt x="1422" y="368" on="1"/>
        <pt x="1413" y="373" on="0"/>
        <pt x="1394" y="393" on="1"/>
        <pt x="1362" y="383" on="0"/>
        <pt x="1301" y="283" on="0"/>
        <pt x="1306" y="251" on="1"/>
        <pt x="1372" y="219" on="0"/>
        <pt x="1382" y="219" on="1"/>
        <pt x="1449" y="219" on="0"/>
      </contour>
    </TTGlyph>
    <TTGlyph name="irghizufinal" xMin="142" yMin="226" xMax="842" yMax="1588">
      <contour>
        <pt x="142" y="226" on="1"/>
        <pt x="142" y="1588" on="1"/>
        <pt x="842" y="1588" on="1"/>
        <pt x="842" y="226" on="1"/>
      </contour>
      <contour>
        <pt x="284" y="368" on="1"/>
        <pt x="700" y="368" on="1"/>
        <pt x="700" y="1447" on="1"/>
        <pt x="284" y="1447" on="1"/>
      </contour>
    </TTGlyph>
    <TTGlyph name="jehfinalarabic" xMin="142" yMin="226" xMax="842" yMax="1588">
      <contour>
        <pt x="142" y="226" on="1"/>
        <pt x="142" y="1588" on="1"/>
        <pt x="842" y="1588" on="1"/>
        <pt x="842" y="226" on="1"/>
      </contour>
      <contour>
        <pt x="284" y="368" on="1"/>
        <pt x="700" y="368" on="1"/>
        <pt x="700" y="1447" on="1"/>
        <pt x="284" y="1447" on="1"/>
      </contour>
    </TTGlyph>
    <TTGlyph name="kafringfinal" xMin="142" yMin="226" xMax="842" yMax="1588">
      <contour>
        <pt x="142" y="226" on="1"/>
        <pt x="142" y="1588" on="1"/>
        <pt x="842" y="1588" on="1"/>
        <pt x="842" y="226" on="1"/>
      </contour>
      <contour>
        <pt x="284" y="368" on="1"/>
        <pt x="700" y="368" on="1"/>
        <pt x="700" y="1447" on="1"/>
        <pt x="284" y="1447" on="1"/>
      </contour>
    </TTGlyph>
    <TTGlyph name="kafringinitial" xMin="142" yMin="226" xMax="842" yMax="1588">
      <contour>
        <pt x="142" y="226" on="1"/>
        <pt x="142" y="1588" on="1"/>
        <pt x="842" y="1588" on="1"/>
        <pt x="842" y="226" on="1"/>
      </contour>
      <contour>
        <pt x="284" y="368" on="1"/>
        <pt x="700" y="368" on="1"/>
        <pt x="700" y="1447" on="1"/>
        <pt x="284" y="1447" on="1"/>
      </contour>
    </TTGlyph>
    <TTGlyph name="kafringmedial" xMin="142" yMin="226" xMax="842" yMax="1588">
      <contour>
        <pt x="142" y="226" on="1"/>
        <pt x="142" y="1588" on="1"/>
        <pt x="842" y="1588" on="1"/>
        <pt x="842" y="226" on="1"/>
      </contour>
      <contour>
        <pt x="284" y="368" on="1"/>
        <pt x="700" y="368" on="1"/>
        <pt x="700" y="1447" on="1"/>
        <pt x="284" y="1447" on="1"/>
      </contour>
    </TTGlyph>
    <TTGlyph name="kashidaautoarabic" xMin="142" yMin="226" xMax="842" yMax="1588">
      <contour>
        <pt x="142" y="226" on="1"/>
        <pt x="142" y="1588" on="1"/>
        <pt x="842" y="1588" on="1"/>
        <pt x="842" y="226" on="1"/>
      </contour>
      <contour>
        <pt x="284" y="368" on="1"/>
        <pt x="700" y="368" on="1"/>
        <pt x="700" y="1447" on="1"/>
        <pt x="284" y="1447" on="1"/>
      </contour>
    </TTGlyph>
    <TTGlyph name="kashidaautonosidebearingarabic" xMin="142" yMin="226" xMax="842" yMax="1588">
      <contour>
        <pt x="142" y="226" on="1"/>
        <pt x="142" y="1588" on="1"/>
        <pt x="842" y="1588" on="1"/>
        <pt x="842" y="226" on="1"/>
      </contour>
      <contour>
        <pt x="284" y="368" on="1"/>
        <pt x="700" y="368" on="1"/>
        <pt x="700" y="1447" on="1"/>
        <pt x="284" y="1447" on="1"/>
      </contour>
    </TTGlyph>
    <TTGlyph name="kehehfinalarabic" xMin="142" yMin="226" xMax="842" yMax="1588">
      <contour>
        <pt x="142" y="226" on="1"/>
        <pt x="142" y="1588" on="1"/>
        <pt x="842" y="1588" on="1"/>
        <pt x="842" y="226" on="1"/>
      </contour>
      <contour>
        <pt x="284" y="368" on="1"/>
        <pt x="700" y="368" on="1"/>
        <pt x="700" y="1447" on="1"/>
        <pt x="284" y="1447" on="1"/>
      </contour>
    </TTGlyph>
    <TTGlyph name="kehehinitialarabic" xMin="142" yMin="226" xMax="842" yMax="1588">
      <contour>
        <pt x="142" y="226" on="1"/>
        <pt x="142" y="1588" on="1"/>
        <pt x="842" y="1588" on="1"/>
        <pt x="842" y="226" on="1"/>
      </contour>
      <contour>
        <pt x="284" y="368" on="1"/>
        <pt x="700" y="368" on="1"/>
        <pt x="700" y="1447" on="1"/>
        <pt x="284" y="1447" on="1"/>
      </contour>
    </TTGlyph>
    <TTGlyph name="kehehmedialarabic" xMin="142" yMin="226" xMax="842" yMax="1588">
      <contour>
        <pt x="142" y="226" on="1"/>
        <pt x="142" y="1588" on="1"/>
        <pt x="842" y="1588" on="1"/>
        <pt x="842" y="226" on="1"/>
      </contour>
      <contour>
        <pt x="284" y="368" on="1"/>
        <pt x="700" y="368" on="1"/>
        <pt x="700" y="1447" on="1"/>
        <pt x="284" y="1447" on="1"/>
      </contour>
    </TTGlyph>
    <TTGlyph name="kirghizyifinal" xMin="142" yMin="226" xMax="842" yMax="1588">
      <contour>
        <pt x="142" y="226" on="1"/>
        <pt x="142" y="1588" on="1"/>
        <pt x="842" y="1588" on="1"/>
        <pt x="842" y="226" on="1"/>
      </contour>
      <contour>
        <pt x="284" y="368" on="1"/>
        <pt x="700" y="368" on="1"/>
        <pt x="700" y="1447" on="1"/>
        <pt x="284" y="1447" on="1"/>
      </contour>
    </TTGlyph>
    <TTGlyph name="lammeemjeeminitialarabic" xMin="142" yMin="226" xMax="842" yMax="1588">
      <contour>
        <pt x="142" y="226" on="1"/>
        <pt x="142" y="1588" on="1"/>
        <pt x="842" y="1588" on="1"/>
        <pt x="842" y="226" on="1"/>
      </contour>
      <contour>
        <pt x="284" y="368" on="1"/>
        <pt x="700" y="368" on="1"/>
        <pt x="700" y="1447" on="1"/>
        <pt x="284" y="1447" on="1"/>
      </contour>
    </TTGlyph>
    <TTGlyph name="lammeemkhahinitialarabic" xMin="142" yMin="226" xMax="842" yMax="1588">
      <contour>
        <pt x="142" y="226" on="1"/>
        <pt x="142" y="1588" on="1"/>
        <pt x="842" y="1588" on="1"/>
        <pt x="842" y="226" on="1"/>
      </contour>
      <contour>
        <pt x="284" y="368" on="1"/>
        <pt x="700" y="368" on="1"/>
        <pt x="700" y="1447" on="1"/>
        <pt x="284" y="1447" on="1"/>
      </contour>
    </TTGlyph>
    <TTGlyph name="lamthreedotsabovefinal" xMin="142" yMin="226" xMax="842" yMax="1588">
      <contour>
        <pt x="142" y="226" on="1"/>
        <pt x="142" y="1588" on="1"/>
        <pt x="842" y="1588" on="1"/>
        <pt x="842" y="226" on="1"/>
      </contour>
      <contour>
        <pt x="284" y="368" on="1"/>
        <pt x="700" y="368" on="1"/>
        <pt x="700" y="1447" on="1"/>
        <pt x="284" y="1447" on="1"/>
      </contour>
    </TTGlyph>
    <TTGlyph name="lamthreedotsaboveinitial" xMin="142" yMin="226" xMax="842" yMax="1588">
      <contour>
        <pt x="142" y="226" on="1"/>
        <pt x="142" y="1588" on="1"/>
        <pt x="842" y="1588" on="1"/>
        <pt x="842" y="226" on="1"/>
      </contour>
      <contour>
        <pt x="284" y="368" on="1"/>
        <pt x="700" y="368" on="1"/>
        <pt x="700" y="1447" on="1"/>
        <pt x="284" y="1447" on="1"/>
      </contour>
    </TTGlyph>
    <TTGlyph name="lamthreedotsabovemedial" xMin="142" yMin="226" xMax="842" yMax="1588">
      <contour>
        <pt x="142" y="226" on="1"/>
        <pt x="142" y="1588" on="1"/>
        <pt x="842" y="1588" on="1"/>
        <pt x="842" y="226" on="1"/>
      </contour>
      <contour>
        <pt x="284" y="368" on="1"/>
        <pt x="700" y="368" on="1"/>
        <pt x="700" y="1447" on="1"/>
        <pt x="284" y="1447" on="1"/>
      </contour>
    </TTGlyph>
    <TTGlyph name="less" xMin="142" yMin="226" xMax="842" yMax="1588">
      <contour>
        <pt x="142" y="226" on="1"/>
        <pt x="142" y="1588" on="1"/>
        <pt x="842" y="1588" on="1"/>
        <pt x="842" y="226" on="1"/>
      </contour>
      <contour>
        <pt x="284" y="368" on="1"/>
        <pt x="700" y="368" on="1"/>
        <pt x="700" y="1447" on="1"/>
        <pt x="284" y="1447" on="1"/>
      </contour>
    </TTGlyph>
    <TTGlyph name="meemmeemisolatedarabic" xMin="142" yMin="226" xMax="842" yMax="1588">
      <contour>
        <pt x="142" y="226" on="1"/>
        <pt x="142" y="1588" on="1"/>
        <pt x="842" y="1588" on="1"/>
        <pt x="842" y="226" on="1"/>
      </contour>
      <contour>
        <pt x="284" y="368" on="1"/>
        <pt x="700" y="368" on="1"/>
        <pt x="700" y="1447" on="1"/>
        <pt x="284" y="1447" on="1"/>
      </contour>
    </TTGlyph>
    <TTGlyph name="multiply" xMin="142" yMin="226" xMax="842" yMax="1588">
      <contour>
        <pt x="142" y="226" on="1"/>
        <pt x="142" y="1588" on="1"/>
        <pt x="842" y="1588" on="1"/>
        <pt x="842" y="226" on="1"/>
      </contour>
      <contour>
        <pt x="284" y="368" on="1"/>
        <pt x="700" y="368" on="1"/>
        <pt x="700" y="1447" on="1"/>
        <pt x="284" y="1447" on="1"/>
      </contour>
    </TTGlyph>
    <TTGlyph name="noonghunnafinalarabic" xMin="142" yMin="226" xMax="842" yMax="1588">
      <contour>
        <pt x="142" y="226" on="1"/>
        <pt x="142" y="1588" on="1"/>
        <pt x="842" y="1588" on="1"/>
        <pt x="842" y="226" on="1"/>
      </contour>
      <contour>
        <pt x="284" y="368" on="1"/>
        <pt x="700" y="368" on="1"/>
        <pt x="700" y="1447" on="1"/>
        <pt x="284" y="1447" on="1"/>
      </contour>
    </TTGlyph>
    <TTGlyph name="noonjeemisolatedarabic" xMin="142" yMin="226" xMax="842" yMax="1588">
      <contour>
        <pt x="142" y="226" on="1"/>
        <pt x="142" y="1588" on="1"/>
        <pt x="842" y="1588" on="1"/>
        <pt x="842" y="226" on="1"/>
      </contour>
      <contour>
        <pt x="284" y="368" on="1"/>
        <pt x="700" y="368" on="1"/>
        <pt x="700" y="1447" on="1"/>
        <pt x="284" y="1447" on="1"/>
      </contour>
    </TTGlyph>
    <TTGlyph name="noonmeemisolatedarabic" xMin="142" yMin="226" xMax="842" yMax="1588">
      <contour>
        <pt x="142" y="226" on="1"/>
        <pt x="142" y="1588" on="1"/>
        <pt x="842" y="1588" on="1"/>
        <pt x="842" y="226" on="1"/>
      </contour>
      <contour>
        <pt x="284" y="368" on="1"/>
        <pt x="700" y="368" on="1"/>
        <pt x="700" y="1447" on="1"/>
        <pt x="284" y="1447" on="1"/>
      </contour>
    </TTGlyph>
    <TTGlyph name="noonringfinal" xMin="142" yMin="226" xMax="842" yMax="1588">
      <contour>
        <pt x="142" y="226" on="1"/>
        <pt x="142" y="1588" on="1"/>
        <pt x="842" y="1588" on="1"/>
        <pt x="842" y="226" on="1"/>
      </contour>
      <contour>
        <pt x="284" y="368" on="1"/>
        <pt x="700" y="368" on="1"/>
        <pt x="700" y="1447" on="1"/>
        <pt x="284" y="1447" on="1"/>
      </contour>
    </TTGlyph>
    <TTGlyph name="noonringinitial" xMin="142" yMin="226" xMax="842" yMax="1588">
      <contour>
        <pt x="142" y="226" on="1"/>
        <pt x="142" y="1588" on="1"/>
        <pt x="842" y="1588" on="1"/>
        <pt x="842" y="226" on="1"/>
      </contour>
      <contour>
        <pt x="284" y="368" on="1"/>
        <pt x="700" y="368" on="1"/>
        <pt x="700" y="1447" on="1"/>
        <pt x="284" y="1447" on="1"/>
      </contour>
    </TTGlyph>
    <TTGlyph name="noonringmedial" xMin="142" yMin="226" xMax="842" yMax="1588">
      <contour>
        <pt x="142" y="226" on="1"/>
        <pt x="142" y="1588" on="1"/>
        <pt x="842" y="1588" on="1"/>
        <pt x="842" y="226" on="1"/>
      </contour>
      <contour>
        <pt x="284" y="368" on="1"/>
        <pt x="700" y="368" on="1"/>
        <pt x="700" y="1447" on="1"/>
        <pt x="284" y="1447" on="1"/>
      </contour>
    </TTGlyph>
    <TTGlyph name="numbersign" xMin="142" yMin="226" xMax="842" yMax="1588">
      <contour>
        <pt x="142" y="226" on="1"/>
        <pt x="142" y="1588" on="1"/>
        <pt x="842" y="1588" on="1"/>
        <pt x="842" y="226" on="1"/>
      </contour>
      <contour>
        <pt x="284" y="368" on="1"/>
        <pt x="700" y="368" on="1"/>
        <pt x="700" y="1447" on="1"/>
        <pt x="284" y="1447" on="1"/>
      </contour>
    </TTGlyph>
    <TTGlyph name="parenleft" xMin="142" yMin="226" xMax="842" yMax="1588">
      <contour>
        <pt x="142" y="226" on="1"/>
        <pt x="142" y="1588" on="1"/>
        <pt x="842" y="1588" on="1"/>
        <pt x="842" y="226" on="1"/>
      </contour>
      <contour>
        <pt x="284" y="368" on="1"/>
        <pt x="700" y="368" on="1"/>
        <pt x="700" y="1447" on="1"/>
        <pt x="284" y="1447" on="1"/>
      </contour>
    </TTGlyph>
    <TTGlyph name="parenright" xMin="142" yMin="226" xMax="842" yMax="1588">
      <contour>
        <pt x="142" y="226" on="1"/>
        <pt x="142" y="1588" on="1"/>
        <pt x="842" y="1588" on="1"/>
        <pt x="842" y="226" on="1"/>
      </contour>
      <contour>
        <pt x="284" y="368" on="1"/>
        <pt x="700" y="368" on="1"/>
        <pt x="700" y="1447" on="1"/>
        <pt x="284" y="1447" on="1"/>
      </contour>
    </TTGlyph>
    <TTGlyph name="pashtoefinal" xMin="142" yMin="226" xMax="842" yMax="1588">
      <contour>
        <pt x="142" y="226" on="1"/>
        <pt x="142" y="1588" on="1"/>
        <pt x="842" y="1588" on="1"/>
        <pt x="842" y="226" on="1"/>
      </contour>
      <contour>
        <pt x="284" y="368" on="1"/>
        <pt x="700" y="368" on="1"/>
        <pt x="700" y="1447" on="1"/>
        <pt x="284" y="1447" on="1"/>
      </contour>
    </TTGlyph>
    <TTGlyph name="pashtoeinitial" xMin="142" yMin="226" xMax="842" yMax="1588">
      <contour>
        <pt x="142" y="226" on="1"/>
        <pt x="142" y="1588" on="1"/>
        <pt x="842" y="1588" on="1"/>
        <pt x="842" y="226" on="1"/>
      </contour>
      <contour>
        <pt x="284" y="368" on="1"/>
        <pt x="700" y="368" on="1"/>
        <pt x="700" y="1447" on="1"/>
        <pt x="284" y="1447" on="1"/>
      </contour>
    </TTGlyph>
    <TTGlyph name="pashtoemedial" xMin="142" yMin="226" xMax="842" yMax="1588">
      <contour>
        <pt x="142" y="226" on="1"/>
        <pt x="142" y="1588" on="1"/>
        <pt x="842" y="1588" on="1"/>
        <pt x="842" y="226" on="1"/>
      </contour>
      <contour>
        <pt x="284" y="368" on="1"/>
        <pt x="700" y="368" on="1"/>
        <pt x="700" y="1447" on="1"/>
        <pt x="284" y="1447" on="1"/>
      </contour>
    </TTGlyph>
    <TTGlyph name="pehfinalarabic" xMin="142" yMin="226" xMax="842" yMax="1588">
      <contour>
        <pt x="142" y="226" on="1"/>
        <pt x="142" y="1588" on="1"/>
        <pt x="842" y="1588" on="1"/>
        <pt x="842" y="226" on="1"/>
      </contour>
      <contour>
        <pt x="284" y="368" on="1"/>
        <pt x="700" y="368" on="1"/>
        <pt x="700" y="1447" on="1"/>
        <pt x="284" y="1447" on="1"/>
      </contour>
    </TTGlyph>
    <TTGlyph name="pehinitialarabic" xMin="142" yMin="226" xMax="842" yMax="1588">
      <contour>
        <pt x="142" y="226" on="1"/>
        <pt x="142" y="1588" on="1"/>
        <pt x="842" y="1588" on="1"/>
        <pt x="842" y="226" on="1"/>
      </contour>
      <contour>
        <pt x="284" y="368" on="1"/>
        <pt x="700" y="368" on="1"/>
        <pt x="700" y="1447" on="1"/>
        <pt x="284" y="1447" on="1"/>
      </contour>
    </TTGlyph>
    <TTGlyph name="pehmedialarabic" xMin="142" yMin="226" xMax="842" yMax="1588">
      <contour>
        <pt x="142" y="226" on="1"/>
        <pt x="142" y="1588" on="1"/>
        <pt x="842" y="1588" on="1"/>
        <pt x="842" y="226" on="1"/>
      </contour>
      <contour>
        <pt x="284" y="368" on="1"/>
        <pt x="700" y="368" on="1"/>
        <pt x="700" y="1447" on="1"/>
        <pt x="284" y="1447" on="1"/>
      </contour>
    </TTGlyph>
    <TTGlyph name="percent" xMin="142" yMin="226" xMax="842" yMax="1588">
      <contour>
        <pt x="142" y="226" on="1"/>
        <pt x="142" y="1588" on="1"/>
        <pt x="842" y="1588" on="1"/>
        <pt x="842" y="226" on="1"/>
      </contour>
      <contour>
        <pt x="284" y="368" on="1"/>
        <pt x="700" y="368" on="1"/>
        <pt x="700" y="1447" on="1"/>
        <pt x="284" y="1447" on="1"/>
      </contour>
    </TTGlyph>
    <TTGlyph name="period" xMin="142" yMin="226" xMax="842" yMax="1588">
      <contour>
        <pt x="142" y="226" on="1"/>
        <pt x="142" y="1588" on="1"/>
        <pt x="842" y="1588" on="1"/>
        <pt x="842" y="226" on="1"/>
      </contour>
      <contour>
        <pt x="284" y="368" on="1"/>
        <pt x="700" y="368" on="1"/>
        <pt x="700" y="1447" on="1"/>
        <pt x="284" y="1447" on="1"/>
      </contour>
    </TTGlyph>
    <TTGlyph name="plus" xMin="142" yMin="226" xMax="842" yMax="1588">
      <contour>
        <pt x="142" y="226" on="1"/>
        <pt x="142" y="1588" on="1"/>
        <pt x="842" y="1588" on="1"/>
        <pt x="842" y="226" on="1"/>
      </contour>
      <contour>
        <pt x="284" y="368" on="1"/>
        <pt x="700" y="368" on="1"/>
        <pt x="700" y="1447" on="1"/>
        <pt x="284" y="1447" on="1"/>
      </contour>
    </TTGlyph>
    <TTGlyph name="quotedbl" xMin="142" yMin="226" xMax="842" yMax="1588">
      <contour>
        <pt x="142" y="226" on="1"/>
        <pt x="142" y="1588" on="1"/>
        <pt x="842" y="1588" on="1"/>
        <pt x="842" y="226" on="1"/>
      </contour>
      <contour>
        <pt x="284" y="368" on="1"/>
        <pt x="700" y="368" on="1"/>
        <pt x="700" y="1447" on="1"/>
        <pt x="284" y="1447" on="1"/>
      </contour>
    </TTGlyph>
    <TTGlyph name="quotesingle" xMin="142" yMin="226" xMax="842" yMax="1588">
      <contour>
        <pt x="142" y="226" on="1"/>
        <pt x="142" y="1588" on="1"/>
        <pt x="842" y="1588" on="1"/>
        <pt x="842" y="226" on="1"/>
      </contour>
      <contour>
        <pt x="284" y="368" on="1"/>
        <pt x="700" y="368" on="1"/>
        <pt x="700" y="1447" on="1"/>
        <pt x="284" y="1447" on="1"/>
      </contour>
    </TTGlyph>
    <TTGlyph name="rehdotbelowdotabovefinal" xMin="142" yMin="226" xMax="842" yMax="1588">
      <contour>
        <pt x="142" y="226" on="1"/>
        <pt x="142" y="1588" on="1"/>
        <pt x="842" y="1588" on="1"/>
        <pt x="842" y="226" on="1"/>
      </contour>
      <contour>
        <pt x="284" y="368" on="1"/>
        <pt x="700" y="368" on="1"/>
        <pt x="700" y="1447" on="1"/>
        <pt x="284" y="1447" on="1"/>
      </contour>
    </TTGlyph>
    <TTGlyph name="rehringfinal" xMin="142" yMin="226" xMax="842" yMax="1588">
      <contour>
        <pt x="142" y="226" on="1"/>
        <pt x="142" y="1588" on="1"/>
        <pt x="842" y="1588" on="1"/>
        <pt x="842" y="226" on="1"/>
      </contour>
      <contour>
        <pt x="284" y="368" on="1"/>
        <pt x="700" y="368" on="1"/>
        <pt x="700" y="1447" on="1"/>
        <pt x="284" y="1447" on="1"/>
      </contour>
    </TTGlyph>
    <TTGlyph name="rrehfinalarabic" xMin="142" yMin="226" xMax="842" yMax="1588">
      <contour>
        <pt x="142" y="226" on="1"/>
        <pt x="142" y="1588" on="1"/>
        <pt x="842" y="1588" on="1"/>
        <pt x="842" y="226" on="1"/>
      </contour>
      <contour>
        <pt x="284" y="368" on="1"/>
        <pt x="700" y="368" on="1"/>
        <pt x="700" y="1447" on="1"/>
        <pt x="284" y="1447" on="1"/>
      </contour>
    </TTGlyph>
    <TTGlyph name="seendotbelowdotabovefinal" xMin="142" yMin="226" xMax="842" yMax="1588">
      <contour>
        <pt x="142" y="226" on="1"/>
        <pt x="142" y="1588" on="1"/>
        <pt x="842" y="1588" on="1"/>
        <pt x="842" y="226" on="1"/>
      </contour>
      <contour>
        <pt x="284" y="368" on="1"/>
        <pt x="700" y="368" on="1"/>
        <pt x="700" y="1447" on="1"/>
        <pt x="284" y="1447" on="1"/>
      </contour>
    </TTGlyph>
    <TTGlyph name="seendotbelowdotaboveinitial" xMin="142" yMin="226" xMax="842" yMax="1588">
      <contour>
        <pt x="142" y="226" on="1"/>
        <pt x="142" y="1588" on="1"/>
        <pt x="842" y="1588" on="1"/>
        <pt x="842" y="226" on="1"/>
      </contour>
      <contour>
        <pt x="284" y="368" on="1"/>
        <pt x="700" y="368" on="1"/>
        <pt x="700" y="1447" on="1"/>
        <pt x="284" y="1447" on="1"/>
      </contour>
    </TTGlyph>
    <TTGlyph name="seendotbelowdotabovemedial" xMin="142" yMin="226" xMax="842" yMax="1588">
      <contour>
        <pt x="142" y="226" on="1"/>
        <pt x="142" y="1588" on="1"/>
        <pt x="842" y="1588" on="1"/>
        <pt x="842" y="226" on="1"/>
      </contour>
      <contour>
        <pt x="284" y="368" on="1"/>
        <pt x="700" y="368" on="1"/>
        <pt x="700" y="1447" on="1"/>
        <pt x="284" y="1447" on="1"/>
      </contour>
    </TTGlyph>
    <TTGlyph name="shaddadammaarabic" xMin="142" yMin="226" xMax="842" yMax="1588">
      <contour>
        <pt x="142" y="226" on="1"/>
        <pt x="142" y="1588" on="1"/>
        <pt x="842" y="1588" on="1"/>
        <pt x="842" y="226" on="1"/>
      </contour>
      <contour>
        <pt x="284" y="368" on="1"/>
        <pt x="700" y="368" on="1"/>
        <pt x="700" y="1447" on="1"/>
        <pt x="284" y="1447" on="1"/>
      </contour>
    </TTGlyph>
    <TTGlyph name="shaddadammatanarabic" xMin="142" yMin="226" xMax="842" yMax="1588">
      <contour>
        <pt x="142" y="226" on="1"/>
        <pt x="142" y="1588" on="1"/>
        <pt x="842" y="1588" on="1"/>
        <pt x="842" y="226" on="1"/>
      </contour>
      <contour>
        <pt x="284" y="368" on="1"/>
        <pt x="700" y="368" on="1"/>
        <pt x="700" y="1447" on="1"/>
        <pt x="284" y="1447" on="1"/>
      </contour>
    </TTGlyph>
    <TTGlyph name="shaddafathaarabic" xMin="142" yMin="226" xMax="842" yMax="1588">
      <contour>
        <pt x="142" y="226" on="1"/>
        <pt x="142" y="1588" on="1"/>
        <pt x="842" y="1588" on="1"/>
        <pt x="842" y="226" on="1"/>
      </contour>
      <contour>
        <pt x="284" y="368" on="1"/>
        <pt x="700" y="368" on="1"/>
        <pt x="700" y="1447" on="1"/>
        <pt x="284" y="1447" on="1"/>
      </contour>
    </TTGlyph>
    <TTGlyph name="shaddakasraarabic" xMin="142" yMin="226" xMax="842" yMax="1588">
      <contour>
        <pt x="142" y="226" on="1"/>
        <pt x="142" y="1588" on="1"/>
        <pt x="842" y="1588" on="1"/>
        <pt x="842" y="226" on="1"/>
      </contour>
      <contour>
        <pt x="284" y="368" on="1"/>
        <pt x="700" y="368" on="1"/>
        <pt x="700" y="1447" on="1"/>
        <pt x="284" y="1447" on="1"/>
      </contour>
    </TTGlyph>
    <TTGlyph name="shaddakasratanarabic" xMin="142" yMin="226" xMax="842" yMax="1588">
      <contour>
        <pt x="142" y="226" on="1"/>
        <pt x="142" y="1588" on="1"/>
        <pt x="842" y="1588" on="1"/>
        <pt x="842" y="226" on="1"/>
      </contour>
      <contour>
        <pt x="284" y="368" on="1"/>
        <pt x="700" y="368" on="1"/>
        <pt x="700" y="1447" on="1"/>
        <pt x="284" y="1447" on="1"/>
      </contour>
    </TTGlyph>
    <TTGlyph name="slash" xMin="142" yMin="226" xMax="842" yMax="1588">
      <contour>
        <pt x="142" y="226" on="1"/>
        <pt x="142" y="1588" on="1"/>
        <pt x="842" y="1588" on="1"/>
        <pt x="842" y="226" on="1"/>
      </contour>
      <contour>
        <pt x="284" y="368" on="1"/>
        <pt x="700" y="368" on="1"/>
        <pt x="700" y="1447" on="1"/>
        <pt x="284" y="1447" on="1"/>
      </contour>
    </TTGlyph>
    <TTGlyph name="space" xMin="142" yMin="226" xMax="842" yMax="1588">
      <contour>
        <pt x="142" y="226" on="1"/>
        <pt x="142" y="1588" on="1"/>
        <pt x="842" y="1588" on="1"/>
        <pt x="842" y="226" on="1"/>
      </contour>
      <contour>
        <pt x="284" y="368" on="1"/>
        <pt x="700" y="368" on="1"/>
        <pt x="700" y="1447" on="1"/>
        <pt x="284" y="1447" on="1"/>
      </contour>
    </TTGlyph>
    <TTGlyph name="tchehfinalarabic" xMin="142" yMin="226" xMax="842" yMax="1588">
      <contour>
        <pt x="142" y="226" on="1"/>
        <pt x="142" y="1588" on="1"/>
        <pt x="842" y="1588" on="1"/>
        <pt x="842" y="226" on="1"/>
      </contour>
      <contour>
        <pt x="284" y="368" on="1"/>
        <pt x="700" y="368" on="1"/>
        <pt x="700" y="1447" on="1"/>
        <pt x="284" y="1447" on="1"/>
      </contour>
    </TTGlyph>
    <TTGlyph name="tchehinitialarabic" xMin="142" yMin="226" xMax="842" yMax="1588">
      <contour>
        <pt x="142" y="226" on="1"/>
        <pt x="142" y="1588" on="1"/>
        <pt x="842" y="1588" on="1"/>
        <pt x="842" y="226" on="1"/>
      </contour>
      <contour>
        <pt x="284" y="368" on="1"/>
        <pt x="700" y="368" on="1"/>
        <pt x="700" y="1447" on="1"/>
        <pt x="284" y="1447" on="1"/>
      </contour>
    </TTGlyph>
    <TTGlyph name="tchehmedialarabic" xMin="142" yMin="226" xMax="842" yMax="1588">
      <contour>
        <pt x="142" y="226" on="1"/>
        <pt x="142" y="1588" on="1"/>
        <pt x="842" y="1588" on="1"/>
        <pt x="842" y="226" on="1"/>
      </contour>
      <contour>
        <pt x="284" y="368" on="1"/>
        <pt x="700" y="368" on="1"/>
        <pt x="700" y="1447" on="1"/>
        <pt x="284" y="1447" on="1"/>
      </contour>
    </TTGlyph>
    <TTGlyph name="tehhahisolatedarabic" xMin="142" yMin="226" xMax="842" yMax="1588">
      <contour>
        <pt x="142" y="226" on="1"/>
        <pt x="142" y="1588" on="1"/>
        <pt x="842" y="1588" on="1"/>
        <pt x="842" y="226" on="1"/>
      </contour>
      <contour>
        <pt x="284" y="368" on="1"/>
        <pt x="700" y="368" on="1"/>
        <pt x="700" y="1447" on="1"/>
        <pt x="284" y="1447" on="1"/>
      </contour>
    </TTGlyph>
    <TTGlyph name="tehjeemisolatedarabic" xMin="142" yMin="226" xMax="842" yMax="1588">
      <contour>
        <pt x="142" y="226" on="1"/>
        <pt x="142" y="1588" on="1"/>
        <pt x="842" y="1588" on="1"/>
        <pt x="842" y="226" on="1"/>
      </contour>
      <contour>
        <pt x="284" y="368" on="1"/>
        <pt x="700" y="368" on="1"/>
        <pt x="700" y="1447" on="1"/>
        <pt x="284" y="1447" on="1"/>
      </contour>
    </TTGlyph>
    <TTGlyph name="tehmeemisolatedarabic" xMin="142" yMin="226" xMax="842" yMax="1588">
      <contour>
        <pt x="142" y="226" on="1"/>
        <pt x="142" y="1588" on="1"/>
        <pt x="842" y="1588" on="1"/>
        <pt x="842" y="226" on="1"/>
      </contour>
      <contour>
        <pt x="284" y="368" on="1"/>
        <pt x="700" y="368" on="1"/>
        <pt x="700" y="1447" on="1"/>
        <pt x="284" y="1447" on="1"/>
      </contour>
    </TTGlyph>
    <TTGlyph name="tehnoonfinalarabic" xMin="142" yMin="226" xMax="842" yMax="1588">
      <contour>
        <pt x="142" y="226" on="1"/>
        <pt x="142" y="1588" on="1"/>
        <pt x="842" y="1588" on="1"/>
        <pt x="842" y="226" on="1"/>
      </contour>
      <contour>
        <pt x="284" y="368" on="1"/>
        <pt x="700" y="368" on="1"/>
        <pt x="700" y="1447" on="1"/>
        <pt x="284" y="1447" on="1"/>
      </contour>
    </TTGlyph>
    <TTGlyph name="tehringfinal" xMin="142" yMin="226" xMax="842" yMax="1588">
      <contour>
        <pt x="142" y="226" on="1"/>
        <pt x="142" y="1588" on="1"/>
        <pt x="842" y="1588" on="1"/>
        <pt x="842" y="226" on="1"/>
      </contour>
      <contour>
        <pt x="284" y="368" on="1"/>
        <pt x="700" y="368" on="1"/>
        <pt x="700" y="1447" on="1"/>
        <pt x="284" y="1447" on="1"/>
      </contour>
    </TTGlyph>
    <TTGlyph name="tehringinitial" xMin="142" yMin="226" xMax="842" yMax="1588">
      <contour>
        <pt x="142" y="226" on="1"/>
        <pt x="142" y="1588" on="1"/>
        <pt x="842" y="1588" on="1"/>
        <pt x="842" y="226" on="1"/>
      </contour>
      <contour>
        <pt x="284" y="368" on="1"/>
        <pt x="700" y="368" on="1"/>
        <pt x="700" y="1447" on="1"/>
        <pt x="284" y="1447" on="1"/>
      </contour>
    </TTGlyph>
    <TTGlyph name="tehringmedial" xMin="142" yMin="226" xMax="842" yMax="1588">
      <contour>
        <pt x="142" y="226" on="1"/>
        <pt x="142" y="1588" on="1"/>
        <pt x="842" y="1588" on="1"/>
        <pt x="842" y="226" on="1"/>
      </contour>
      <contour>
        <pt x="284" y="368" on="1"/>
        <pt x="700" y="368" on="1"/>
        <pt x="700" y="1447" on="1"/>
        <pt x="284" y="1447" on="1"/>
      </contour>
    </TTGlyph>
    <TTGlyph name="ttehfinalarabic" xMin="142" yMin="226" xMax="842" yMax="1588">
      <contour>
        <pt x="142" y="226" on="1"/>
        <pt x="142" y="1588" on="1"/>
        <pt x="842" y="1588" on="1"/>
        <pt x="842" y="226" on="1"/>
      </contour>
      <contour>
        <pt x="284" y="368" on="1"/>
        <pt x="700" y="368" on="1"/>
        <pt x="700" y="1447" on="1"/>
        <pt x="284" y="1447" on="1"/>
      </contour>
    </TTGlyph>
    <TTGlyph name="ttehinitialarabic" xMin="142" yMin="226" xMax="842" yMax="1588">
      <contour>
        <pt x="142" y="226" on="1"/>
        <pt x="142" y="1588" on="1"/>
        <pt x="842" y="1588" on="1"/>
        <pt x="842" y="226" on="1"/>
      </contour>
      <contour>
        <pt x="284" y="368" on="1"/>
        <pt x="700" y="368" on="1"/>
        <pt x="700" y="1447" on="1"/>
        <pt x="284" y="1447" on="1"/>
      </contour>
    </TTGlyph>
    <TTGlyph name="ttehmedialarabic" xMin="142" yMin="226" xMax="842" yMax="1588">
      <contour>
        <pt x="142" y="226" on="1"/>
        <pt x="142" y="1588" on="1"/>
        <pt x="842" y="1588" on="1"/>
        <pt x="842" y="226" on="1"/>
      </contour>
      <contour>
        <pt x="284" y="368" on="1"/>
        <pt x="700" y="368" on="1"/>
        <pt x="700" y="1447" on="1"/>
        <pt x="284" y="1447" on="1"/>
      </contour>
    </TTGlyph>
    <TTGlyph name="uni000D" xMin="142" yMin="226" xMax="842" yMax="1588">
      <contour>
        <pt x="142" y="226" on="1"/>
        <pt x="142" y="1588" on="1"/>
        <pt x="842" y="1588" on="1"/>
        <pt x="842" y="226" on="1"/>
      </contour>
      <contour>
        <pt x="284" y="368" on="1"/>
        <pt x="700" y="368" on="1"/>
        <pt x="700" y="1447" on="1"/>
        <pt x="284" y="1447" on="1"/>
      </contour>
    </TTGlyph>
    <TTGlyph name="uni00A0" xMin="142" yMin="226" xMax="842" yMax="1588">
      <contour>
        <pt x="142" y="226" on="1"/>
        <pt x="142" y="1588" on="1"/>
        <pt x="842" y="1588" on="1"/>
        <pt x="842" y="226" on="1"/>
      </contour>
      <contour>
        <pt x="284" y="368" on="1"/>
        <pt x="700" y="368" on="1"/>
        <pt x="700" y="1447" on="1"/>
        <pt x="284" y="1447" on="1"/>
      </contour>
    </TTGlyph>
    <TTGlyph name="uni00AD" xMin="142" yMin="226" xMax="842" yMax="1588">
      <contour>
        <pt x="142" y="226" on="1"/>
        <pt x="142" y="1588" on="1"/>
        <pt x="842" y="1588" on="1"/>
        <pt x="842" y="226" on="1"/>
      </contour>
      <contour>
        <pt x="284" y="368" on="1"/>
        <pt x="700" y="368" on="1"/>
        <pt x="700" y="1447" on="1"/>
        <pt x="284" y="1447" on="1"/>
      </contour>
    </TTGlyph>
    <TTGlyph name="uni0653" xMin="142" yMin="226" xMax="842" yMax="1588">
      <contour>
        <pt x="142" y="226" on="1"/>
        <pt x="142" y="1588" on="1"/>
        <pt x="842" y="1588" on="1"/>
        <pt x="842" y="226" on="1"/>
      </contour>
      <contour>
        <pt x="284" y="368" on="1"/>
        <pt x="700" y="368" on="1"/>
        <pt x="700" y="1447" on="1"/>
        <pt x="284" y="1447" on="1"/>
      </contour>
    </TTGlyph>
    <TTGlyph name="uni0654" xMin="142" yMin="226" xMax="842" yMax="1588">
      <contour>
        <pt x="142" y="226" on="1"/>
        <pt x="142" y="1588" on="1"/>
        <pt x="842" y="1588" on="1"/>
        <pt x="842" y="226" on="1"/>
      </contour>
      <contour>
        <pt x="284" y="368" on="1"/>
        <pt x="700" y="368" on="1"/>
        <pt x="700" y="1447" on="1"/>
        <pt x="284" y="1447" on="1"/>
      </contour>
    </TTGlyph>
    <TTGlyph name="uni0655" xMin="142" yMin="226" xMax="842" yMax="1588">
      <contour>
        <pt x="142" y="226" on="1"/>
        <pt x="142" y="1588" on="1"/>
        <pt x="842" y="1588" on="1"/>
        <pt x="842" y="226" on="1"/>
      </contour>
      <contour>
        <pt x="284" y="368" on="1"/>
        <pt x="700" y="368" on="1"/>
        <pt x="700" y="1447" on="1"/>
        <pt x="284" y="1447" on="1"/>
      </contour>
    </TTGlyph>
    <TTGlyph name="uni066B" xMin="142" yMin="226" xMax="842" yMax="1588">
      <contour>
        <pt x="142" y="226" on="1"/>
        <pt x="142" y="1588" on="1"/>
        <pt x="842" y="1588" on="1"/>
        <pt x="842" y="226" on="1"/>
      </contour>
      <contour>
        <pt x="284" y="368" on="1"/>
        <pt x="700" y="368" on="1"/>
        <pt x="700" y="1447" on="1"/>
        <pt x="284" y="1447" on="1"/>
      </contour>
    </TTGlyph>
    <TTGlyph name="uni066C" xMin="142" yMin="226" xMax="842" yMax="1588">
      <contour>
        <pt x="142" y="226" on="1"/>
        <pt x="142" y="1588" on="1"/>
        <pt x="842" y="1588" on="1"/>
        <pt x="842" y="226" on="1"/>
      </contour>
      <contour>
        <pt x="284" y="368" on="1"/>
        <pt x="700" y="368" on="1"/>
        <pt x="700" y="1447" on="1"/>
        <pt x="284" y="1447" on="1"/>
      </contour>
    </TTGlyph>
    <TTGlyph name="uni0671" xMin="142" yMin="226" xMax="842" yMax="1588">
      <contour>
        <pt x="142" y="226" on="1"/>
        <pt x="142" y="1588" on="1"/>
        <pt x="842" y="1588" on="1"/>
        <pt x="842" y="226" on="1"/>
      </contour>
      <contour>
        <pt x="284" y="368" on="1"/>
        <pt x="700" y="368" on="1"/>
        <pt x="700" y="1447" on="1"/>
        <pt x="284" y="1447" on="1"/>
      </contour>
    </TTGlyph>
    <TTGlyph name="uni067C" xMin="142" yMin="226" xMax="842" yMax="1588">
      <contour>
        <pt x="142" y="226" on="1"/>
        <pt x="142" y="1588" on="1"/>
        <pt x="842" y="1588" on="1"/>
        <pt x="842" y="226" on="1"/>
      </contour>
      <contour>
        <pt x="284" y="368" on="1"/>
        <pt x="700" y="368" on="1"/>
        <pt x="700" y="1447" on="1"/>
        <pt x="284" y="1447" on="1"/>
      </contour>
    </TTGlyph>
    <TTGlyph name="uni0681" xMin="142" yMin="226" xMax="842" yMax="1588">
      <contour>
        <pt x="142" y="226" on="1"/>
        <pt x="142" y="1588" on="1"/>
        <pt x="842" y="1588" on="1"/>
        <pt x="842" y="226" on="1"/>
      </contour>
      <contour>
        <pt x="284" y="368" on="1"/>
        <pt x="700" y="368" on="1"/>
        <pt x="700" y="1447" on="1"/>
        <pt x="284" y="1447" on="1"/>
      </contour>
    </TTGlyph>
    <TTGlyph name="uni0685" xMin="142" yMin="226" xMax="842" yMax="1588">
      <contour>
        <pt x="142" y="226" on="1"/>
        <pt x="142" y="1588" on="1"/>
        <pt x="842" y="1588" on="1"/>
        <pt x="842" y="226" on="1"/>
      </contour>
      <contour>
        <pt x="284" y="368" on="1"/>
        <pt x="700" y="368" on="1"/>
        <pt x="700" y="1447" on="1"/>
        <pt x="284" y="1447" on="1"/>
      </contour>
    </TTGlyph>
    <TTGlyph name="uni0689" xMin="142" yMin="226" xMax="842" yMax="1588">
      <contour>
        <pt x="142" y="226" on="1"/>
        <pt x="142" y="1588" on="1"/>
        <pt x="842" y="1588" on="1"/>
        <pt x="842" y="226" on="1"/>
      </contour>
      <contour>
        <pt x="284" y="368" on="1"/>
        <pt x="700" y="368" on="1"/>
        <pt x="700" y="1447" on="1"/>
        <pt x="284" y="1447" on="1"/>
      </contour>
    </TTGlyph>
    <TTGlyph name="uni0693" xMin="142" yMin="226" xMax="842" yMax="1588">
      <contour>
        <pt x="142" y="226" on="1"/>
        <pt x="142" y="1588" on="1"/>
        <pt x="842" y="1588" on="1"/>
        <pt x="842" y="226" on="1"/>
      </contour>
      <contour>
        <pt x="284" y="368" on="1"/>
        <pt x="700" y="368" on="1"/>
        <pt x="700" y="1447" on="1"/>
        <pt x="284" y="1447" on="1"/>
      </contour>
    </TTGlyph>
    <TTGlyph name="uni0696" xMin="142" yMin="226" xMax="842" yMax="1588">
      <contour>
        <pt x="142" y="226" on="1"/>
        <pt x="142" y="1588" on="1"/>
        <pt x="842" y="1588" on="1"/>
        <pt x="842" y="226" on="1"/>
      </contour>
      <contour>
        <pt x="284" y="368" on="1"/>
        <pt x="700" y="368" on="1"/>
        <pt x="700" y="1447" on="1"/>
        <pt x="284" y="1447" on="1"/>
      </contour>
    </TTGlyph>
    <TTGlyph name="uni069A" xMin="142" yMin="226" xMax="842" yMax="1588">
      <contour>
        <pt x="142" y="226" on="1"/>
        <pt x="142" y="1588" on="1"/>
        <pt x="842" y="1588" on="1"/>
        <pt x="842" y="226" on="1"/>
      </contour>
      <contour>
        <pt x="284" y="368" on="1"/>
        <pt x="700" y="368" on="1"/>
        <pt x="700" y="1447" on="1"/>
        <pt x="284" y="1447" on="1"/>
      </contour>
    </TTGlyph>
    <TTGlyph name="uni06A9" xMin="142" yMin="226" xMax="842" yMax="1588">
      <contour>
        <pt x="142" y="226" on="1"/>
        <pt x="142" y="1588" on="1"/>
        <pt x="842" y="1588" on="1"/>
        <pt x="842" y="226" on="1"/>
      </contour>
      <contour>
        <pt x="284" y="368" on="1"/>
        <pt x="700" y="368" on="1"/>
        <pt x="700" y="1447" on="1"/>
        <pt x="284" y="1447" on="1"/>
      </contour>
    </TTGlyph>
    <TTGlyph name="uni06AB" xMin="142" yMin="226" xMax="842" yMax="1588">
      <contour>
        <pt x="142" y="226" on="1"/>
        <pt x="142" y="1588" on="1"/>
        <pt x="842" y="1588" on="1"/>
        <pt x="842" y="226" on="1"/>
      </contour>
      <contour>
        <pt x="284" y="368" on="1"/>
        <pt x="700" y="368" on="1"/>
        <pt x="700" y="1447" on="1"/>
        <pt x="284" y="1447" on="1"/>
      </contour>
    </TTGlyph>
    <TTGlyph name="uni06B7" xMin="142" yMin="226" xMax="842" yMax="1588">
      <contour>
        <pt x="142" y="226" on="1"/>
        <pt x="142" y="1588" on="1"/>
        <pt x="842" y="1588" on="1"/>
        <pt x="842" y="226" on="1"/>
      </contour>
      <contour>
        <pt x="284" y="368" on="1"/>
        <pt x="700" y="368" on="1"/>
        <pt x="700" y="1447" on="1"/>
        <pt x="284" y="1447" on="1"/>
      </contour>
    </TTGlyph>
    <TTGlyph name="uni06BC" xMin="142" yMin="226" xMax="842" yMax="1588">
      <contour>
        <pt x="142" y="226" on="1"/>
        <pt x="142" y="1588" on="1"/>
        <pt x="842" y="1588" on="1"/>
        <pt x="842" y="226" on="1"/>
      </contour>
      <contour>
        <pt x="284" y="368" on="1"/>
        <pt x="700" y="368" on="1"/>
        <pt x="700" y="1447" on="1"/>
        <pt x="284" y="1447" on="1"/>
      </contour>
    </TTGlyph>
    <TTGlyph name="uni06BE" xMin="142" yMin="226" xMax="842" yMax="1588">
      <contour>
        <pt x="142" y="226" on="1"/>
        <pt x="142" y="1588" on="1"/>
        <pt x="842" y="1588" on="1"/>
        <pt x="842" y="226" on="1"/>
      </contour>
      <contour>
        <pt x="284" y="368" on="1"/>
        <pt x="700" y="368" on="1"/>
        <pt x="700" y="1447" on="1"/>
        <pt x="284" y="1447" on="1"/>
      </contour>
    </TTGlyph>
    <TTGlyph name="uni06C2" xMin="142" yMin="226" xMax="842" yMax="1588">
      <contour>
        <pt x="142" y="226" on="1"/>
        <pt x="142" y="1588" on="1"/>
        <pt x="842" y="1588" on="1"/>
        <pt x="842" y="226" on="1"/>
      </contour>
      <contour>
        <pt x="284" y="368" on="1"/>
        <pt x="700" y="368" on="1"/>
        <pt x="700" y="1447" on="1"/>
        <pt x="284" y="1447" on="1"/>
      </contour>
    </TTGlyph>
    <TTGlyph name="uni06C7" xMin="142" yMin="226" xMax="842" yMax="1588">
      <contour>
        <pt x="142" y="226" on="1"/>
        <pt x="142" y="1588" on="1"/>
        <pt x="842" y="1588" on="1"/>
        <pt x="842" y="226" on="1"/>
      </contour>
      <contour>
        <pt x="284" y="368" on="1"/>
        <pt x="700" y="368" on="1"/>
        <pt x="700" y="1447" on="1"/>
        <pt x="284" y="1447" on="1"/>
      </contour>
    </TTGlyph>
    <TTGlyph name="uni06C9" xMin="142" yMin="226" xMax="842" yMax="1588">
      <contour>
        <pt x="142" y="226" on="1"/>
        <pt x="142" y="1588" on="1"/>
        <pt x="842" y="1588" on="1"/>
        <pt x="842" y="226" on="1"/>
      </contour>
      <contour>
        <pt x="284" y="368" on="1"/>
        <pt x="700" y="368" on="1"/>
        <pt x="700" y="1447" on="1"/>
        <pt x="284" y="1447" on="1"/>
      </contour>
    </TTGlyph>
    <TTGlyph name="uni06CC" xMin="142" yMin="226" xMax="842" yMax="1588">
      <contour>
        <pt x="142" y="226" on="1"/>
        <pt x="142" y="1588" on="1"/>
        <pt x="842" y="1588" on="1"/>
        <pt x="842" y="226" on="1"/>
      </contour>
      <contour>
        <pt x="284" y="368" on="1"/>
        <pt x="700" y="368" on="1"/>
        <pt x="700" y="1447" on="1"/>
        <pt x="284" y="1447" on="1"/>
      </contour>
    </TTGlyph>
    <TTGlyph name="uni06CD" xMin="142" yMin="226" xMax="842" yMax="1588">
      <contour>
        <pt x="142" y="226" on="1"/>
        <pt x="142" y="1588" on="1"/>
        <pt x="842" y="1588" on="1"/>
        <pt x="842" y="226" on="1"/>
      </contour>
      <contour>
        <pt x="284" y="368" on="1"/>
        <pt x="700" y="368" on="1"/>
        <pt x="700" y="1447" on="1"/>
        <pt x="284" y="1447" on="1"/>
      </contour>
    </TTGlyph>
    <TTGlyph name="uni06D0" xMin="142" yMin="226" xMax="842" yMax="1588">
      <contour>
        <pt x="142" y="226" on="1"/>
        <pt x="142" y="1588" on="1"/>
        <pt x="842" y="1588" on="1"/>
        <pt x="842" y="226" on="1"/>
      </contour>
      <contour>
        <pt x="284" y="368" on="1"/>
        <pt x="700" y="368" on="1"/>
        <pt x="700" y="1447" on="1"/>
        <pt x="284" y="1447" on="1"/>
      </contour>
    </TTGlyph>
    <TTGlyph name="uni06D1" xMin="142" yMin="226" xMax="842" yMax="1588">
      <contour>
        <pt x="142" y="226" on="1"/>
        <pt x="142" y="1588" on="1"/>
        <pt x="842" y="1588" on="1"/>
        <pt x="842" y="226" on="1"/>
      </contour>
      <contour>
        <pt x="284" y="368" on="1"/>
        <pt x="700" y="368" on="1"/>
        <pt x="700" y="1447" on="1"/>
        <pt x="284" y="1447" on="1"/>
      </contour>
    </TTGlyph>
    <TTGlyph name="uni06D3" xMin="142" yMin="226" xMax="842" yMax="1588">
      <contour>
        <pt x="142" y="226" on="1"/>
        <pt x="142" y="1588" on="1"/>
        <pt x="842" y="1588" on="1"/>
        <pt x="842" y="226" on="1"/>
      </contour>
      <contour>
        <pt x="284" y="368" on="1"/>
        <pt x="700" y="368" on="1"/>
        <pt x="700" y="1447" on="1"/>
        <pt x="284" y="1447" on="1"/>
      </contour>
    </TTGlyph>
    <TTGlyph name="uni06D4" xMin="142" yMin="226" xMax="842" yMax="1588">
      <contour>
        <pt x="142" y="226" on="1"/>
        <pt x="142" y="1588" on="1"/>
        <pt x="842" y="1588" on="1"/>
        <pt x="842" y="226" on="1"/>
      </contour>
      <contour>
        <pt x="284" y="368" on="1"/>
        <pt x="700" y="368" on="1"/>
        <pt x="700" y="1447" on="1"/>
        <pt x="284" y="1447" on="1"/>
      </contour>
    </TTGlyph>
    <TTGlyph name="uni06F0" xMin="142" yMin="226" xMax="842" yMax="1588">
      <contour>
        <pt x="142" y="226" on="1"/>
        <pt x="142" y="1588" on="1"/>
        <pt x="842" y="1588" on="1"/>
        <pt x="842" y="226" on="1"/>
      </contour>
      <contour>
        <pt x="284" y="368" on="1"/>
        <pt x="700" y="368" on="1"/>
        <pt x="700" y="1447" on="1"/>
        <pt x="284" y="1447" on="1"/>
      </contour>
    </TTGlyph>
    <TTGlyph name="uni06F1" xMin="142" yMin="226" xMax="842" yMax="1588">
      <contour>
        <pt x="142" y="226" on="1"/>
        <pt x="142" y="1588" on="1"/>
        <pt x="842" y="1588" on="1"/>
        <pt x="842" y="226" on="1"/>
      </contour>
      <contour>
        <pt x="284" y="368" on="1"/>
        <pt x="700" y="368" on="1"/>
        <pt x="700" y="1447" on="1"/>
        <pt x="284" y="1447" on="1"/>
      </contour>
    </TTGlyph>
    <TTGlyph name="uni06F2" xMin="142" yMin="226" xMax="842" yMax="1588">
      <contour>
        <pt x="142" y="226" on="1"/>
        <pt x="142" y="1588" on="1"/>
        <pt x="842" y="1588" on="1"/>
        <pt x="842" y="226" on="1"/>
      </contour>
      <contour>
        <pt x="284" y="368" on="1"/>
        <pt x="700" y="368" on="1"/>
        <pt x="700" y="1447" on="1"/>
        <pt x="284" y="1447" on="1"/>
      </contour>
    </TTGlyph>
    <TTGlyph name="uni06F3" xMin="142" yMin="226" xMax="842" yMax="1588">
      <contour>
        <pt x="142" y="226" on="1"/>
        <pt x="142" y="1588" on="1"/>
        <pt x="842" y="1588" on="1"/>
        <pt x="842" y="226" on="1"/>
      </contour>
      <contour>
        <pt x="284" y="368" on="1"/>
        <pt x="700" y="368" on="1"/>
        <pt x="700" y="1447" on="1"/>
        <pt x="284" y="1447" on="1"/>
      </contour>
    </TTGlyph>
    <TTGlyph name="uni06F4" xMin="142" yMin="226" xMax="842" yMax="1588">
      <contour>
        <pt x="142" y="226" on="1"/>
        <pt x="142" y="1588" on="1"/>
        <pt x="842" y="1588" on="1"/>
        <pt x="842" y="226" on="1"/>
      </contour>
      <contour>
        <pt x="284" y="368" on="1"/>
        <pt x="700" y="368" on="1"/>
        <pt x="700" y="1447" on="1"/>
        <pt x="284" y="1447" on="1"/>
      </contour>
    </TTGlyph>
    <TTGlyph name="uni06F5" xMin="142" yMin="226" xMax="842" yMax="1588">
      <contour>
        <pt x="142" y="226" on="1"/>
        <pt x="142" y="1588" on="1"/>
        <pt x="842" y="1588" on="1"/>
        <pt x="842" y="226" on="1"/>
      </contour>
      <contour>
        <pt x="284" y="368" on="1"/>
        <pt x="700" y="368" on="1"/>
        <pt x="700" y="1447" on="1"/>
        <pt x="284" y="1447" on="1"/>
      </contour>
    </TTGlyph>
    <TTGlyph name="uni06F6" xMin="142" yMin="226" xMax="842" yMax="1588">
      <contour>
        <pt x="142" y="226" on="1"/>
        <pt x="142" y="1588" on="1"/>
        <pt x="842" y="1588" on="1"/>
        <pt x="842" y="226" on="1"/>
      </contour>
      <contour>
        <pt x="284" y="368" on="1"/>
        <pt x="700" y="368" on="1"/>
        <pt x="700" y="1447" on="1"/>
        <pt x="284" y="1447" on="1"/>
      </contour>
    </TTGlyph>
    <TTGlyph name="uni06F7" xMin="142" yMin="226" xMax="842" yMax="1588">
      <contour>
        <pt x="142" y="226" on="1"/>
        <pt x="142" y="1588" on="1"/>
        <pt x="842" y="1588" on="1"/>
        <pt x="842" y="226" on="1"/>
      </contour>
      <contour>
        <pt x="284" y="368" on="1"/>
        <pt x="700" y="368" on="1"/>
        <pt x="700" y="1447" on="1"/>
        <pt x="284" y="1447" on="1"/>
      </contour>
    </TTGlyph>
    <TTGlyph name="uni06F8" xMin="142" yMin="226" xMax="842" yMax="1588">
      <contour>
        <pt x="142" y="226" on="1"/>
        <pt x="142" y="1588" on="1"/>
        <pt x="842" y="1588" on="1"/>
        <pt x="842" y="226" on="1"/>
      </contour>
      <contour>
        <pt x="284" y="368" on="1"/>
        <pt x="700" y="368" on="1"/>
        <pt x="700" y="1447" on="1"/>
        <pt x="284" y="1447" on="1"/>
      </contour>
    </TTGlyph>
    <TTGlyph name="uni06F9" xMin="142" yMin="226" xMax="842" yMax="1588">
      <contour>
        <pt x="142" y="226" on="1"/>
        <pt x="142" y="1588" on="1"/>
        <pt x="842" y="1588" on="1"/>
        <pt x="842" y="226" on="1"/>
      </contour>
      <contour>
        <pt x="284" y="368" on="1"/>
        <pt x="700" y="368" on="1"/>
        <pt x="700" y="1447" on="1"/>
        <pt x="284" y="1447" on="1"/>
      </contour>
    </TTGlyph>
    <TTGlyph name="uni2010" xMin="169" yMin="-36" xMax="1817" yMax="1796">
      <contour>
        <pt x="1621" y="1738" on="1"/>
        <pt x="1622" y="1697" on="0"/>
        <pt x="1420" y="1571" on="1"/>
        <pt x="1241" y="1460" on="0"/>
        <pt x="1155" y="1427" on="1"/>
        <pt x="1131" y="1452" on="0"/>
        <pt x="1131" y="1468" on="1"/>
        <pt x="1131" y="1520" on="0"/>
        <pt x="1174" y="1549" on="1"/>
        <pt x="1546" y="1796" on="0"/>
        <pt x="1581" y="1796" on="1"/>
        <pt x="1596" y="1796" on="0"/>
        <pt x="1618" y="1784" on="0"/>
        <pt x="1621" y="1784" on="1"/>
      </contour>
      <contour>
        <pt x="1121" y="1693" on="1"/>
        <pt x="1121" y="1646" on="0"/>
        <pt x="1081" y="1617" on="1"/>
        <pt x="1043" y="1597" on="0"/>
        <pt x="1005" y="1578" on="1"/>
        <pt x="960" y="1553" on="0"/>
        <pt x="873" y="1506" on="1"/>
        <pt x="769" y="1446" on="0"/>
        <pt x="563" y="1335" on="1"/>
        <pt x="548" y="1347" on="0"/>
        <pt x="538" y="1347" on="1"/>
        <pt x="538" y="1400" on="1"/>
        <pt x="538" y="1440" on="0"/>
        <pt x="795" y="1591" on="1"/>
        <pt x="1041" y="1735" on="0"/>
        <pt x="1055" y="1734" on="1"/>
        <pt x="1108" y="1734" on="1"/>
        <pt x="1121" y="1720" on="0"/>
      </contour>
      <contour>
        <pt x="1817" y="239" on="1"/>
        <pt x="1817" y="168" on="0"/>
        <pt x="1780" y="93" on="1"/>
        <pt x="1732" y="-6" on="0"/>
        <pt x="1648" y="-6" on="1"/>
        <pt x="1628" y="-6" on="0"/>
        <pt x="1456" y="34" on="0"/>
        <pt x="1341" y="34" on="1"/>
        <pt x="1328" y="34" on="0"/>
        <pt x="919" y="-36" on="0"/>
        <pt x="905" y="-36" on="1"/>
        <pt x="670" y="-36" on="1"/>
        <pt x="493" y="-36" on="0"/>
        <pt x="357" y="7" on="1"/>
        <pt x="283" y="30" on="0"/>
        <pt x="247" y="223" on="1"/>
        <pt x="208" y="433" on="0"/>
        <pt x="212" y="644" on="1"/>
        <pt x="217" y="840" on="0"/>
        <pt x="195" y="1012" on="1"/>
        <pt x="194" y="1022" on="0"/>
        <pt x="181" y="1068" on="1"/>
        <pt x="169" y="1111" on="0"/>
        <pt x="169" y="1125" on="1"/>
        <pt x="169" y="1135" on="0"/>
        <pt x="222" y="1242" on="1"/>
        <pt x="258" y="1242" on="1"/>
        <pt x="287" y="1216" on="0"/>
        <pt x="298" y="1157" on="1"/>
        <pt x="322" y="1028" on="0"/>
        <pt x="322" y="922" on="1"/>
        <pt x="322" y="437" on="1"/>
        <pt x="322" y="425" on="0"/>
        <pt x="330" y="407" on="1"/>
        <pt x="338" y="387" on="0"/>
        <pt x="339" y="378" on="1"/>
        <pt x="342" y="328" on="0"/>
        <pt x="344" y="279" on="1"/>
        <pt x="355" y="211" on="0"/>
        <pt x="411" y="180" on="1"/>
        <pt x="507" y="127" on="0"/>
        <pt x="629" y="127" on="1"/>
        <pt x="640" y="127" on="0"/>
        <pt x="1026" y="147" on="0"/>
        <pt x="1039" y="147" on="1"/>
        <pt x="1132" y="147" on="0"/>
        <pt x="1180" y="197" on="1"/>
        <pt x="1191" y="208" on="0"/>
        <pt x="1191" y="238" on="1"/>
        <pt x="1192" y="276" on="0"/>
        <pt x="1195" y="287" on="1"/>
        <pt x="1220" y="370" on="0"/>
        <pt x="1290" y="473" on="1"/>
        <pt x="1337" y="539" on="0"/>
        <pt x="1384" y="605" on="1"/>
        <pt x="1387" y="611" on="0"/>
        <pt x="1387" y="680" on="1"/>
        <pt x="1387" y="810" on="0"/>
        <pt x="1342" y="1042" on="1"/>
        <pt x="1340" y="1051" on="0"/>
        <pt x="1327" y="1092" on="1"/>
        <pt x="1315" y="1125" on="0"/>
        <pt x="1315" y="1145" on="1"/>
        <pt x="1315" y="1236" on="0"/>
        <pt x="1389" y="1344" on="1"/>
        <pt x="1427" y="1344" on="1"/>
        <pt x="1457" y="1285" on="0"/>
        <pt x="1461" y="1219" on="1"/>
        <pt x="1465" y="1213" on="0"/>
        <pt x="1499" y="1189" on="1"/>
        <pt x="1520" y="1173" on="0"/>
        <pt x="1520" y="1145" on="1"/>
        <pt x="1520" y="1133" on="0"/>
        <pt x="1469" y="990" on="0"/>
        <pt x="1469" y="976" on="1"/>
        <pt x="1469" y="845" on="0"/>
        <pt x="1512" y="594" on="1"/>
        <pt x="1522" y="538" on="0"/>
        <pt x="1789" y="394" on="0"/>
        <pt x="1817" y="264" on="0"/>
      </contour>
      <contour>
        <pt x="1704" y="192" on="1"/>
        <pt x="1703" y="208" on="0"/>
        <pt x="1626" y="291" on="0"/>
        <pt x="1606" y="290" on="1"/>
        <pt x="1574" y="290" on="1"/>
        <pt x="1540" y="223" on="0"/>
        <pt x="1540" y="224" on="1"/>
        <pt x="1540" y="201" on="0"/>
        <pt x="1553" y="200" on="1"/>
        <pt x="1667" y="159" on="0"/>
      </contour>
      <contour>
        <pt x="1449" y="286" on="1"/>
        <pt x="1449" y="336" on="0"/>
        <pt x="1422" y="368" on="1"/>
        <pt x="1413" y="373" on="0"/>
        <pt x="1394" y="393" on="1"/>
        <pt x="1362" y="383" on="0"/>
        <pt x="1301" y="283" on="0"/>
        <pt x="1306" y="251" on="1"/>
        <pt x="1372" y="219" on="0"/>
        <pt x="1382" y="219" on="1"/>
        <pt x="1449" y="219" on="0"/>
      </contour>
    </TTGlyph>
    <TTGlyph name="uni2011" xMin="169" yMin="-36" xMax="1817" yMax="1796">
      <contour>
        <pt x="1621" y="1738" on="1"/>
        <pt x="1622" y="1697" on="0"/>
        <pt x="1420" y="1571" on="1"/>
        <pt x="1241" y="1460" on="0"/>
        <pt x="1155" y="1427" on="1"/>
        <pt x="1131" y="1452" on="0"/>
        <pt x="1131" y="1468" on="1"/>
        <pt x="1131" y="1520" on="0"/>
        <pt x="1174" y="1549" on="1"/>
        <pt x="1546" y="1796" on="0"/>
        <pt x="1581" y="1796" on="1"/>
        <pt x="1596" y="1796" on="0"/>
        <pt x="1618" y="1784" on="0"/>
        <pt x="1621" y="1784" on="1"/>
      </contour>
      <contour>
        <pt x="1121" y="1693" on="1"/>
        <pt x="1121" y="1646" on="0"/>
        <pt x="1081" y="1617" on="1"/>
        <pt x="1043" y="1597" on="0"/>
        <pt x="1005" y="1578" on="1"/>
        <pt x="960" y="1553" on="0"/>
        <pt x="873" y="1506" on="1"/>
        <pt x="769" y="1446" on="0"/>
        <pt x="563" y="1335" on="1"/>
        <pt x="548" y="1347" on="0"/>
        <pt x="538" y="1347" on="1"/>
        <pt x="538" y="1400" on="1"/>
        <pt x="538" y="1440" on="0"/>
        <pt x="795" y="1591" on="1"/>
        <pt x="1041" y="1735" on="0"/>
        <pt x="1055" y="1734" on="1"/>
        <pt x="1108" y="1734" on="1"/>
        <pt x="1121" y="1720" on="0"/>
      </contour>
      <contour>
        <pt x="1817" y="239" on="1"/>
        <pt x="1817" y="168" on="0"/>
        <pt x="1780" y="93" on="1"/>
        <pt x="1732" y="-6" on="0"/>
        <pt x="1648" y="-6" on="1"/>
        <pt x="1628" y="-6" on="0"/>
        <pt x="1456" y="34" on="0"/>
        <pt x="1341" y="34" on="1"/>
        <pt x="1328" y="34" on="0"/>
        <pt x="919" y="-36" on="0"/>
        <pt x="905" y="-36" on="1"/>
        <pt x="670" y="-36" on="1"/>
        <pt x="493" y="-36" on="0"/>
        <pt x="357" y="7" on="1"/>
        <pt x="283" y="30" on="0"/>
        <pt x="247" y="223" on="1"/>
        <pt x="208" y="433" on="0"/>
        <pt x="212" y="644" on="1"/>
        <pt x="217" y="840" on="0"/>
        <pt x="195" y="1012" on="1"/>
        <pt x="194" y="1022" on="0"/>
        <pt x="181" y="1068" on="1"/>
        <pt x="169" y="1111" on="0"/>
        <pt x="169" y="1125" on="1"/>
        <pt x="169" y="1135" on="0"/>
        <pt x="222" y="1242" on="1"/>
        <pt x="258" y="1242" on="1"/>
        <pt x="287" y="1216" on="0"/>
        <pt x="298" y="1157" on="1"/>
        <pt x="322" y="1028" on="0"/>
        <pt x="322" y="922" on="1"/>
        <pt x="322" y="437" on="1"/>
        <pt x="322" y="425" on="0"/>
        <pt x="330" y="407" on="1"/>
        <pt x="338" y="387" on="0"/>
        <pt x="339" y="378" on="1"/>
        <pt x="342" y="328" on="0"/>
        <pt x="344" y="279" on="1"/>
        <pt x="355" y="211" on="0"/>
        <pt x="411" y="180" on="1"/>
        <pt x="507" y="127" on="0"/>
        <pt x="629" y="127" on="1"/>
        <pt x="640" y="127" on="0"/>
        <pt x="1026" y="147" on="0"/>
        <pt x="1039" y="147" on="1"/>
        <pt x="1132" y="147" on="0"/>
        <pt x="1180" y="197" on="1"/>
        <pt x="1191" y="208" on="0"/>
        <pt x="1191" y="238" on="1"/>
        <pt x="1192" y="276" on="0"/>
        <pt x="1195" y="287" on="1"/>
        <pt x="1220" y="370" on="0"/>
        <pt x="1290" y="473" on="1"/>
        <pt x="1337" y="539" on="0"/>
        <pt x="1384" y="605" on="1"/>
        <pt x="1387" y="611" on="0"/>
        <pt x="1387" y="680" on="1"/>
        <pt x="1387" y="810" on="0"/>
        <pt x="1342" y="1042" on="1"/>
        <pt x="1340" y="1051" on="0"/>
        <pt x="1327" y="1092" on="1"/>
        <pt x="1315" y="1125" on="0"/>
        <pt x="1315" y="1145" on="1"/>
        <pt x="1315" y="1236" on="0"/>
        <pt x="1389" y="1344" on="1"/>
        <pt x="1427" y="1344" on="1"/>
        <pt x="1457" y="1285" on="0"/>
        <pt x="1461" y="1219" on="1"/>
        <pt x="1465" y="1213" on="0"/>
        <pt x="1499" y="1189" on="1"/>
        <pt x="1520" y="1173" on="0"/>
        <pt x="1520" y="1145" on="1"/>
        <pt x="1520" y="1133" on="0"/>
        <pt x="1469" y="990" on="0"/>
        <pt x="1469" y="976" on="1"/>
        <pt x="1469" y="845" on="0"/>
        <pt x="1512" y="594" on="1"/>
        <pt x="1522" y="538" on="0"/>
        <pt x="1789" y="394" on="0"/>
        <pt x="1817" y="264" on="0"/>
      </contour>
      <contour>
        <pt x="1704" y="192" on="1"/>
        <pt x="1703" y="208" on="0"/>
        <pt x="1626" y="291" on="0"/>
        <pt x="1606" y="290" on="1"/>
        <pt x="1574" y="290" on="1"/>
        <pt x="1540" y="223" on="0"/>
        <pt x="1540" y="224" on="1"/>
        <pt x="1540" y="201" on="0"/>
        <pt x="1553" y="200" on="1"/>
        <pt x="1667" y="159" on="0"/>
      </contour>
      <contour>
        <pt x="1449" y="286" on="1"/>
        <pt x="1449" y="336" on="0"/>
        <pt x="1422" y="368" on="1"/>
        <pt x="1413" y="373" on="0"/>
        <pt x="1394" y="393" on="1"/>
        <pt x="1362" y="383" on="0"/>
        <pt x="1301" y="283" on="0"/>
        <pt x="1306" y="251" on="1"/>
        <pt x="1372" y="219" on="0"/>
        <pt x="1382" y="219" on="1"/>
        <pt x="1449" y="219" on="0"/>
      </contour>
    </TTGlyph>
    <TTGlyph name="uniE000" xMin="0" yMin="0" xMax="1605" yMax="1605">
      <contour>
        <pt x="0" y="1605" on="1"/>
        <pt x="1605" y="1605" on="1"/>
        <pt x="1605" y="0" on="1"/>
        <pt x="0" y="0" on="1"/>
      </contour>
    </TTGlyph>
    <TTGlyph name="uniFB51" xMin="533" yMin="-416" xMax="1995" yMax="1343">
      <contour>
        <pt x="1995" y="465" on="1"/>
        <pt x="1930" y="419" on="0"/>
        <pt x="1864" y="372" on="1"/>
        <pt x="1785" y="309" on="0"/>
        <pt x="1763" y="251" on="1"/>
        <pt x="1750" y="217" on="0"/>
        <pt x="1750" y="172" on="1"/>
        <pt x="1750" y="122" on="0"/>
        <pt x="1780" y="-16" on="1"/>
        <pt x="1750" y="-25" on="0"/>
        <pt x="1710" y="-25" on="1"/>
        <pt x="1667" y="-25" on="0"/>
        <pt x="1493" y="2" on="0"/>
        <pt x="1460" y="2" on="1"/>
        <pt x="1442" y="-15" on="0"/>
        <pt x="1435" y="-25" on="1"/>
        <pt x="1437" y="-54" on="0"/>
        <pt x="1428" y="-108" on="1"/>
        <pt x="1378" y="-211" on="0"/>
        <pt x="1287" y="-416" on="1"/>
        <pt x="1251" y="-416" on="1"/>
        <pt x="1196" y="-298" on="0"/>
        <pt x="1066" y="2" on="1"/>
        <pt x="965" y="-13" on="0"/>
        <pt x="761" y="-49" on="1"/>
        <pt x="743" y="-36" on="1"/>
        <pt x="745" y="174" on="0"/>
        <pt x="767" y="283" on="1"/>
        <pt x="711" y="347" on="0"/>
        <pt x="533" y="465" on="1"/>
        <pt x="533" y="502" on="1"/>
        <pt x="567" y="501" on="0"/>
        <pt x="644" y="574" on="1"/>
        <pt x="755" y="679" on="0"/>
        <pt x="763" y="685" on="1"/>
        <pt x="766" y="781" on="0"/>
        <pt x="758" y="973" on="1"/>
        <pt x="761" y="973" on="0"/>
        <pt x="860" y="976" on="1"/>
        <pt x="926" y="977" on="0"/>
        <pt x="969" y="974" on="1"/>
        <pt x="1027" y="969" on="0"/>
        <pt x="1067" y="954" on="1"/>
        <pt x="1129" y="1081" on="0"/>
        <pt x="1261" y="1343" on="1"/>
        <pt x="1302" y="1343" on="0"/>
        <pt x="1315" y="1309" on="1"/>
        <pt x="1382" y="1142" on="0"/>
        <pt x="1491" y="954" on="1"/>
        <pt x="1589" y="958" on="0"/>
        <pt x="1779" y="984" on="1"/>
        <pt x="1774" y="886" on="0"/>
        <pt x="1763" y="685" on="1"/>
        <pt x="1908" y="555" on="0"/>
        <pt x="1995" y="501" on="1"/>
      </contour>
      <contour>
        <pt x="1688" y="791" on="1"/>
        <pt x="1688" y="849" on="0"/>
        <pt x="1676" y="872" on="1"/>
        <pt x="1659" y="872" on="0"/>
        <pt x="1593" y="893" on="0"/>
        <pt x="1581" y="893" on="1"/>
        <pt x="1534" y="893" on="0"/>
        <pt x="1489" y="855" on="1"/>
        <pt x="1441" y="815" on="0"/>
        <pt x="1446" y="770" on="1"/>
        <pt x="1480" y="793" on="0"/>
        <pt x="1514" y="817" on="1"/>
        <pt x="1558" y="841" on="0"/>
        <pt x="1596" y="841" on="1"/>
        <pt x="1637" y="841" on="0"/>
        <pt x="1637" y="775" on="1"/>
        <pt x="1637" y="739" on="0"/>
        <pt x="1572" y="649" on="1"/>
        <pt x="1648" y="681" on="0"/>
        <pt x="1671" y="714" on="1"/>
        <pt x="1688" y="738" on="0"/>
      </contour>
      <contour>
        <pt x="1392" y="940" on="1"/>
        <pt x="1352" y="1031" on="0"/>
        <pt x="1274" y="1149" on="1"/>
        <pt x="1166" y="993" on="0"/>
        <pt x="1166" y="887" on="1"/>
        <pt x="1166" y="850" on="0"/>
        <pt x="1183" y="821" on="1"/>
        <pt x="1183" y="850" on="0"/>
        <pt x="1211" y="916" on="1"/>
        <pt x="1245" y="995" on="0"/>
        <pt x="1278" y="995" on="1"/>
        <pt x="1292" y="995" on="0"/>
        <pt x="1301" y="987" on="1"/>
        <pt x="1329" y="938" on="0"/>
        <pt x="1377" y="852" on="1"/>
      </contour>
      <contour>
        <pt x="1852" y="473" on="1"/>
        <pt x="1852" y="484" on="0"/>
        <pt x="1799" y="542" on="1"/>
        <pt x="1741" y="606" on="0"/>
        <pt x="1709" y="606" on="1"/>
        <pt x="1694" y="606" on="0"/>
        <pt x="1665" y="591" on="1"/>
        <pt x="1624" y="570" on="0"/>
        <pt x="1622" y="569" on="1"/>
        <pt x="1654" y="570" on="0"/>
        <pt x="1698" y="548" on="1"/>
        <pt x="1750" y="520" on="0"/>
        <pt x="1750" y="483" on="1"/>
        <pt x="1750" y="439" on="0"/>
        <pt x="1700" y="415" on="1"/>
        <pt x="1633" y="382" on="0"/>
        <pt x="1627" y="374" on="1"/>
        <pt x="1677" y="350" on="0"/>
        <pt x="1699" y="350" on="1"/>
        <pt x="1716" y="350" on="0"/>
        <pt x="1777" y="386" on="1"/>
        <pt x="1852" y="430" on="0"/>
      </contour>
      <contour>
        <pt x="1391" y="650" on="1"/>
        <pt x="1295" y="698" on="0"/>
        <pt x="1253" y="698" on="1"/>
        <pt x="1174" y="698" on="0"/>
        <pt x="1116" y="621" on="1"/>
        <pt x="1068" y="555" on="0"/>
        <pt x="1068" y="493" on="1"/>
        <pt x="1135" y="668" on="0"/>
        <pt x="1284" y="668" on="1"/>
        <pt x="1349" y="668" on="0"/>
      </contour>
      <contour>
        <pt x="1103" y="770" on="1"/>
        <pt x="1103" y="807" on="1"/>
        <pt x="1061" y="903" on="0"/>
        <pt x="952" y="903" on="1"/>
        <pt x="892" y="903" on="0"/>
        <pt x="849" y="860" on="0"/>
        <pt x="849" y="800" on="1"/>
        <pt x="849" y="676" on="0"/>
        <pt x="961" y="659" on="1"/>
        <pt x="920" y="720" on="0"/>
        <pt x="920" y="770" on="1"/>
        <pt x="920" y="831" on="0"/>
        <pt x="961" y="831" on="1"/>
        <pt x="1009" y="831" on="0"/>
        <pt x="1036" y="818" on="1"/>
        <pt x="1060" y="806" on="0"/>
      </contour>
      <contour>
        <pt x="1678" y="176" on="1"/>
        <pt x="1678" y="233" on="0"/>
        <pt x="1661" y="256" on="1"/>
        <pt x="1639" y="288" on="0"/>
        <pt x="1567" y="307" on="1"/>
        <pt x="1586" y="278" on="0"/>
        <pt x="1605" y="249" on="1"/>
        <pt x="1631" y="210" on="0"/>
        <pt x="1631" y="181" on="1"/>
        <pt x="1631" y="171" on="0"/>
        <pt x="1627" y="162" on="1"/>
        <pt x="1585" y="125" on="0"/>
        <pt x="1535" y="125" on="1"/>
        <pt x="1523" y="125" on="0"/>
        <pt x="1434" y="170" on="1"/>
        <pt x="1480" y="63" on="0"/>
        <pt x="1531" y="64" on="1"/>
        <pt x="1667" y="64" on="1"/>
        <pt x="1667" y="85" on="0"/>
        <pt x="1678" y="166" on="0"/>
      </contour>
      <contour>
        <pt x="1494" y="498" on="1"/>
        <pt x="1494" y="510" on="0"/>
        <pt x="1456" y="585" on="1"/>
        <pt x="1479" y="494" on="0"/>
        <pt x="1469" y="448" on="1"/>
        <pt x="1454" y="373" on="0"/>
        <pt x="1390" y="324" on="1"/>
        <pt x="1331" y="279" on="0"/>
        <pt x="1264" y="279" on="1"/>
        <pt x="1215" y="279" on="0"/>
        <pt x="1088" y="370" on="0"/>
        <pt x="1080" y="417" on="1"/>
        <pt x="1097" y="346" on="0"/>
        <pt x="1160" y="299" on="1"/>
        <pt x="1215" y="258" on="0"/>
        <pt x="1274" y="258" on="1"/>
        <pt x="1375" y="258" on="0"/>
        <pt x="1436" y="328" on="1"/>
        <pt x="1494" y="395" on="0"/>
      </contour>
      <contour>
        <pt x="1078" y="444" on="1"/>
        <pt x="1078" y="471" on="1"/>
        <pt x="1060" y="471" on="1"/>
        <pt x="1060" y="444" on="1"/>
      </contour>
      <contour>
        <pt x="931" y="396" on="1"/>
        <pt x="889" y="406" on="0"/>
        <pt x="848" y="416" on="1"/>
        <pt x="788" y="437" on="0"/>
        <pt x="788" y="483" on="1"/>
        <pt x="788" y="518" on="0"/>
        <pt x="841" y="548" on="1"/>
        <pt x="884" y="572" on="0"/>
        <pt x="910" y="573" on="1"/>
        <pt x="853" y="616" on="0"/>
        <pt x="829" y="616" on="1"/>
        <pt x="807" y="616" on="0"/>
        <pt x="749" y="573" on="1"/>
        <pt x="685" y="524" on="0"/>
        <pt x="685" y="488" on="1"/>
        <pt x="685" y="461" on="0"/>
        <pt x="812" y="350" on="0"/>
        <pt x="839" y="350" on="1"/>
        <pt x="857" y="350" on="0"/>
      </contour>
      <contour>
        <pt x="1392" y="63" on="1"/>
        <pt x="1392" y="101" on="0"/>
        <pt x="1354" y="129" on="1"/>
        <pt x="1353" y="105" on="0"/>
        <pt x="1347" y="60" on="1"/>
        <pt x="1339" y="45" on="0"/>
        <pt x="1323" y="20" on="1"/>
        <pt x="1316" y="-12" on="0"/>
        <pt x="1309" y="-27" on="1"/>
        <pt x="1297" y="-52" on="0"/>
        <pt x="1275" y="-59" on="1"/>
        <pt x="1182" y="39" on="0"/>
        <pt x="1182" y="137" on="1"/>
        <pt x="1182" y="146" on="0"/>
        <pt x="1183" y="156" on="1"/>
        <pt x="1180" y="147" on="0"/>
        <pt x="1161" y="103" on="1"/>
        <pt x="1146" y="70" on="0"/>
        <pt x="1146" y="58" on="1"/>
        <pt x="1146" y="31" on="0"/>
        <pt x="1201" y="-77" on="1"/>
        <pt x="1253" y="-177" on="0"/>
        <pt x="1274" y="-203" on="1"/>
        <pt x="1392" y="31" on="0"/>
      </contour>
      <contour>
        <pt x="1091" y="196" on="1"/>
        <pt x="1030" y="135" on="0"/>
        <pt x="997" y="135" on="1"/>
        <pt x="900" y="135" on="0"/>
        <pt x="900" y="202" on="1"/>
        <pt x="900" y="218" on="0"/>
        <pt x="951" y="297" on="1"/>
        <pt x="904" y="297" on="1"/>
        <pt x="829" y="266" on="0"/>
        <pt x="829" y="165" on="1"/>
        <pt x="829" y="109" on="0"/>
        <pt x="841" y="75" on="1"/>
        <pt x="857" y="75" on="0"/>
        <pt x="925" y="63" on="0"/>
        <pt x="936" y="63" on="1"/>
        <pt x="987" y="63" on="0"/>
        <pt x="1035" y="93" on="1"/>
        <pt x="1093" y="129" on="0"/>
        <pt x="1093" y="181" on="1"/>
        <pt x="1093" y="188" on="0"/>
      </contour>
    </TTGlyph>
    <TTGlyph name="uniFB52" xMin="321" yMin="-413" xMax="2553" yMax="1357">
      <contour>
        <pt x="2553" y="1239" on="1"/>
        <pt x="2553" y="1181" on="0"/>
        <pt x="2343" y="1078" on="1"/>
        <pt x="2192" y="1004" on="0"/>
        <pt x="2108" y="979" on="1"/>
        <pt x="2093" y="990" on="0"/>
        <pt x="2083" y="990" on="1"/>
        <pt x="2083" y="1034" on="1"/>
        <pt x="2082" y="1085" on="0"/>
        <pt x="2239" y="1155" on="1"/>
        <pt x="2332" y="1200" on="0"/>
        <pt x="2518" y="1285" on="1"/>
        <pt x="2553" y="1251" on="0"/>
      </contour>
      <contour>
        <pt x="1867" y="1316" on="1"/>
        <pt x="1867" y="1272" on="0"/>
        <pt x="1840" y="1258" on="1"/>
        <pt x="1590" y="1129" on="0"/>
        <pt x="1341" y="1020" on="1"/>
        <pt x="1306" y="1020" on="1"/>
        <pt x="1293" y="1033" on="0"/>
        <pt x="1293" y="1055" on="1"/>
        <pt x="1293" y="1107" on="0"/>
        <pt x="1347" y="1138" on="1"/>
        <pt x="1423" y="1166" on="0"/>
        <pt x="1563" y="1226" on="1"/>
        <pt x="1592" y="1240" on="0"/>
        <pt x="1701" y="1306" on="1"/>
        <pt x="1787" y="1357" on="0"/>
        <pt x="1802" y="1357" on="1"/>
        <pt x="1854" y="1357" on="1"/>
        <pt x="1867" y="1343" on="0"/>
      </contour>
      <contour>
        <pt x="2543" y="160" on="1"/>
        <pt x="2543" y="-15" on="0"/>
        <pt x="2404" y="-206" on="1"/>
        <pt x="2253" y="-413" on="0"/>
        <pt x="2076" y="-413" on="1"/>
        <pt x="1925" y="-413" on="1"/>
        <pt x="1696" y="-413" on="0"/>
        <pt x="1592" y="-329" on="1"/>
        <pt x="1592" y="-292" on="1"/>
        <pt x="1600" y="-290" on="0"/>
        <pt x="1613" y="-290" on="1"/>
        <pt x="1646" y="-290" on="0"/>
        <pt x="1838" y="-321" on="0"/>
        <pt x="1867" y="-321" on="1"/>
        <pt x="2028" y="-321" on="0"/>
        <pt x="2184" y="-223" on="1"/>
        <pt x="2349" y="-118" on="0"/>
        <pt x="2430" y="52" on="1"/>
        <pt x="2423" y="88" on="1"/>
        <pt x="2358" y="30" on="0"/>
        <pt x="2337" y="20" on="1"/>
        <pt x="2329" y="16" on="0"/>
        <pt x="2297" y="16" on="1"/>
        <pt x="2218" y="16" on="0"/>
        <pt x="2176" y="91" on="1"/>
        <pt x="2144" y="147" on="0"/>
        <pt x="2144" y="216" on="1"/>
        <pt x="2144" y="279" on="0"/>
        <pt x="2190" y="364" on="1"/>
        <pt x="2245" y="467" on="0"/>
        <pt x="2317" y="467" on="1"/>
        <pt x="2386" y="467" on="0"/>
        <pt x="2469" y="332" on="1"/>
        <pt x="2543" y="211" on="0"/>
      </contour>
      <contour>
        <pt x="853" y="528" on="1"/>
        <pt x="853" y="500" on="0"/>
        <pt x="813" y="461" on="1"/>
        <pt x="776" y="426" on="0"/>
        <pt x="762" y="426" on="1"/>
        <pt x="729" y="426" on="0"/>
        <pt x="639" y="488" on="1"/>
        <pt x="636" y="537" on="0"/>
        <pt x="698" y="631" on="0"/>
        <pt x="731" y="631" on="1"/>
        <pt x="777" y="631" on="0"/>
        <pt x="818" y="590" on="1"/>
        <pt x="853" y="555" on="0"/>
      </contour>
      <contour>
        <pt x="1857" y="298" on="1"/>
        <pt x="1857" y="210" on="0"/>
        <pt x="1792" y="129" on="1"/>
        <pt x="1663" y="127" on="0"/>
        <pt x="1604" y="152" on="1"/>
        <pt x="1592" y="157" on="0"/>
        <pt x="1555" y="187" on="1"/>
        <pt x="1523" y="211" on="0"/>
        <pt x="1509" y="211" on="1"/>
        <pt x="1497" y="211" on="0"/>
        <pt x="1465" y="173" on="1"/>
        <pt x="1426" y="127" on="0"/>
        <pt x="1404" y="111" on="1"/>
        <pt x="1353" y="90" on="0"/>
        <pt x="1254" y="48" on="1"/>
        <pt x="1246" y="3" on="0"/>
        <pt x="1229" y="-81" on="1"/>
        <pt x="1205" y="-184" on="0"/>
        <pt x="1166" y="-227" on="1"/>
        <pt x="1090" y="-312" on="0"/>
        <pt x="953" y="-359" on="1"/>
        <pt x="885" y="-383" on="0"/>
        <pt x="731" y="-383" on="1"/>
        <pt x="567" y="-383" on="0"/>
        <pt x="457" y="-319" on="1"/>
        <pt x="321" y="-240" on="0"/>
        <pt x="321" y="-86" on="1"/>
        <pt x="321" y="-19" on="0"/>
        <pt x="378" y="83" on="1"/>
        <pt x="440" y="193" on="0"/>
        <pt x="509" y="230" on="1"/>
        <pt x="545" y="230" on="1"/>
        <pt x="545" y="174" on="1"/>
        <pt x="546" y="160" on="0"/>
        <pt x="531" y="141" on="1"/>
        <pt x="509" y="113" on="0"/>
        <pt x="507" y="111" on="1"/>
        <pt x="455" y="16" on="0"/>
        <pt x="455" y="-40" on="1"/>
        <pt x="455" y="-128" on="0"/>
        <pt x="565" y="-179" on="1"/>
        <pt x="654" y="-219" on="0"/>
        <pt x="756" y="-219" on="1"/>
        <pt x="880" y="-219" on="0"/>
        <pt x="985" y="-182" on="1"/>
        <pt x="1130" y="-131" on="0"/>
        <pt x="1130" y="-35" on="1"/>
        <pt x="1130" y="20" on="0"/>
        <pt x="1096" y="91" on="1"/>
        <pt x="1091" y="102" on="0"/>
        <pt x="1049" y="160" on="1"/>
        <pt x="1017" y="206" on="0"/>
        <pt x="1017" y="226" on="1"/>
        <pt x="1017" y="271" on="0"/>
        <pt x="1073" y="354" on="1"/>
        <pt x="1108" y="318" on="0"/>
        <pt x="1169" y="261" on="1"/>
        <pt x="1218" y="221" on="0"/>
        <pt x="1288" y="221" on="1"/>
        <pt x="1372" y="221" on="0"/>
        <pt x="1463" y="316" on="1"/>
        <pt x="1535" y="406" on="0"/>
        <pt x="1606" y="494" on="1"/>
        <pt x="1684" y="590" on="0"/>
        <pt x="1734" y="590" on="1"/>
        <pt x="1783" y="590" on="0"/>
        <pt x="1824" y="455" on="1"/>
        <pt x="1857" y="348" on="0"/>
      </contour>
      <contour>
        <pt x="2349" y="235" on="1"/>
        <pt x="2325" y="283" on="0"/>
        <pt x="2292" y="283" on="1"/>
        <pt x="2270" y="283" on="0"/>
        <pt x="2246" y="236" on="1"/>
        <pt x="2281" y="201" on="0"/>
        <pt x="2308" y="201" on="1"/>
        <pt x="2325" y="201" on="0"/>
        <pt x="2335" y="215" on="1"/>
        <pt x="2341" y="225" on="0"/>
      </contour>
      <contour>
        <pt x="1713" y="315" on="1"/>
        <pt x="1713" y="370" on="1"/>
        <pt x="1697" y="405" on="0"/>
        <pt x="1665" y="405" on="1"/>
        <pt x="1654" y="393" on="0"/>
        <pt x="1624" y="351" on="0"/>
        <pt x="1621" y="348" on="1"/>
        <pt x="1671" y="317" on="0"/>
      </contour>
    </TTGlyph>
    <TTGlyph name="uniFB53" xMin="325" yMin="-405" xMax="3386" yMax="1622">
      <contour>
        <pt x="3386" y="1479" on="1"/>
        <pt x="3386" y="1414" on="0"/>
        <pt x="3304" y="1374" on="1"/>
        <pt x="3241" y="1348" on="0"/>
        <pt x="3179" y="1321" on="1"/>
        <pt x="3131" y="1293" on="0"/>
        <pt x="2878" y="1192" on="1"/>
        <pt x="2864" y="1206" on="0"/>
        <pt x="2864" y="1222" on="1"/>
        <pt x="2864" y="1273" on="0"/>
        <pt x="2890" y="1289" on="1"/>
        <pt x="2985" y="1350" on="0"/>
        <pt x="3151" y="1431" on="1"/>
        <pt x="3310" y="1509" on="0"/>
        <pt x="3331" y="1509" on="1"/>
        <pt x="3373" y="1509" on="1"/>
        <pt x="3386" y="1495" on="0"/>
      </contour>
      <contour>
        <pt x="2731" y="1432" on="1"/>
        <pt x="2731" y="1372" on="0"/>
        <pt x="2575" y="1307" on="1"/>
        <pt x="2445" y="1253" on="0"/>
        <pt x="2403" y="1253" on="1"/>
        <pt x="2389" y="1253" on="0"/>
        <pt x="2343" y="1276" on="1"/>
        <pt x="2343" y="1312" on="1"/>
        <pt x="2389" y="1337" on="0"/>
        <pt x="2475" y="1393" on="1"/>
        <pt x="2466" y="1417" on="0"/>
        <pt x="2434" y="1417" on="1"/>
        <pt x="2420" y="1417" on="0"/>
        <pt x="2375" y="1400" on="1"/>
        <pt x="2321" y="1380" on="0"/>
        <pt x="2305" y="1376" on="1"/>
        <pt x="2291" y="1390" on="0"/>
        <pt x="2291" y="1407" on="1"/>
        <pt x="2291" y="1458" on="0"/>
        <pt x="2375" y="1503" on="1"/>
        <pt x="2442" y="1540" on="0"/>
        <pt x="2475" y="1540" on="1"/>
        <pt x="2486" y="1540" on="0"/>
        <pt x="2568" y="1512" on="1"/>
        <pt x="2659" y="1481" on="0"/>
        <pt x="2697" y="1474" on="1"/>
        <pt x="2731" y="1453" on="0"/>
      </contour>
      <contour>
        <pt x="2680" y="915" on="1"/>
        <pt x="2680" y="886" on="0"/>
        <pt x="2638" y="848" on="1"/>
        <pt x="2597" y="813" on="0"/>
        <pt x="2578" y="813" on="1"/>
        <pt x="2567" y="813" on="0"/>
        <pt x="2509" y="844" on="0"/>
        <pt x="2496" y="844" on="1"/>
        <pt x="2483" y="844" on="0"/>
        <pt x="2406" y="772" on="0"/>
        <pt x="2393" y="772" on="1"/>
        <pt x="2368" y="772" on="0"/>
        <pt x="2280" y="844" on="0"/>
        <pt x="2280" y="864" on="1"/>
        <pt x="2280" y="890" on="0"/>
        <pt x="2353" y="976" on="0"/>
        <pt x="2373" y="976" on="1"/>
        <pt x="2385" y="976" on="0"/>
        <pt x="2442" y="946" on="0"/>
        <pt x="2455" y="946" on="1"/>
        <pt x="2467" y="946" on="0"/>
        <pt x="2554" y="1008" on="0"/>
        <pt x="2567" y="1008" on="1"/>
        <pt x="2594" y="1008" on="0"/>
        <pt x="2680" y="941" on="0"/>
      </contour>
      <contour>
        <pt x="2086" y="1284" on="1"/>
        <pt x="2086" y="1266" on="0"/>
        <pt x="2043" y="1212" on="0"/>
        <pt x="2025" y="1212" on="1"/>
        <pt x="2012" y="1212" on="0"/>
        <pt x="1925" y="1274" on="0"/>
        <pt x="1912" y="1274" on="1"/>
        <pt x="1900" y="1274" on="0"/>
        <pt x="1881" y="1248" on="1"/>
        <pt x="1853" y="1213" on="0"/>
        <pt x="1845" y="1206" on="1"/>
        <pt x="1768" y="1136" on="0"/>
        <pt x="1657" y="1100" on="1"/>
        <pt x="1629" y="1090" on="0"/>
        <pt x="1487" y="1058" on="1"/>
        <pt x="1431" y="1072" on="1"/>
        <pt x="1456" y="1114" on="0"/>
        <pt x="1569" y="1165" on="1"/>
        <pt x="1707" y="1228" on="0"/>
        <pt x="1800" y="1311" on="1"/>
        <pt x="1789" y="1334" on="0"/>
        <pt x="1738" y="1366" on="1"/>
        <pt x="1697" y="1393" on="0"/>
        <pt x="1697" y="1432" on="1"/>
        <pt x="1697" y="1479" on="0"/>
        <pt x="1760" y="1549" on="1"/>
        <pt x="1826" y="1622" on="0"/>
        <pt x="1876" y="1622" on="1"/>
        <pt x="1934" y="1622" on="0"/>
        <pt x="1950" y="1570" on="1"/>
        <pt x="1958" y="1546" on="0"/>
        <pt x="1958" y="1471" on="1"/>
        <pt x="1958" y="1430" on="0"/>
        <pt x="1965" y="1414" on="1"/>
        <pt x="1970" y="1402" on="0"/>
        <pt x="2031" y="1357" on="1"/>
        <pt x="2086" y="1316" on="0"/>
      </contour>
      <contour>
        <pt x="3263" y="-267" on="1"/>
        <pt x="3187" y="-385" on="0"/>
        <pt x="3156" y="-385" on="1"/>
        <pt x="3145" y="-385" on="0"/>
        <pt x="3087" y="-354" on="0"/>
        <pt x="3074" y="-354" on="1"/>
        <pt x="3061" y="-354" on="0"/>
        <pt x="2984" y="-405" on="0"/>
        <pt x="2972" y="-405" on="1"/>
        <pt x="2939" y="-405" on="0"/>
        <pt x="2854" y="-339" on="0"/>
        <pt x="2854" y="-318" on="1"/>
        <pt x="2854" y="-288" on="0"/>
        <pt x="2898" y="-243" on="1"/>
        <pt x="2939" y="-200" on="0"/>
        <pt x="2956" y="-200" on="1"/>
        <pt x="2969" y="-200" on="0"/>
        <pt x="3036" y="-241" on="0"/>
        <pt x="3048" y="-241" on="1"/>
        <pt x="3061" y="-241" on="0"/>
        <pt x="3127" y="-180" on="0"/>
        <pt x="3141" y="-180" on="1"/>
        <pt x="3177" y="-180" on="0"/>
      </contour>
      <contour>
        <pt x="1984" y="633" on="1"/>
        <pt x="1984" y="606" on="0"/>
        <pt x="1919" y="526" on="0"/>
        <pt x="1891" y="526" on="1"/>
        <pt x="1867" y="526" on="0"/>
        <pt x="1779" y="595" on="0"/>
        <pt x="1779" y="618" on="1"/>
        <pt x="1779" y="645" on="0"/>
        <pt x="1862" y="721" on="0"/>
        <pt x="1886" y="721" on="1"/>
        <pt x="1920" y="721" on="0"/>
        <pt x="1954" y="686" on="1"/>
        <pt x="1984" y="655" on="0"/>
      </contour>
      <contour>
        <pt x="1276" y="1297" on="1"/>
        <pt x="1222" y="1246" on="0"/>
        <pt x="1128" y="1200" on="1"/>
        <pt x="1025" y="1151" on="0"/>
        <pt x="955" y="1151" on="1"/>
        <pt x="888" y="1151" on="0"/>
        <pt x="857" y="1208" on="1"/>
        <pt x="919" y="1229" on="0"/>
        <pt x="1032" y="1290" on="1"/>
        <pt x="1021" y="1315" on="0"/>
        <pt x="970" y="1315" on="1"/>
        <pt x="943" y="1315" on="0"/>
        <pt x="841" y="1263" on="1"/>
        <pt x="840" y="1264" on="0"/>
        <pt x="820" y="1273" on="1"/>
        <pt x="806" y="1279" on="0"/>
        <pt x="806" y="1294" on="1"/>
        <pt x="806" y="1346" on="0"/>
        <pt x="899" y="1401" on="1"/>
        <pt x="980" y="1448" on="0"/>
        <pt x="1016" y="1448" on="1"/>
        <pt x="1052" y="1448" on="0"/>
        <pt x="1276" y="1363" on="1"/>
      </contour>
      <contour>
        <pt x="3182" y="260" on="1"/>
        <pt x="3182" y="206" on="0"/>
        <pt x="3144" y="124" on="1"/>
        <pt x="3111" y="52" on="0"/>
        <pt x="3094" y="39" on="1"/>
        <pt x="3049" y="2" on="0"/>
        <pt x="2972" y="-4" on="1"/>
        <pt x="2811" y="-16" on="0"/>
        <pt x="2762" y="-16" on="1"/>
        <pt x="2749" y="-16" on="0"/>
        <pt x="2498" y="66" on="0"/>
        <pt x="2485" y="66" on="1"/>
        <pt x="2472" y="66" on="0"/>
        <pt x="2457" y="54" on="1"/>
        <pt x="2439" y="40" on="0"/>
        <pt x="2430" y="38" on="1"/>
        <pt x="2295" y="-6" on="0"/>
        <pt x="2209" y="-6" on="1"/>
        <pt x="2046" y="-6" on="0"/>
        <pt x="1927" y="116" on="1"/>
        <pt x="1877" y="73" on="0"/>
        <pt x="1829" y="29" on="1"/>
        <pt x="1764" y="-27" on="0"/>
        <pt x="1718" y="-27" on="1"/>
        <pt x="1670" y="-27" on="0"/>
        <pt x="1573" y="86" on="0"/>
        <pt x="1548" y="86" on="1"/>
        <pt x="1537" y="86" on="0"/>
        <pt x="1489" y="54" on="1"/>
        <pt x="1433" y="17" on="0"/>
        <pt x="1407" y="7" on="1"/>
        <pt x="1297" y="-36" on="0"/>
        <pt x="1115" y="-68" on="1"/>
        <pt x="944" y="-98" on="0"/>
        <pt x="832" y="-98" on="1"/>
        <pt x="686" y="-98" on="0"/>
        <pt x="532" y="-38" on="1"/>
        <pt x="325" y="43" on="0"/>
        <pt x="325" y="184" on="1"/>
        <pt x="325" y="324" on="0"/>
        <pt x="472" y="433" on="1"/>
        <pt x="507" y="433" on="1"/>
        <pt x="519" y="433" on="0"/>
        <pt x="519" y="408" on="1"/>
        <pt x="519" y="396" on="0"/>
        <pt x="448" y="257" on="0"/>
        <pt x="448" y="245" on="1"/>
        <pt x="448" y="228" on="0"/>
        <pt x="509" y="162" on="0"/>
        <pt x="537" y="149" on="1"/>
        <pt x="640" y="102" on="0"/>
        <pt x="731" y="88" on="1"/>
        <pt x="885" y="66" on="0"/>
        <pt x="949" y="66" on="1"/>
        <pt x="996" y="66" on="1"/>
        <pt x="1050" y="66" on="0"/>
        <pt x="1246" y="118" on="1"/>
        <pt x="1422" y="165" on="0"/>
        <pt x="1454" y="180" on="1"/>
        <pt x="1481" y="193" on="0"/>
        <pt x="1527" y="240" on="1"/>
        <pt x="1583" y="299" on="0"/>
        <pt x="1599" y="311" on="1"/>
        <pt x="1634" y="292" on="0"/>
        <pt x="1634" y="258" on="1"/>
        <pt x="1634" y="241" on="0"/>
        <pt x="1614" y="182" on="0"/>
        <pt x="1614" y="174" on="1"/>
        <pt x="1697" y="127" on="0"/>
        <pt x="1759" y="127" on="1"/>
        <pt x="1771" y="127" on="0"/>
        <pt x="1961" y="291" on="0"/>
        <pt x="1973" y="291" on="1"/>
        <pt x="1986" y="291" on="0"/>
        <pt x="2035" y="248" on="1"/>
        <pt x="2094" y="200" on="0"/>
        <pt x="2114" y="190" on="1"/>
        <pt x="2159" y="168" on="0"/>
        <pt x="2244" y="168" on="1"/>
        <pt x="2348" y="168" on="0"/>
        <pt x="2369" y="205" on="1"/>
        <pt x="2367" y="216" on="0"/>
        <pt x="2367" y="229" on="1"/>
        <pt x="2367" y="346" on="0"/>
        <pt x="2560" y="618" on="0"/>
        <pt x="2639" y="618" on="1"/>
        <pt x="2707" y="618" on="0"/>
        <pt x="2745" y="524" on="1"/>
        <pt x="2772" y="459" on="0"/>
        <pt x="2772" y="403" on="1"/>
        <pt x="2772" y="325" on="0"/>
        <pt x="2700" y="185" on="1"/>
        <pt x="2788" y="168" on="0"/>
        <pt x="2859" y="168" on="1"/>
        <pt x="2939" y="168" on="0"/>
        <pt x="2953" y="170" on="1"/>
        <pt x="3002" y="177" on="0"/>
        <pt x="3069" y="215" on="1"/>
        <pt x="3069" y="254" on="0"/>
        <pt x="3055" y="294" on="1"/>
        <pt x="3046" y="320" on="0"/>
        <pt x="3004" y="387" on="1"/>
        <pt x="2966" y="446" on="0"/>
        <pt x="2966" y="460" on="1"/>
        <pt x="2966" y="490" on="0"/>
        <pt x="3010" y="577" on="1"/>
        <pt x="3046" y="577" on="1"/>
        <pt x="3182" y="402" on="0"/>
      </contour>
      <contour>
        <pt x="1154" y="592" on="1"/>
        <pt x="1154" y="551" on="0"/>
        <pt x="1129" y="519" on="1"/>
        <pt x="1102" y="485" on="0"/>
        <pt x="1062" y="485" on="1"/>
        <pt x="1049" y="485" on="0"/>
        <pt x="988" y="516" on="0"/>
        <pt x="975" y="516" on="1"/>
        <pt x="966" y="516" on="0"/>
        <pt x="901" y="455" on="0"/>
        <pt x="867" y="455" on="1"/>
        <pt x="831" y="455" on="0"/>
        <pt x="765" y="500" on="0"/>
        <pt x="765" y="526" on="1"/>
        <pt x="765" y="553" on="0"/>
        <pt x="835" y="639" on="0"/>
        <pt x="862" y="639" on="1"/>
        <pt x="873" y="639" on="0"/>
        <pt x="926" y="608" on="0"/>
        <pt x="939" y="608" on="1"/>
        <pt x="952" y="608" on="0"/>
        <pt x="1039" y="680" on="0"/>
        <pt x="1052" y="680" on="1"/>
        <pt x="1083" y="680" on="0"/>
        <pt x="1120" y="646" on="1"/>
        <pt x="1154" y="615" on="0"/>
      </contour>
      <contour>
        <pt x="1863" y="1475" on="1"/>
        <pt x="1848" y="1491" on="1"/>
        <pt x="1838" y="1480" on="1"/>
        <pt x="1852" y="1466" on="1"/>
      </contour>
      <contour>
        <pt x="2659" y="324" on="1"/>
        <pt x="2651" y="357" on="0"/>
        <pt x="2643" y="392" on="1"/>
        <pt x="2628" y="434" on="0"/>
        <pt x="2593" y="434" on="1"/>
        <pt x="2575" y="434" on="0"/>
        <pt x="2475" y="329" on="0"/>
        <pt x="2475" y="311" on="1"/>
        <pt x="2475" y="294" on="0"/>
        <pt x="2516" y="250" on="0"/>
        <pt x="2531" y="250" on="1"/>
        <pt x="2561" y="250" on="0"/>
      </contour>
    </TTGlyph>
    <TTGlyph name="uniFB54" xMin="224" yMin="-487" xMax="3665" yMax="1898">
      <contour>
        <pt x="2702" y="572" on="1"/>
        <pt x="2702" y="528" on="0"/>
        <pt x="2661" y="498" on="1"/>
        <pt x="2629" y="475" on="0"/>
        <pt x="2610" y="475" on="1"/>
        <pt x="2560" y="475" on="0"/>
        <pt x="2530" y="509" on="1"/>
        <pt x="2508" y="535" on="0"/>
        <pt x="2508" y="567" on="1"/>
        <pt x="2508" y="591" on="0"/>
        <pt x="2533" y="627" on="1"/>
        <pt x="2562" y="669" on="0"/>
        <pt x="2595" y="669" on="1"/>
        <pt x="2631" y="669" on="0"/>
        <pt x="2668" y="629" on="1"/>
        <pt x="2702" y="593" on="0"/>
      </contour>
      <contour>
        <pt x="3665" y="-216" on="1"/>
        <pt x="3665" y="-235" on="0"/>
        <pt x="3652" y="-262" on="1"/>
        <pt x="3637" y="-294" on="0"/>
        <pt x="3620" y="-300" on="1"/>
        <pt x="3136" y="-487" on="0"/>
        <pt x="3137" y="-487" on="1"/>
        <pt x="3113" y="-487" on="0"/>
        <pt x="3092" y="-475" on="1"/>
        <pt x="3092" y="-471" on="0"/>
        <pt x="3081" y="-461" on="0"/>
        <pt x="3081" y="-446" on="1"/>
        <pt x="3081" y="-403" on="0"/>
        <pt x="3127" y="-379" on="1"/>
        <pt x="3235" y="-322" on="0"/>
        <pt x="3427" y="-249" on="1"/>
        <pt x="3606" y="-180" on="0"/>
        <pt x="3629" y="-180" on="1"/>
        <pt x="3665" y="-180" on="0"/>
      </contour>
      <contour>
        <pt x="1412" y="1555" on="1"/>
        <pt x="1412" y="1484" on="0"/>
        <pt x="1365" y="1479" on="1"/>
        <pt x="1354" y="1482" on="0"/>
        <pt x="1310" y="1508" on="1"/>
        <pt x="1273" y="1529" on="0"/>
        <pt x="1259" y="1529" on="1"/>
        <pt x="1246" y="1529" on="0"/>
        <pt x="1178" y="1473" on="1"/>
        <pt x="1097" y="1405" on="0"/>
        <pt x="1072" y="1389" on="1"/>
        <pt x="987" y="1337" on="0"/>
        <pt x="927" y="1325" on="1"/>
        <pt x="875" y="1315" on="0"/>
        <pt x="824" y="1304" on="1"/>
        <pt x="800" y="1304" on="0"/>
        <pt x="758" y="1318" on="0"/>
        <pt x="757" y="1318" on="1"/>
        <pt x="793" y="1347" on="0"/>
        <pt x="936" y="1432" on="1"/>
        <pt x="1065" y="1510" on="0"/>
        <pt x="1126" y="1567" on="1"/>
        <pt x="1122" y="1581" on="0"/>
        <pt x="1023" y="1670" on="0"/>
        <pt x="1023" y="1683" on="1"/>
        <pt x="1023" y="1730" on="0"/>
        <pt x="1087" y="1812" on="1"/>
        <pt x="1155" y="1898" on="0"/>
        <pt x="1207" y="1898" on="1"/>
        <pt x="1288" y="1898" on="0"/>
        <pt x="1288" y="1757" on="1"/>
        <pt x="1288" y="1704" on="0"/>
        <pt x="1282" y="1688" on="1"/>
        <pt x="1286" y="1669" on="0"/>
        <pt x="1350" y="1633" on="1"/>
        <pt x="1412" y="1598" on="0"/>
      </contour>
      <contour>
        <pt x="3501" y="239" on="1"/>
        <pt x="3501" y="66" on="0"/>
        <pt x="3367" y="66" on="1"/>
        <pt x="3287" y="66" on="0"/>
        <pt x="3128" y="138" on="1"/>
        <pt x="3040" y="14" on="0"/>
        <pt x="2922" y="14" on="1"/>
        <pt x="2877" y="14" on="0"/>
        <pt x="2713" y="96" on="0"/>
        <pt x="2713" y="96" on="1"/>
        <pt x="2700" y="96" on="0"/>
        <pt x="2652" y="62" on="1"/>
        <pt x="2591" y="20" on="0"/>
        <pt x="2566" y="7" on="1"/>
        <pt x="2499" y="-27" on="0"/>
        <pt x="2338" y="-27" on="1"/>
        <pt x="2235" y="-27" on="0"/>
        <pt x="2008" y="144" on="1"/>
        <pt x="1890" y="233" on="0"/>
        <pt x="1573" y="415" on="1"/>
        <pt x="1573" y="392" on="0"/>
        <pt x="1596" y="267" on="0"/>
        <pt x="1596" y="255" on="1"/>
        <pt x="1596" y="161" on="0"/>
        <pt x="1561" y="109" on="1"/>
        <pt x="1513" y="38" on="0"/>
        <pt x="1400" y="9" on="1"/>
        <pt x="1354" y="-3" on="0"/>
        <pt x="1205" y="-19" on="1"/>
        <pt x="1182" y="-81" on="0"/>
        <pt x="1179" y="-113" on="1"/>
        <pt x="1167" y="-286" on="0"/>
        <pt x="983" y="-396" on="1"/>
        <pt x="833" y="-487" on="0"/>
        <pt x="685" y="-487" on="1"/>
        <pt x="551" y="-487" on="0"/>
        <pt x="436" y="-399" on="1"/>
        <pt x="317" y="-307" on="0"/>
        <pt x="317" y="-185" on="1"/>
        <pt x="317" y="-131" on="0"/>
        <pt x="362" y="-36" on="1"/>
        <pt x="411" y="66" on="0"/>
        <pt x="466" y="106" on="1"/>
        <pt x="476" y="100" on="0"/>
        <pt x="487" y="94" on="1"/>
        <pt x="501" y="86" on="0"/>
        <pt x="501" y="70" on="1"/>
        <pt x="501" y="60" on="0"/>
        <pt x="464" y="9" on="0"/>
        <pt x="462" y="-1" on="1"/>
        <pt x="461" y="-17" on="0"/>
        <pt x="449" y="-63" on="1"/>
        <pt x="439" y="-103" on="0"/>
        <pt x="439" y="-118" on="1"/>
        <pt x="439" y="-226" on="0"/>
        <pt x="560" y="-279" on="1"/>
        <pt x="639" y="-313" on="0"/>
        <pt x="721" y="-313" on="1"/>
        <pt x="806" y="-313" on="0"/>
        <pt x="924" y="-264" on="1"/>
        <pt x="1074" y="-200" on="0"/>
        <pt x="1074" y="-108" on="1"/>
        <pt x="1074" y="-58" on="0"/>
        <pt x="1060" y="-34" on="1"/>
        <pt x="1024" y="20" on="0"/>
        <pt x="987" y="74" on="1"/>
        <pt x="941" y="143" on="0"/>
        <pt x="941" y="184" on="1"/>
        <pt x="941" y="260" on="0"/>
        <pt x="997" y="291" on="1"/>
        <pt x="1041" y="261" on="0"/>
        <pt x="1099" y="189" on="1"/>
        <pt x="1125" y="157" on="0"/>
        <pt x="1209" y="157" on="1"/>
        <pt x="1293" y="157" on="1"/>
        <pt x="1332" y="157" on="0"/>
        <pt x="1391" y="179" on="1"/>
        <pt x="1454" y="204" on="0"/>
        <pt x="1484" y="234" on="1"/>
        <pt x="1450" y="374" on="0"/>
        <pt x="1178" y="574" on="1"/>
        <pt x="1014" y="696" on="0"/>
        <pt x="1004" y="705" on="1"/>
        <pt x="920" y="783" on="0"/>
        <pt x="920" y="869" on="1"/>
        <pt x="920" y="910" on="0"/>
        <pt x="1006" y="1026" on="1"/>
        <pt x="1038" y="1069" on="0"/>
        <pt x="1108" y="1105" on="1"/>
        <pt x="1379" y="1247" on="0"/>
        <pt x="1711" y="1393" on="1"/>
        <pt x="1984" y="1512" on="0"/>
        <pt x="2257" y="1632" on="1"/>
        <pt x="2263" y="1627" on="0"/>
        <pt x="2297" y="1602" on="0"/>
        <pt x="2302" y="1597" on="1"/>
        <pt x="2293" y="1566" on="0"/>
        <pt x="2284" y="1535" on="1"/>
        <pt x="2269" y="1493" on="0"/>
        <pt x="2245" y="1481" on="1"/>
        <pt x="2111" y="1412" on="0"/>
        <pt x="1859" y="1312" on="1"/>
        <pt x="1578" y="1198" on="0"/>
        <pt x="1471" y="1148" on="1"/>
        <pt x="1161" y="1000" on="0"/>
        <pt x="1043" y="899" on="1"/>
        <pt x="1062" y="862" on="0"/>
        <pt x="1092" y="845" on="1"/>
        <pt x="1795" y="468" on="0"/>
        <pt x="2229" y="170" on="1"/>
        <pt x="2261" y="147" on="0"/>
        <pt x="2431" y="147" on="1"/>
        <pt x="2436" y="147" on="0"/>
        <pt x="2487" y="143" on="0"/>
        <pt x="2505" y="143" on="1"/>
        <pt x="2532" y="143" on="0"/>
        <pt x="2552" y="150" on="1"/>
        <pt x="2583" y="160" on="0"/>
        <pt x="2655" y="214" on="1"/>
        <pt x="2717" y="260" on="0"/>
        <pt x="2759" y="260" on="1"/>
        <pt x="2771" y="260" on="0"/>
        <pt x="2955" y="178" on="0"/>
        <pt x="2968" y="178" on="1"/>
        <pt x="3036" y="178" on="0"/>
        <pt x="3281" y="526" on="0"/>
        <pt x="3342" y="526" on="1"/>
        <pt x="3394" y="526" on="0"/>
        <pt x="3452" y="391" on="1"/>
        <pt x="3501" y="277" on="0"/>
      </contour>
      <contour>
        <pt x="736" y="1529" on="1"/>
        <pt x="736" y="1479" on="0"/>
        <pt x="703" y="1461" on="1"/>
        <pt x="564" y="1393" on="0"/>
        <pt x="282" y="1244" on="1"/>
        <pt x="238" y="1244" on="1"/>
        <pt x="224" y="1257" on="0"/>
        <pt x="224" y="1279" on="1"/>
        <pt x="224" y="1331" on="0"/>
        <pt x="439" y="1444" on="1"/>
        <pt x="618" y="1538" on="0"/>
        <pt x="722" y="1570" on="1"/>
        <pt x="736" y="1556" on="0"/>
      </contour>
      <contour>
        <pt x="675" y="997" on="1"/>
        <pt x="675" y="954" on="0"/>
        <pt x="670" y="940" on="1"/>
        <pt x="656" y="888" on="0"/>
        <pt x="584" y="854" on="1"/>
        <pt x="536" y="837" on="0"/>
        <pt x="488" y="819" on="1"/>
        <pt x="461" y="805" on="0"/>
        <pt x="435" y="791" on="1"/>
        <pt x="397" y="772" on="0"/>
        <pt x="378" y="772" on="1"/>
        <pt x="296" y="772" on="0"/>
        <pt x="296" y="869" on="1"/>
        <pt x="296" y="912" on="0"/>
        <pt x="340" y="976" on="1"/>
        <pt x="376" y="976" on="1"/>
        <pt x="381" y="949" on="0"/>
        <pt x="405" y="905" on="1"/>
        <pt x="444" y="918" on="0"/>
        <pt x="465" y="1019" on="0"/>
        <pt x="508" y="1038" on="1"/>
        <pt x="515" y="1026" on="0"/>
        <pt x="522" y="1015" on="1"/>
        <pt x="533" y="997" on="0"/>
        <pt x="530" y="975" on="1"/>
        <pt x="534" y="975" on="0"/>
        <pt x="543" y="967" on="0"/>
        <pt x="557" y="967" on="1"/>
        <pt x="577" y="967" on="0"/>
        <pt x="598" y="1019" on="1"/>
        <pt x="612" y="1053" on="0"/>
        <pt x="626" y="1089" on="1"/>
        <pt x="663" y="1089" on="1"/>
        <pt x="675" y="1052" on="0"/>
      </contour>
      <contour>
        <pt x="788" y="373" on="1"/>
        <pt x="788" y="339" on="0"/>
        <pt x="751" y="303" on="1"/>
        <pt x="717" y="270" on="0"/>
        <pt x="695" y="270" on="1"/>
        <pt x="656" y="270" on="0"/>
        <pt x="616" y="309" on="1"/>
        <pt x="583" y="342" on="0"/>
        <pt x="583" y="362" on="1"/>
        <pt x="583" y="390" on="0"/>
        <pt x="646" y="475" on="0"/>
        <pt x="670" y="475" on="1"/>
        <pt x="698" y="475" on="0"/>
        <pt x="788" y="396" on="0"/>
      </contour>
      <contour>
        <pt x="3347" y="263" on="1"/>
        <pt x="3339" y="286" on="0"/>
        <pt x="3294" y="331" on="0"/>
        <pt x="3279" y="331" on="1"/>
        <pt x="3274" y="326" on="0"/>
        <pt x="3250" y="290" on="0"/>
        <pt x="3244" y="285" on="1"/>
        <pt x="3315" y="250" on="0"/>
        <pt x="3321" y="250" on="1"/>
        <pt x="3345" y="250" on="0"/>
      </contour>
    </TTGlyph>
    <TTGlyph name="uniFB55" xMin="194" yMin="-461" xMax="1678" yMax="1638">
      <contour>
        <pt x="1187" y="1582" on="1"/>
        <pt x="1187" y="1527" on="0"/>
        <pt x="731" y="1290" on="1"/>
        <pt x="688" y="1290" on="0"/>
        <pt x="664" y="1336" on="1"/>
        <pt x="688" y="1389" on="0"/>
        <pt x="892" y="1516" on="1"/>
        <pt x="1089" y="1638" on="0"/>
        <pt x="1130" y="1638" on="1"/>
        <pt x="1150" y="1638" on="0"/>
        <pt x="1187" y="1601" on="0"/>
      </contour>
      <contour>
        <pt x="1125" y="1259" on="1"/>
        <pt x="1125" y="1075" on="0"/>
        <pt x="917" y="1040" on="1"/>
        <pt x="907" y="1039" on="0"/>
        <pt x="873" y="1026" on="1"/>
        <pt x="844" y="1013" on="0"/>
        <pt x="823" y="1013" on="1"/>
        <pt x="788" y="1013" on="0"/>
        <pt x="736" y="1058" on="0"/>
        <pt x="736" y="1090" on="1"/>
        <pt x="736" y="1108" on="0"/>
        <pt x="813" y="1236" on="0"/>
        <pt x="835" y="1248" on="1"/>
        <pt x="840" y="1214" on="0"/>
        <pt x="866" y="1146" on="1"/>
        <pt x="895" y="1155" on="0"/>
        <pt x="903" y="1203" on="1"/>
        <pt x="911" y="1257" on="0"/>
        <pt x="944" y="1279" on="1"/>
        <pt x="980" y="1279" on="1"/>
        <pt x="984" y="1248" on="0"/>
        <pt x="1007" y="1188" on="1"/>
        <pt x="1024" y="1209" on="0"/>
        <pt x="1042" y="1260" on="1"/>
        <pt x="1062" y="1316" on="0"/>
        <pt x="1077" y="1340" on="1"/>
        <pt x="1113" y="1340" on="1"/>
        <pt x="1125" y="1316" on="0"/>
      </contour>
      <contour>
        <pt x="1483" y="179" on="1"/>
        <pt x="1483" y="131" on="0"/>
        <pt x="1447" y="56" on="1"/>
        <pt x="1406" y="-31" on="0"/>
        <pt x="1361" y="-31" on="1"/>
        <pt x="1294" y="-31" on="1"/>
        <pt x="1279" y="-31" on="0"/>
        <pt x="1102" y="57" on="0"/>
        <pt x="1088" y="72" on="1"/>
        <pt x="1062" y="72" on="1"/>
        <pt x="974" y="-113" on="0"/>
        <pt x="823" y="-113" on="1"/>
        <pt x="799" y="-113" on="0"/>
        <pt x="752" y="-92" on="1"/>
        <pt x="695" y="-67" on="0"/>
        <pt x="678" y="-38" on="1"/>
        <pt x="668" y="-4" on="0"/>
        <pt x="637" y="72" on="1"/>
        <pt x="616" y="53" on="0"/>
        <pt x="560" y="13" on="1"/>
        <pt x="472" y="-40" on="0"/>
        <pt x="409" y="-40" on="1"/>
        <pt x="367" y="-40" on="0"/>
        <pt x="289" y="-12" on="1"/>
        <pt x="194" y="22" on="0"/>
        <pt x="194" y="61" on="1"/>
        <pt x="194" y="80" on="0"/>
        <pt x="238" y="141" on="1"/>
        <pt x="317" y="250" on="0"/>
        <pt x="473" y="354" on="1"/>
        <pt x="532" y="383" on="0"/>
        <pt x="631" y="459" on="1"/>
        <pt x="633" y="460" on="0"/>
        <pt x="653" y="538" on="1"/>
        <pt x="669" y="601" on="0"/>
        <pt x="713" y="614" on="1"/>
        <pt x="717" y="591" on="0"/>
        <pt x="743" y="241" on="1"/>
        <pt x="750" y="137" on="0"/>
        <pt x="765" y="106" on="1"/>
        <pt x="786" y="61" on="0"/>
        <pt x="849" y="61" on="1"/>
        <pt x="916" y="61" on="0"/>
        <pt x="963" y="97" on="1"/>
        <pt x="1016" y="138" on="0"/>
        <pt x="1023" y="210" on="1"/>
        <pt x="962" y="619" on="1"/>
        <pt x="962" y="620" on="0"/>
        <pt x="979" y="719" on="1"/>
        <pt x="989" y="780" on="0"/>
        <pt x="1016" y="808" on="1"/>
        <pt x="1062" y="808" on="1"/>
        <pt x="1089" y="621" on="0"/>
        <pt x="1128" y="292" on="1"/>
        <pt x="1133" y="240" on="0"/>
        <pt x="1204" y="195" on="1"/>
        <pt x="1270" y="153" on="0"/>
        <pt x="1325" y="153" on="1"/>
        <pt x="1361" y="153" on="0"/>
        <pt x="1361" y="194" on="1"/>
        <pt x="1361" y="203" on="0"/>
        <pt x="1322" y="314" on="1"/>
        <pt x="1281" y="433" on="0"/>
        <pt x="1271" y="485" on="1"/>
        <pt x="1248" y="614" on="0"/>
        <pt x="1248" y="670" on="1"/>
        <pt x="1248" y="700" on="0"/>
        <pt x="1302" y="809" on="1"/>
        <pt x="1343" y="792" on="0"/>
        <pt x="1357" y="711" on="1"/>
        <pt x="1367" y="646" on="0"/>
        <pt x="1377" y="579" on="1"/>
        <pt x="1411" y="509" on="0"/>
        <pt x="1460" y="365" on="1"/>
        <pt x="1483" y="254" on="0"/>
      </contour>
      <contour>
        <pt x="1678" y="-209" on="1"/>
        <pt x="1678" y="-266" on="0"/>
        <pt x="1467" y="-349" on="1"/>
        <pt x="1331" y="-403" on="0"/>
        <pt x="1192" y="-440" on="1"/>
        <pt x="1177" y="-428" on="0"/>
        <pt x="1167" y="-428" on="1"/>
        <pt x="1167" y="-395" on="1"/>
        <pt x="1166" y="-380" on="0"/>
        <pt x="1212" y="-328" on="0"/>
        <pt x="1231" y="-321" on="1"/>
        <pt x="1275" y="-305" on="0"/>
        <pt x="1458" y="-231" on="1"/>
        <pt x="1598" y="-174" on="0"/>
        <pt x="1613" y="-174" on="1"/>
        <pt x="1665" y="-174" on="1"/>
        <pt x="1678" y="-187" on="0"/>
      </contour>
      <contour>
        <pt x="726" y="-230" on="1"/>
        <pt x="726" y="-275" on="0"/>
        <pt x="699" y="-303" on="1"/>
        <pt x="352" y="-461" on="0"/>
        <pt x="331" y="-460" on="1"/>
        <pt x="248" y="-460" on="1"/>
        <pt x="235" y="-447" on="0"/>
        <pt x="235" y="-425" on="1"/>
        <pt x="235" y="-373" on="0"/>
        <pt x="335" y="-334" on="1"/>
        <pt x="399" y="-314" on="0"/>
        <pt x="463" y="-294" on="1"/>
        <pt x="546" y="-259" on="0"/>
        <pt x="712" y="-194" on="1"/>
        <pt x="726" y="-208" on="0"/>
      </contour>
      <contour>
        <pt x="634" y="225" on="1"/>
        <pt x="634" y="248" on="0"/>
        <pt x="610" y="297" on="1"/>
        <pt x="389" y="188" on="0"/>
        <pt x="368" y="136" on="1"/>
        <pt x="405" y="123" on="0"/>
        <pt x="465" y="123" on="1"/>
        <pt x="525" y="123" on="0"/>
        <pt x="572" y="144" on="1"/>
        <pt x="634" y="172" on="0"/>
      </contour>
    </TTGlyph>
    <TTGlyph name="uniFB56" xMin="194" yMin="-684" xMax="4668" yMax="1712">
      <contour>
        <pt x="4607" y="1615" on="1"/>
        <pt x="4607" y="1556" on="0"/>
        <pt x="4542" y="1517" on="1"/>
        <pt x="4487" y="1490" on="0"/>
        <pt x="4430" y="1463" on="1"/>
        <pt x="4317" y="1403" on="0"/>
        <pt x="4091" y="1282" on="1"/>
        <pt x="4057" y="1282" on="1"/>
        <pt x="4043" y="1295" on="0"/>
        <pt x="4043" y="1312" on="1"/>
        <pt x="4043" y="1363" on="0"/>
        <pt x="4059" y="1373" on="1"/>
        <pt x="4150" y="1435" on="0"/>
        <pt x="4306" y="1516" on="1"/>
        <pt x="4535" y="1636" on="0"/>
        <pt x="4560" y="1650" on="1"/>
        <pt x="4594" y="1650" on="1"/>
        <pt x="4607" y="1637" on="0"/>
      </contour>
      <contour>
        <pt x="3962" y="1594" on="1"/>
        <pt x="3962" y="1560" on="0"/>
        <pt x="3947" y="1539" on="1"/>
        <pt x="3913" y="1497" on="0"/>
        <pt x="3840" y="1460" on="1"/>
        <pt x="3717" y="1400" on="0"/>
        <pt x="3703" y="1391" on="1"/>
        <pt x="3526" y="1281" on="0"/>
        <pt x="3416" y="1221" on="1"/>
        <pt x="3406" y="1220" on="0"/>
        <pt x="3378" y="1245" on="0"/>
        <pt x="3378" y="1262" on="1"/>
        <pt x="3378" y="1324" on="0"/>
        <pt x="3628" y="1467" on="1"/>
        <pt x="3815" y="1575" on="0"/>
        <pt x="3948" y="1629" on="1"/>
        <pt x="3962" y="1615" on="0"/>
      </contour>
      <contour>
        <pt x="3123" y="1307" on="1"/>
        <pt x="3123" y="1287" on="0"/>
        <pt x="3088" y="1241" on="0"/>
        <pt x="3071" y="1241" on="1"/>
        <pt x="3059" y="1241" on="0"/>
        <pt x="2930" y="1323" on="0"/>
        <pt x="2918" y="1323" on="1"/>
        <pt x="2905" y="1323" on="0"/>
        <pt x="2856" y="1269" on="1"/>
        <pt x="2792" y="1199" on="0"/>
        <pt x="2773" y="1183" on="1"/>
        <pt x="2742" y="1157" on="0"/>
        <pt x="2631" y="1104" on="1"/>
        <pt x="2510" y="1046" on="0"/>
        <pt x="2467" y="1046" on="1"/>
        <pt x="2440" y="1046" on="0"/>
        <pt x="2426" y="1059" on="1"/>
        <pt x="2426" y="1058" on="0"/>
        <pt x="2440" y="1092" on="1"/>
        <pt x="2638" y="1227" on="0"/>
        <pt x="2805" y="1369" on="1"/>
        <pt x="2802" y="1373" on="0"/>
        <pt x="2734" y="1430" on="1"/>
        <pt x="2693" y="1466" on="0"/>
        <pt x="2693" y="1507" on="1"/>
        <pt x="2693" y="1559" on="0"/>
        <pt x="2841" y="1712" on="0"/>
        <pt x="2892" y="1712" on="1"/>
        <pt x="2938" y="1712" on="0"/>
        <pt x="2953" y="1601" on="1"/>
        <pt x="2957" y="1532" on="0"/>
        <pt x="2960" y="1463" on="1"/>
        <pt x="3005" y="1427" on="0"/>
        <pt x="3051" y="1392" on="1"/>
        <pt x="3123" y="1335" on="0"/>
      </contour>
      <contour>
        <pt x="4668" y="217" on="1"/>
        <pt x="4668" y="159" on="0"/>
        <pt x="4634" y="66" on="1"/>
        <pt x="4596" y="-34" on="0"/>
        <pt x="4546" y="-88" on="1"/>
        <pt x="4505" y="-145" on="0"/>
        <pt x="4411" y="-259" on="1"/>
        <pt x="4351" y="-326" on="0"/>
        <pt x="4156" y="-326" on="1"/>
        <pt x="3926" y="-326" on="0"/>
        <pt x="3762" y="-271" on="1"/>
        <pt x="3756" y="-251" on="0"/>
        <pt x="3740" y="-212" on="1"/>
        <pt x="3549" y="-315" on="0"/>
        <pt x="3496" y="-315" on="1"/>
        <pt x="3420" y="-315" on="0"/>
        <pt x="3229" y="-281" on="1"/>
        <pt x="3145" y="-267" on="0"/>
        <pt x="3051" y="-221" on="1"/>
        <pt x="3051" y="-194" on="1"/>
        <pt x="3057" y="-183" on="0"/>
        <pt x="3086" y="-165" on="1"/>
        <pt x="3231" y="-192" on="0"/>
        <pt x="3383" y="-192" on="1"/>
        <pt x="3412" y="-192" on="0"/>
        <pt x="3545" y="-149" on="1"/>
        <pt x="3559" y="-144" on="0"/>
        <pt x="3659" y="-74" on="1"/>
        <pt x="3713" y="-36" on="0"/>
        <pt x="3793" y="43" on="1"/>
        <pt x="3901" y="152" on="0"/>
        <pt x="3901" y="202" on="1"/>
        <pt x="3901" y="216" on="0"/>
        <pt x="3747" y="399" on="0"/>
        <pt x="3747" y="411" on="1"/>
        <pt x="3747" y="447" on="0"/>
        <pt x="3768" y="511" on="1"/>
        <pt x="3780" y="524" on="0"/>
        <pt x="3798" y="524" on="1"/>
        <pt x="3825" y="524" on="0"/>
        <pt x="3932" y="446" on="0"/>
        <pt x="3957" y="409" on="1"/>
        <pt x="4013" y="324" on="0"/>
        <pt x="4013" y="247" on="1"/>
        <pt x="4013" y="150" on="0"/>
        <pt x="3934" y="19" on="1"/>
        <pt x="3862" y="-101" on="0"/>
        <pt x="3757" y="-195" on="1"/>
        <pt x="3790" y="-199" on="0"/>
        <pt x="3903" y="-217" on="1"/>
        <pt x="3999" y="-233" on="0"/>
        <pt x="4013" y="-233" on="1"/>
        <pt x="4164" y="-233" on="0"/>
        <pt x="4303" y="-144" on="1"/>
        <pt x="4452" y="-48" on="0"/>
        <pt x="4528" y="113" on="1"/>
        <pt x="4528" y="125" on="1"/>
        <pt x="4471" y="94" on="0"/>
        <pt x="4453" y="94" on="1"/>
        <pt x="4395" y="94" on="0"/>
        <pt x="4259" y="202" on="0"/>
        <pt x="4259" y="247" on="1"/>
        <pt x="4259" y="311" on="0"/>
        <pt x="4316" y="440" on="1"/>
        <pt x="4382" y="586" on="0"/>
        <pt x="4443" y="586" on="1"/>
        <pt x="4495" y="586" on="0"/>
        <pt x="4546" y="523" on="1"/>
        <pt x="4584" y="466" on="0"/>
        <pt x="4623" y="410" on="1"/>
        <pt x="4641" y="384" on="0"/>
        <pt x="4655" y="307" on="1"/>
        <pt x="4668" y="244" on="0"/>
      </contour>
      <contour>
        <pt x="3389" y="340" on="1"/>
        <pt x="3389" y="318" on="0"/>
        <pt x="3364" y="252" on="1"/>
        <pt x="3336" y="178" on="0"/>
        <pt x="3305" y="139" on="1"/>
        <pt x="3286" y="115" on="0"/>
        <pt x="3205" y="115" on="1"/>
        <pt x="3191" y="115" on="0"/>
        <pt x="3069" y="156" on="0"/>
        <pt x="3055" y="156" on="1"/>
        <pt x="3043" y="156" on="0"/>
        <pt x="3023" y="137" on="1"/>
        <pt x="2996" y="112" on="0"/>
        <pt x="2987" y="107" on="1"/>
        <pt x="2908" y="63" on="0"/>
        <pt x="2825" y="63" on="1"/>
        <pt x="2815" y="63" on="0"/>
        <pt x="2717" y="104" on="0"/>
        <pt x="2702" y="104" on="1"/>
        <pt x="2692" y="104" on="0"/>
        <pt x="2606" y="82" on="1"/>
        <pt x="2505" y="56" on="0"/>
        <pt x="2475" y="50" on="1"/>
        <pt x="2328" y="-155" on="0"/>
        <pt x="2272" y="-217" on="1"/>
        <pt x="2113" y="-397" on="0"/>
        <pt x="1996" y="-397" on="1"/>
        <pt x="1862" y="-397" on="0"/>
        <pt x="1683" y="-371" on="1"/>
        <pt x="1472" y="-341" on="0"/>
        <pt x="1454" y="-301" on="1"/>
        <pt x="1454" y="-278" on="1"/>
        <pt x="1454" y="-263" on="0"/>
        <pt x="1497" y="-244" on="0"/>
        <pt x="1511" y="-247" on="1"/>
        <pt x="1631" y="-274" on="0"/>
        <pt x="1755" y="-274" on="1"/>
        <pt x="1939" y="-274" on="0"/>
        <pt x="2060" y="-212" on="1"/>
        <pt x="2187" y="-148" on="0"/>
        <pt x="2313" y="17" on="1"/>
        <pt x="2296" y="37" on="0"/>
        <pt x="2208" y="46" on="1"/>
        <pt x="2124" y="54" on="0"/>
        <pt x="2061" y="137" on="1"/>
        <pt x="2058" y="142" on="0"/>
        <pt x="2058" y="197" on="1"/>
        <pt x="2058" y="279" on="0"/>
        <pt x="2112" y="372" on="1"/>
        <pt x="2172" y="473" on="0"/>
        <pt x="2242" y="473" on="1"/>
        <pt x="2303" y="473" on="0"/>
        <pt x="2354" y="406" on="1"/>
        <pt x="2380" y="371" on="0"/>
        <pt x="2421" y="283" on="1"/>
        <pt x="2453" y="217" on="0"/>
        <pt x="2467" y="217" on="1"/>
        <pt x="2503" y="217" on="1"/>
        <pt x="2600" y="217" on="0"/>
        <pt x="2675" y="260" on="1"/>
        <pt x="2708" y="279" on="0"/>
        <pt x="2740" y="329" on="1"/>
        <pt x="2780" y="392" on="0"/>
        <pt x="2799" y="411" on="1"/>
        <pt x="2844" y="387" on="0"/>
        <pt x="2844" y="351" on="1"/>
        <pt x="2844" y="344" on="0"/>
        <pt x="2815" y="254" on="1"/>
        <pt x="2832" y="238" on="0"/>
        <pt x="2861" y="238" on="1"/>
        <pt x="2969" y="238" on="0"/>
        <pt x="3024" y="301" on="1"/>
        <pt x="3048" y="330" on="0"/>
        <pt x="3083" y="419" on="1"/>
        <pt x="3108" y="483" on="0"/>
        <pt x="3143" y="483" on="1"/>
        <pt x="3158" y="483" on="0"/>
        <pt x="3179" y="471" on="0"/>
        <pt x="3182" y="471" on="1"/>
        <pt x="3182" y="451" on="0"/>
        <pt x="3164" y="339" on="0"/>
        <pt x="3164" y="329" on="1"/>
        <pt x="3164" y="316" on="0"/>
        <pt x="3181" y="298" on="1"/>
        <pt x="3259" y="298" on="1"/>
        <pt x="3262" y="301" on="0"/>
        <pt x="3268" y="315" on="1"/>
        <pt x="3249" y="449" on="0"/>
        <pt x="3310" y="544" on="1"/>
        <pt x="3345" y="533" on="0"/>
        <pt x="3370" y="437" on="1"/>
        <pt x="3389" y="366" on="0"/>
      </contour>
      <contour>
        <pt x="1719" y="242" on="1"/>
        <pt x="1696" y="138" on="0"/>
        <pt x="1671" y="33" on="1"/>
        <pt x="1641" y="-39" on="0"/>
        <pt x="1525" y="-39" on="1"/>
        <pt x="1412" y="-39" on="0"/>
        <pt x="1336" y="31" on="1"/>
        <pt x="1295" y="70" on="0"/>
        <pt x="1222" y="186" on="1"/>
        <pt x="1157" y="138" on="0"/>
        <pt x="1093" y="88" on="1"/>
        <pt x="1052" y="63" on="0"/>
        <pt x="983" y="63" on="1"/>
        <pt x="950" y="63" on="0"/>
        <pt x="879" y="84" on="1"/>
        <pt x="812" y="105" on="0"/>
        <pt x="799" y="116" on="1"/>
        <pt x="797" y="124" on="0"/>
        <pt x="797" y="132" on="1"/>
        <pt x="797" y="188" on="0"/>
        <pt x="858" y="263" on="1"/>
        <pt x="915" y="335" on="0"/>
        <pt x="985" y="376" on="1"/>
        <pt x="1030" y="400" on="0"/>
        <pt x="1074" y="424" on="1"/>
        <pt x="1127" y="456" on="0"/>
        <pt x="1143" y="491" on="1"/>
        <pt x="1152" y="511" on="0"/>
        <pt x="1154" y="608" on="1"/>
        <pt x="1156" y="692" on="0"/>
        <pt x="1190" y="738" on="1"/>
        <pt x="1226" y="738" on="1"/>
        <pt x="1257" y="574" on="0"/>
        <pt x="1288" y="410" on="1"/>
        <pt x="1363" y="135" on="0"/>
        <pt x="1535" y="135" on="1"/>
        <pt x="1579" y="135" on="0"/>
        <pt x="1607" y="161" on="1"/>
        <pt x="1603" y="251" on="0"/>
        <pt x="1575" y="414" on="1"/>
        <pt x="1554" y="542" on="0"/>
        <pt x="1532" y="672" on="1"/>
        <pt x="1528" y="749" on="0"/>
        <pt x="1511" y="907" on="1"/>
        <pt x="1509" y="923" on="0"/>
        <pt x="1491" y="962" on="1"/>
        <pt x="1474" y="997" on="0"/>
        <pt x="1474" y="1010" on="1"/>
        <pt x="1474" y="1049" on="0"/>
        <pt x="1502" y="1123" on="1"/>
        <pt x="1533" y="1202" on="0"/>
        <pt x="1560" y="1220" on="1"/>
        <pt x="1578" y="1220" on="0"/>
        <pt x="1593" y="1196" on="1"/>
        <pt x="1592" y="1186" on="0"/>
        <pt x="1592" y="1177" on="1"/>
        <pt x="1592" y="1061" on="0"/>
        <pt x="1698" y="1046" on="1"/>
        <pt x="1698" y="954" on="0"/>
        <pt x="1674" y="916" on="1"/>
        <pt x="1637" y="854" on="0"/>
        <pt x="1637" y="829" on="1"/>
        <pt x="1637" y="822" on="0"/>
        <pt x="1637" y="817" on="1"/>
      </contour>
      <contour>
        <pt x="1740" y="-421" on="1"/>
        <pt x="1736" y="-457" on="0"/>
        <pt x="1703" y="-509" on="1"/>
        <pt x="1625" y="-556" on="0"/>
        <pt x="1477" y="-621" on="1"/>
        <pt x="1335" y="-684" on="0"/>
        <pt x="1314" y="-684" on="1"/>
        <pt x="1262" y="-684" on="1"/>
        <pt x="1254" y="-679" on="0"/>
        <pt x="1238" y="-669" on="0"/>
        <pt x="1238" y="-653" on="1"/>
        <pt x="1238" y="-593" on="0"/>
        <pt x="1406" y="-528" on="1"/>
        <pt x="1504" y="-483" on="0"/>
        <pt x="1705" y="-397" on="1"/>
        <pt x="1710" y="-402" on="0"/>
        <pt x="1735" y="-416" on="0"/>
      </contour>
      <contour>
        <pt x="1229" y="-217" on="1"/>
        <pt x="1229" y="-267" on="0"/>
        <pt x="1184" y="-291" on="1"/>
        <pt x="1079" y="-348" on="0"/>
        <pt x="749" y="-499" on="0"/>
        <pt x="731" y="-499" on="1"/>
        <pt x="689" y="-499" on="1"/>
        <pt x="676" y="-485" on="0"/>
        <pt x="676" y="-458" on="1"/>
        <pt x="676" y="-412" on="0"/>
        <pt x="719" y="-391" on="1"/>
        <pt x="938" y="-285" on="0"/>
        <pt x="1214" y="-182" on="1"/>
        <pt x="1229" y="-196" on="0"/>
      </contour>
      <contour>
        <pt x="736" y="4" on="1"/>
        <pt x="663" y="-22" on="0"/>
        <pt x="630" y="-26" on="1"/>
        <pt x="498" y="-39" on="0"/>
        <pt x="445" y="-39" on="1"/>
        <pt x="375" y="-39" on="0"/>
        <pt x="297" y="-18" on="1"/>
        <pt x="194" y="11" on="0"/>
        <pt x="194" y="58" on="1"/>
        <pt x="194" y="75" on="0"/>
        <pt x="246" y="147" on="0"/>
        <pt x="268" y="161" on="1"/>
        <pt x="315" y="176" on="0"/>
        <pt x="391" y="208" on="1"/>
        <pt x="409" y="220" on="0"/>
        <pt x="464" y="270" on="1"/>
        <pt x="508" y="309" on="0"/>
        <pt x="522" y="309" on="1"/>
        <pt x="544" y="309" on="0"/>
        <pt x="565" y="265" on="1"/>
        <pt x="583" y="229" on="0"/>
        <pt x="583" y="212" on="1"/>
        <pt x="583" y="192" on="0"/>
        <pt x="560" y="146" on="1"/>
        <pt x="546" y="146" on="0"/>
        <pt x="496" y="197" on="1"/>
        <pt x="442" y="163" on="0"/>
        <pt x="328" y="88" on="1"/>
        <pt x="346" y="70" on="0"/>
        <pt x="374" y="66" on="1"/>
        <pt x="464" y="53" on="0"/>
        <pt x="508" y="53" on="1"/>
        <pt x="515" y="53" on="0"/>
        <pt x="683" y="52" on="0"/>
        <pt x="725" y="52" on="1"/>
      </contour>
      <contour>
        <pt x="4494" y="301" on="1"/>
        <pt x="4494" y="337" on="1"/>
        <pt x="4471" y="359" on="0"/>
        <pt x="4428" y="401" on="1"/>
        <pt x="4382" y="378" on="0"/>
        <pt x="4382" y="343" on="1"/>
        <pt x="4382" y="311" on="1"/>
        <pt x="4450" y="279" on="0"/>
        <pt x="4459" y="279" on="1"/>
        <pt x="4470" y="279" on="0"/>
      </contour>
      <contour>
        <pt x="2854" y="1518" on="1"/>
        <pt x="2854" y="1558" on="0"/>
        <pt x="2841" y="1558" on="1"/>
        <pt x="2827" y="1558" on="0"/>
        <pt x="2827" y="1529" on="1"/>
        <pt x="2837" y="1529" on="0"/>
      </contour>
      <contour>
        <pt x="2293" y="231" on="1"/>
        <pt x="2264" y="260" on="0"/>
        <pt x="2216" y="299" on="1"/>
        <pt x="2194" y="277" on="0"/>
        <pt x="2181" y="277" on="1"/>
        <pt x="2181" y="241" on="1"/>
        <pt x="2193" y="229" on="0"/>
        <pt x="2235" y="227" on="1"/>
        <pt x="2275" y="224" on="0"/>
      </contour>
      <contour>
        <pt x="1187" y="279" on="1"/>
        <pt x="1187" y="336" on="0"/>
        <pt x="1175" y="360" on="1"/>
        <pt x="1139" y="360" on="1"/>
        <pt x="1076" y="321" on="0"/>
        <pt x="972" y="241" on="1"/>
        <pt x="1091" y="227" on="1"/>
        <pt x="1124" y="244" on="0"/>
      </contour>
    </TTGlyph>
    <TTGlyph name="uniFB57" xMin="185" yMin="-446" xMax="4075" yMax="1611">
      <contour>
        <pt x="4075" y="1479" on="1"/>
        <pt x="3910" y="1387" on="0"/>
        <pt x="3581" y="1222" on="1"/>
        <pt x="3571" y="1221" on="0"/>
        <pt x="3543" y="1248" on="0"/>
        <pt x="3543" y="1263" on="1"/>
        <pt x="3543" y="1315" on="0"/>
        <pt x="3587" y="1341" on="1"/>
        <pt x="3962" y="1561" on="0"/>
        <pt x="4000" y="1560" on="1"/>
        <pt x="4062" y="1560" on="1"/>
        <pt x="4075" y="1547" on="1"/>
      </contour>
      <contour>
        <pt x="3409" y="1554" on="1"/>
        <pt x="3410" y="1526" on="0"/>
        <pt x="3315" y="1485" on="1"/>
        <pt x="3241" y="1453" on="0"/>
        <pt x="3048" y="1351" on="1"/>
        <pt x="2884" y="1263" on="0"/>
        <pt x="2871" y="1263" on="1"/>
        <pt x="2829" y="1263" on="1"/>
        <pt x="2816" y="1277" on="0"/>
        <pt x="2816" y="1294" on="1"/>
        <pt x="2816" y="1311" on="0"/>
        <pt x="2861" y="1371" on="0"/>
        <pt x="2880" y="1382" on="1"/>
        <pt x="3309" y="1611" on="0"/>
        <pt x="3345" y="1611" on="1"/>
        <pt x="3409" y="1611" on="1"/>
      </contour>
      <contour>
        <pt x="3379" y="915" on="1"/>
        <pt x="3379" y="881" on="0"/>
        <pt x="3314" y="813" on="0"/>
        <pt x="3287" y="813" on="1"/>
        <pt x="3277" y="813" on="0"/>
        <pt x="3200" y="844" on="0"/>
        <pt x="3185" y="844" on="1"/>
        <pt x="3172" y="844" on="0"/>
        <pt x="3085" y="782" on="0"/>
        <pt x="3073" y="782" on="1"/>
        <pt x="3038" y="782" on="0"/>
        <pt x="2992" y="826" on="1"/>
        <pt x="2950" y="864" on="0"/>
        <pt x="2950" y="879" on="1"/>
        <pt x="2950" y="910" on="0"/>
        <pt x="2996" y="951" on="1"/>
        <pt x="3037" y="987" on="0"/>
        <pt x="3052" y="987" on="1"/>
        <pt x="3062" y="987" on="0"/>
        <pt x="3136" y="936" on="0"/>
        <pt x="3149" y="936" on="1"/>
        <pt x="3162" y="936" on="0"/>
        <pt x="3244" y="1008" on="0"/>
        <pt x="3256" y="1008" on="1"/>
        <pt x="3289" y="1008" on="0"/>
        <pt x="3379" y="936" on="0"/>
      </contour>
      <contour>
        <pt x="2684" y="1386" on="1"/>
        <pt x="2684" y="1351" on="0"/>
        <pt x="2651" y="1319" on="1"/>
        <pt x="2625" y="1307" on="0"/>
        <pt x="2579" y="1281" on="1"/>
        <pt x="2467" y="1192" on="0"/>
        <pt x="2371" y="1192" on="1"/>
        <pt x="2303" y="1192" on="0"/>
        <pt x="2274" y="1237" on="1"/>
        <pt x="2287" y="1278" on="0"/>
        <pt x="2344" y="1297" on="1"/>
        <pt x="2426" y="1323" on="0"/>
        <pt x="2438" y="1331" on="1"/>
        <pt x="2439" y="1346" on="0"/>
        <pt x="2430" y="1352" on="1"/>
        <pt x="2394" y="1366" on="0"/>
        <pt x="2391" y="1366" on="1"/>
        <pt x="2380" y="1366" on="0"/>
        <pt x="2322" y="1338" on="1"/>
        <pt x="2253" y="1305" on="0"/>
        <pt x="2225" y="1295" on="1"/>
        <pt x="2225" y="1298" on="0"/>
        <pt x="2213" y="1321" on="0"/>
        <pt x="2213" y="1335" on="1"/>
        <pt x="2213" y="1386" on="0"/>
        <pt x="2317" y="1442" on="1"/>
        <pt x="2405" y="1488" on="0"/>
        <pt x="2438" y="1488" on="1"/>
        <pt x="2497" y="1488" on="0"/>
        <pt x="2649" y="1433" on="1"/>
        <pt x="2684" y="1420" on="0"/>
      </contour>
      <contour>
        <pt x="4075" y="260" on="1"/>
        <pt x="4075" y="43" on="0"/>
        <pt x="3726" y="-375" on="0"/>
        <pt x="3554" y="-375" on="1"/>
        <pt x="3353" y="-375" on="0"/>
        <pt x="3291" y="-362" on="1"/>
        <pt x="3232" y="-351" on="0"/>
        <pt x="3173" y="-340" on="1"/>
        <pt x="3104" y="-326" on="0"/>
        <pt x="3073" y="-300" on="1"/>
        <pt x="3073" y="-264" on="1"/>
        <pt x="3080" y="-258" on="0"/>
        <pt x="3096" y="-245" on="1"/>
        <pt x="3229" y="-262" on="0"/>
        <pt x="3297" y="-262" on="1"/>
        <pt x="3706" y="-262" on="0"/>
        <pt x="3929" y="93" on="1"/>
        <pt x="3939" y="120" on="0"/>
        <pt x="3936" y="127" on="1"/>
        <pt x="3881" y="96" on="0"/>
        <pt x="3861" y="96" on="1"/>
        <pt x="3789" y="96" on="0"/>
        <pt x="3738" y="183" on="1"/>
        <pt x="3697" y="252" on="0"/>
        <pt x="3697" y="306" on="1"/>
        <pt x="3697" y="348" on="0"/>
        <pt x="3733" y="440" on="1"/>
        <pt x="3779" y="557" on="0"/>
        <pt x="3835" y="557" on="1"/>
        <pt x="3910" y="557" on="0"/>
        <pt x="3997" y="432" on="1"/>
        <pt x="4075" y="319" on="0"/>
      </contour>
      <contour>
        <pt x="1864" y="1479" on="1"/>
        <pt x="1864" y="1428" on="0"/>
        <pt x="1831" y="1410" on="1"/>
        <pt x="1381" y="1161" on="0"/>
        <pt x="1356" y="1162" on="1"/>
        <pt x="1303" y="1162" on="1"/>
        <pt x="1291" y="1162" on="0"/>
        <pt x="1291" y="1186" on="1"/>
        <pt x="1291" y="1198" on="0"/>
        <pt x="1314" y="1252" on="0"/>
        <pt x="1315" y="1261" on="1"/>
        <pt x="1768" y="1520" on="0"/>
        <pt x="1809" y="1518" on="1"/>
        <pt x="1853" y="1518" on="1"/>
        <pt x="1853" y="1515" on="0"/>
        <pt x="1864" y="1493" on="0"/>
      </contour>
      <contour>
        <pt x="1086" y="1433" on="1"/>
        <pt x="1061" y="1377" on="0"/>
        <pt x="1034" y="1349" on="1"/>
        <pt x="1012" y="1340" on="0"/>
        <pt x="971" y="1321" on="1"/>
        <pt x="921" y="1295" on="0"/>
        <pt x="840" y="1268" on="1"/>
        <pt x="765" y="1243" on="0"/>
        <pt x="743" y="1243" on="1"/>
        <pt x="713" y="1243" on="0"/>
        <pt x="667" y="1266" on="1"/>
        <pt x="667" y="1312" on="1"/>
        <pt x="718" y="1337" on="0"/>
        <pt x="820" y="1392" on="1"/>
        <pt x="817" y="1397" on="0"/>
        <pt x="779" y="1397" on="1"/>
        <pt x="753" y="1397" on="0"/>
        <pt x="650" y="1345" on="1"/>
        <pt x="625" y="1370" on="0"/>
        <pt x="625" y="1391" on="1"/>
        <pt x="625" y="1436" on="0"/>
        <pt x="699" y="1490" on="1"/>
        <pt x="769" y="1540" on="0"/>
        <pt x="809" y="1540" on="1"/>
        <pt x="814" y="1540" on="0"/>
        <pt x="1060" y="1463" on="1"/>
        <pt x="1066" y="1453" on="0"/>
      </contour>
      <contour>
        <pt x="3349" y="306" on="1"/>
        <pt x="3349" y="164" on="0"/>
        <pt x="3249" y="79" on="1"/>
        <pt x="3160" y="4" on="0"/>
        <pt x="3042" y="4" on="1"/>
        <pt x="2965" y="4" on="1"/>
        <pt x="2889" y="4" on="0"/>
        <pt x="2692" y="116" on="0"/>
        <pt x="2698" y="116" on="1"/>
        <pt x="2687" y="116" on="0"/>
        <pt x="2668" y="105" on="1"/>
        <pt x="2647" y="91" on="0"/>
        <pt x="2639" y="88" on="1"/>
        <pt x="2336" y="14" on="0"/>
        <pt x="2099" y="14" on="1"/>
        <pt x="2088" y="14" on="0"/>
        <pt x="1926" y="45" on="0"/>
        <pt x="1915" y="45" on="1"/>
        <pt x="1903" y="45" on="0"/>
        <pt x="1810" y="-36" on="0"/>
        <pt x="1798" y="-36" on="1"/>
        <pt x="1805" y="-36" on="0"/>
        <pt x="1561" y="7" on="1"/>
        <pt x="1535" y="11" on="0"/>
        <pt x="1449" y="75" on="1"/>
        <pt x="1426" y="54" on="0"/>
        <pt x="1381" y="18" on="1"/>
        <pt x="1367" y="8" on="0"/>
        <pt x="1238" y="-27" on="0"/>
        <pt x="1214" y="-27" on="1"/>
        <pt x="1187" y="-27" on="0"/>
        <pt x="1042" y="15" on="1"/>
        <pt x="1023" y="-72" on="0"/>
        <pt x="1003" y="-160" on="1"/>
        <pt x="975" y="-280" on="0"/>
        <pt x="885" y="-340" on="1"/>
        <pt x="840" y="-371" on="0"/>
        <pt x="728" y="-407" on="1"/>
        <pt x="611" y="-446" on="0"/>
        <pt x="554" y="-446" on="1"/>
        <pt x="449" y="-446" on="0"/>
        <pt x="330" y="-380" on="1"/>
        <pt x="185" y="-299" on="0"/>
        <pt x="185" y="-180" on="1"/>
        <pt x="185" y="-99" on="0"/>
        <pt x="226" y="4" on="1"/>
        <pt x="275" y="129" on="0"/>
        <pt x="353" y="177" on="1"/>
        <pt x="389" y="177" on="1"/>
        <pt x="389" y="174" on="0"/>
        <pt x="400" y="156" on="0"/>
        <pt x="400" y="143" on="1"/>
        <pt x="400" y="129" on="0"/>
        <pt x="308" y="-80" on="0"/>
        <pt x="308" y="-93" on="1"/>
        <pt x="308" y="-168" on="0"/>
        <pt x="420" y="-226" on="1"/>
        <pt x="509" y="-272" on="0"/>
        <pt x="559" y="-272" on="1"/>
        <pt x="669" y="-272" on="0"/>
        <pt x="781" y="-223" on="1"/>
        <pt x="922" y="-163" on="0"/>
        <pt x="922" y="-67" on="1"/>
        <pt x="820" y="926" on="1"/>
        <pt x="820" y="942" on="0"/>
        <pt x="871" y="1055" on="0"/>
        <pt x="885" y="1068" on="1"/>
        <pt x="897" y="1068" on="0"/>
        <pt x="918" y="1035" on="1"/>
        <pt x="948" y="868" on="0"/>
        <pt x="990" y="563" on="1"/>
        <pt x="992" y="540" on="0"/>
        <pt x="1016" y="430" on="1"/>
        <pt x="1048" y="294" on="0"/>
        <pt x="1066" y="254" on="1"/>
        <pt x="1119" y="147" on="0"/>
        <pt x="1225" y="147" on="1"/>
        <pt x="1275" y="147" on="1"/>
        <pt x="1355" y="147" on="0"/>
        <pt x="1580" y="383" on="0"/>
        <pt x="1619" y="383" on="1"/>
        <pt x="1643" y="383" on="0"/>
        <pt x="1726" y="322" on="1"/>
        <pt x="1815" y="257" on="0"/>
        <pt x="1830" y="252" on="1"/>
        <pt x="1877" y="242" on="0"/>
        <pt x="1973" y="215" on="1"/>
        <pt x="2047" y="188" on="0"/>
        <pt x="2181" y="188" on="1"/>
        <pt x="2323" y="188" on="0"/>
        <pt x="2482" y="221" on="0"/>
        <pt x="2561" y="238" on="1"/>
        <pt x="2561" y="236" on="0"/>
        <pt x="2581" y="256" on="1"/>
        <pt x="2567" y="283" on="0"/>
        <pt x="2532" y="283" on="1"/>
        <pt x="2502" y="282" on="0"/>
        <pt x="2471" y="281" on="1"/>
        <pt x="2458" y="294" on="0"/>
        <pt x="2458" y="316" on="1"/>
        <pt x="2458" y="383" on="0"/>
        <pt x="2574" y="440" on="1"/>
        <pt x="2667" y="485" on="0"/>
        <pt x="2714" y="485" on="1"/>
        <pt x="2788" y="485" on="0"/>
        <pt x="2867" y="444" on="1"/>
        <pt x="2960" y="396" on="0"/>
        <pt x="2960" y="326" on="1"/>
        <pt x="2960" y="286" on="0"/>
        <pt x="2938" y="261" on="1"/>
        <pt x="2889" y="206" on="0"/>
        <pt x="2888" y="204" on="1"/>
        <pt x="2910" y="178" on="0"/>
        <pt x="3021" y="178" on="1"/>
        <pt x="3138" y="178" on="0"/>
        <pt x="3237" y="236" on="1"/>
        <pt x="3237" y="256" on="0"/>
        <pt x="3134" y="464" on="0"/>
        <pt x="3134" y="480" on="1"/>
        <pt x="3134" y="504" on="0"/>
        <pt x="3152" y="543" on="1"/>
        <pt x="3173" y="587" on="0"/>
        <pt x="3196" y="587" on="1"/>
        <pt x="3215" y="587" on="0"/>
        <pt x="3268" y="514" on="1"/>
        <pt x="3349" y="403" on="0"/>
      </contour>
      <contour>
        <pt x="3891" y="304" on="1"/>
        <pt x="3891" y="324" on="0"/>
        <pt x="3866" y="352" on="1"/>
        <pt x="3841" y="378" on="0"/>
        <pt x="3822" y="382" on="1"/>
        <pt x="3810" y="324" on="1"/>
        <pt x="3825" y="310" on="0"/>
        <pt x="3853" y="302" on="1"/>
        <pt x="3879" y="296" on="0"/>
      </contour>
      <contour>
        <pt x="1659" y="180" on="1"/>
        <pt x="1634" y="229" on="0"/>
        <pt x="1593" y="250" on="1"/>
        <pt x="1568" y="237" on="1"/>
        <pt x="1568" y="201" on="1"/>
        <pt x="1609" y="180" on="0"/>
      </contour>
    </TTGlyph>
    <TTGlyph name="uniFB58" xMin="267" yMin="-420" xMax="3994" yMax="1669">
      <contour>
        <pt x="3533" y="1510" on="1"/>
        <pt x="3533" y="1461" on="0"/>
        <pt x="3490" y="1436" on="1"/>
        <pt x="3278" y="1339" on="0"/>
        <pt x="2854" y="1107" on="1"/>
        <pt x="2798" y="1107" on="1"/>
        <pt x="2798" y="1110" on="0"/>
        <pt x="2786" y="1121" on="0"/>
        <pt x="2786" y="1136" on="1"/>
        <pt x="2786" y="1186" on="0"/>
        <pt x="2829" y="1213" on="1"/>
        <pt x="2977" y="1307" on="0"/>
        <pt x="3210" y="1433" on="1"/>
        <pt x="3437" y="1556" on="0"/>
        <pt x="3458" y="1556" on="1"/>
        <pt x="3522" y="1556" on="1"/>
        <pt x="3522" y="1552" on="0"/>
        <pt x="3533" y="1525" on="0"/>
      </contour>
      <contour>
        <pt x="2684" y="532" on="1"/>
        <pt x="2684" y="454" on="0"/>
        <pt x="2627" y="399" on="1"/>
        <pt x="2603" y="416" on="0"/>
        <pt x="2593" y="475" on="1"/>
        <pt x="2578" y="553" on="0"/>
        <pt x="2567" y="576" on="1"/>
        <pt x="2554" y="605" on="0"/>
        <pt x="2508" y="673" on="1"/>
        <pt x="2468" y="728" on="0"/>
        <pt x="2468" y="742" on="1"/>
        <pt x="2468" y="758" on="0"/>
        <pt x="2485" y="786" on="1"/>
        <pt x="2504" y="819" on="0"/>
        <pt x="2525" y="819" on="1"/>
        <pt x="2590" y="819" on="0"/>
        <pt x="2643" y="684" on="1"/>
        <pt x="2684" y="580" on="0"/>
      </contour>
      <contour>
        <pt x="3994" y="343" on="1"/>
        <pt x="3994" y="213" on="0"/>
        <pt x="3842" y="118" on="1"/>
        <pt x="3735" y="52" on="0"/>
        <pt x="3600" y="23" on="1"/>
        <pt x="3549" y="11" on="0"/>
        <pt x="3278" y="0" on="0"/>
        <pt x="3222" y="-13" on="1"/>
        <pt x="3173" y="-25" on="0"/>
        <pt x="3133" y="-183" on="0"/>
        <pt x="3074" y="-192" on="1"/>
        <pt x="3068" y="-176" on="0"/>
        <pt x="3065" y="-137" on="1"/>
        <pt x="3067" y="-123" on="0"/>
        <pt x="3081" y="-70" on="1"/>
        <pt x="3093" y="-26" on="0"/>
        <pt x="3093" y="4" on="1"/>
        <pt x="3083" y="10" on="0"/>
        <pt x="2965" y="123" on="1"/>
        <pt x="2915" y="84" on="0"/>
        <pt x="2813" y="23" on="1"/>
        <pt x="2730" y="-13" on="0"/>
        <pt x="2607" y="-27" on="1"/>
        <pt x="2421" y="-51" on="0"/>
        <pt x="2335" y="-51" on="1"/>
        <pt x="2207" y="-51" on="1"/>
        <pt x="2195" y="-51" on="0"/>
        <pt x="2154" y="-35" on="0"/>
        <pt x="2145" y="-34" on="1"/>
        <pt x="2077" y="-32" on="0"/>
        <pt x="2005" y="11" on="1"/>
        <pt x="1928" y="58" on="0"/>
        <pt x="1889" y="133" on="1"/>
        <pt x="1847" y="75" on="0"/>
        <pt x="1769" y="24" on="1"/>
        <pt x="1742" y="19" on="0"/>
        <pt x="1686" y="7" on="1"/>
        <pt x="1615" y="-10" on="0"/>
        <pt x="1511" y="-10" on="1"/>
        <pt x="1273" y="-10" on="0"/>
        <pt x="1273" y="102" on="1"/>
        <pt x="1273" y="112" on="0"/>
        <pt x="1276" y="152" on="0"/>
        <pt x="1276" y="160" on="1"/>
        <pt x="1276" y="225" on="0"/>
        <pt x="1178" y="225" on="1"/>
        <pt x="1099" y="225" on="0"/>
        <pt x="762" y="71" on="0"/>
        <pt x="645" y="71" on="1"/>
        <pt x="437" y="71" on="0"/>
        <pt x="393" y="166" on="1"/>
        <pt x="350" y="258" on="0"/>
        <pt x="342" y="332" on="1"/>
        <pt x="314" y="564" on="0"/>
        <pt x="304" y="865" on="1"/>
        <pt x="302" y="913" on="0"/>
        <pt x="284" y="1022" on="1"/>
        <pt x="267" y="1129" on="0"/>
        <pt x="267" y="1136" on="1"/>
        <pt x="267" y="1196" on="0"/>
        <pt x="321" y="1269" on="1"/>
        <pt x="357" y="1269" on="1"/>
        <pt x="390" y="1179" on="0"/>
        <pt x="401" y="1035" on="1"/>
        <pt x="407" y="915" on="0"/>
        <pt x="413" y="794" on="1"/>
        <pt x="426" y="593" on="0"/>
        <pt x="454" y="374" on="1"/>
        <pt x="457" y="347" on="0"/>
        <pt x="487" y="317" on="1"/>
        <pt x="553" y="391" on="0"/>
        <pt x="619" y="464" on="1"/>
        <pt x="690" y="542" on="0"/>
        <pt x="763" y="542" on="1"/>
        <pt x="767" y="542" on="0"/>
        <pt x="921" y="484" on="1"/>
        <pt x="1081" y="422" on="0"/>
        <pt x="1153" y="412" on="1"/>
        <pt x="1239" y="407" on="0"/>
        <pt x="1411" y="396" on="1"/>
        <pt x="1445" y="393" on="0"/>
        <pt x="1495" y="378" on="1"/>
        <pt x="1495" y="331" on="0"/>
        <pt x="1465" y="283" on="1"/>
        <pt x="1432" y="226" on="0"/>
        <pt x="1382" y="217" on="1"/>
        <pt x="1382" y="215" on="0"/>
        <pt x="1384" y="202" on="1"/>
        <pt x="1447" y="153" on="0"/>
        <pt x="1496" y="153" on="1"/>
        <pt x="1598" y="153" on="1"/>
        <pt x="1664" y="153" on="0"/>
        <pt x="1756" y="187" on="1"/>
        <pt x="1868" y="227" on="0"/>
        <pt x="1868" y="279" on="1"/>
        <pt x="1868" y="287" on="0"/>
        <pt x="1864" y="296" on="1"/>
        <pt x="1772" y="1029" on="1"/>
        <pt x="1786" y="1100" on="0"/>
        <pt x="1828" y="1157" on="1"/>
        <pt x="1886" y="1127" on="0"/>
        <pt x="1891" y="1091" on="1"/>
        <pt x="1918" y="866" on="0"/>
        <pt x="1973" y="415" on="1"/>
        <pt x="1974" y="369" on="0"/>
        <pt x="1976" y="323" on="1"/>
        <pt x="1982" y="252" on="0"/>
        <pt x="2009" y="213" on="1"/>
        <pt x="2033" y="179" on="0"/>
        <pt x="2076" y="166" on="1"/>
        <pt x="2224" y="123" on="0"/>
        <pt x="2320" y="123" on="1"/>
        <pt x="2409" y="123" on="0"/>
        <pt x="2450" y="125" on="1"/>
        <pt x="2697" y="141" on="0"/>
        <pt x="2820" y="187" on="1"/>
        <pt x="2868" y="205" on="0"/>
        <pt x="2930" y="265" on="1"/>
        <pt x="2978" y="311" on="0"/>
        <pt x="3026" y="358" on="1"/>
        <pt x="3059" y="336" on="0"/>
        <pt x="3059" y="309" on="1"/>
        <pt x="3059" y="300" on="0"/>
        <pt x="3051" y="267" on="0"/>
        <pt x="3051" y="259" on="1"/>
        <pt x="3051" y="251" on="0"/>
        <pt x="3054" y="243" on="1"/>
        <pt x="3143" y="164" on="0"/>
        <pt x="3231" y="164" on="1"/>
        <pt x="3246" y="164" on="0"/>
        <pt x="3705" y="512" on="0"/>
        <pt x="3768" y="512" on="1"/>
        <pt x="3835" y="512" on="0"/>
        <pt x="3907" y="469" on="1"/>
        <pt x="3994" y="417" on="0"/>
      </contour>
      <contour>
        <pt x="1250" y="1611" on="1"/>
        <pt x="1250" y="1572" on="0"/>
        <pt x="1002" y="1440" on="1"/>
        <pt x="906" y="1389" on="0"/>
        <pt x="817" y="1331" on="1"/>
        <pt x="808" y="1330" on="0"/>
        <pt x="779" y="1359" on="0"/>
        <pt x="779" y="1377" on="1"/>
        <pt x="779" y="1429" on="0"/>
        <pt x="822" y="1459" on="1"/>
        <pt x="905" y="1518" on="0"/>
        <pt x="1047" y="1595" on="1"/>
        <pt x="1183" y="1669" on="0"/>
        <pt x="1204" y="1669" on="1"/>
        <pt x="1225" y="1669" on="0"/>
        <pt x="1250" y="1645" on="1"/>
      </contour>
      <contour>
        <pt x="973" y="1290" on="1"/>
        <pt x="973" y="1226" on="0"/>
        <pt x="777" y="1125" on="1"/>
        <pt x="600" y="1034" on="0"/>
        <pt x="559" y="1034" on="1"/>
        <pt x="544" y="1034" on="0"/>
        <pt x="528" y="1045" on="0"/>
        <pt x="523" y="1045" on="1"/>
        <pt x="523" y="1099" on="1"/>
        <pt x="523" y="1130" on="0"/>
        <pt x="714" y="1229" on="1"/>
        <pt x="895" y="1321" on="0"/>
        <pt x="908" y="1321" on="1"/>
        <pt x="960" y="1321" on="1"/>
        <pt x="973" y="1307" on="0"/>
      </contour>
      <contour>
        <pt x="2192" y="-163" on="1"/>
        <pt x="2192" y="-227" on="0"/>
        <pt x="2138" y="-253" on="1"/>
        <pt x="2039" y="-299" on="0"/>
        <pt x="1874" y="-360" on="1"/>
        <pt x="1715" y="-420" on="0"/>
        <pt x="1696" y="-420" on="1"/>
        <pt x="1674" y="-420" on="0"/>
        <pt x="1639" y="-385" on="1"/>
        <pt x="1665" y="-313" on="0"/>
        <pt x="1714" y="-290" on="1"/>
        <pt x="1814" y="-243" on="0"/>
        <pt x="1972" y="-182" on="1"/>
        <pt x="2126" y="-122" on="0"/>
        <pt x="2145" y="-122" on="1"/>
        <pt x="2192" y="-122" on="0"/>
      </contour>
      <contour>
        <pt x="3820" y="292" on="1"/>
        <pt x="3736" y="348" on="0"/>
        <pt x="3722" y="348" on="1"/>
        <pt x="3688" y="348" on="0"/>
        <pt x="3586" y="278" on="1"/>
        <pt x="3524" y="232" on="0"/>
        <pt x="3462" y="186" on="1"/>
        <pt x="3568" y="186" on="1"/>
        <pt x="3587" y="184" on="0"/>
        <pt x="3691" y="226" on="1"/>
        <pt x="3800" y="270" on="0"/>
      </contour>
      <contour>
        <pt x="861" y="292" on="1"/>
        <pt x="732" y="369" on="0"/>
        <pt x="713" y="369" on="1"/>
        <pt x="690" y="369" on="0"/>
        <pt x="638" y="333" on="1"/>
        <pt x="584" y="294" on="0"/>
        <pt x="584" y="271" on="1"/>
        <pt x="584" y="235" on="0"/>
        <pt x="641" y="235" on="1"/>
        <pt x="731" y="235" on="0"/>
      </contour>
    </TTGlyph>
</ttFont>
